<?xml version="1.0" encoding="UTF-8" standalone="no"?>
<svg width="1470px" height="681px" viewBox="0 0 1470 681" version="1.1" xmlns="http://www.w3.org/2000/svg" xmlns:xlink="http://www.w3.org/1999/xlink">
    <!-- Generator: Sketch 43.1 (39012) - http://www.bohemiancoding.com/sketch -->
    <title>Artboard Copy 2</title>
    <desc>Created with Sketch.</desc>
    <defs></defs>
    <g id="Landing" stroke="none" stroke-width="1" fill="none" fill-rule="evenodd">
        <g id="Artboard-Copy-2">
            <path d="M107.614468,568 L100,573.167721 L103.024002,575.218634 C103.024002,575.218634 103.372384,574.608952 104.695071,573.715133 C106.017757,572.821315 109.390141,570.431842 109.390141,570.431842 L107.614468,568 Z" id="Path-66" fill="#FFFFFF"></path>
            <polygon id="Path-67" fill="#FFFFFF" points="98.6291431 619.48565 102.40574 619.48565 102.40574 609 98.6587479 609"></polygon>
            <path d="M111.740798,569.404265 L104.271223,574.648619 C103.366061,575.284129 102.626425,576.704393 102.619325,577.801485 L101.837592,698.587071 C101.808962,703.010631 104.923598,704.849783 108.777852,702.704105 L277.795988,608.611052 C281.657618,606.461267 287.894595,606.483228 291.752166,608.674587 L334.850828,633.157522 C338.696982,635.342396 344.958709,635.390763 348.825169,633.271919 L408.644135,600.490758 C411.54743,598.899734 411.55035,596.317681 408.640783,594.718153 L381.272018,579.672234 C374.496359,575.947331 374.437342,569.808954 381.150969,565.955604 L574.860732,454.774064 C578.695931,452.572816 584.933814,452.539656 588.782914,454.694111 L909.839096,634.398745 C913.692906,636.555836 919.935179,636.550928 923.797542,634.378816 L1075.78525,548.904145 C1077.71117,547.821051 1079.27243,545.144064 1079.27243,542.946046 L1079.27243,518.343412 C1079.27243,516.135939 1080.81939,513.456134 1082.73724,512.352385 L1096.70428,504.314183 L1099.17488,507.330213 L1086.80839,514.40475 C1084.88815,515.503267 1083.33149,518.185031 1083.33149,520.392916 L1083.33149,545.276835 C1083.33149,547.485491 1081.76322,550.158587 1079.8536,551.233325 L923.786301,639.068309 C919.937283,641.234544 913.688196,641.237893 909.839096,639.081681 L588.782914,459.230587 C584.929104,457.071737 578.695768,457.110217 574.870932,459.310457 L382.569325,569.932133 C379.693353,571.586539 379.705897,574.219973 382.618201,575.825572 L409.868511,590.849102 C416.641244,594.583018 416.626951,600.621891 409.845819,604.332251 L348.837001,637.713801 C344.958805,639.835792 338.698238,639.793542 334.850828,637.617846 L291.752166,613.245715 C287.906012,611.070729 281.661214,611.057008 277.802125,613.216128 L110.087759,707.050576 C103.344589,710.82331 97.8961042,707.615839 97.9182501,699.878832 L98.2732334,575.860162 C98.2764052,574.752068 99.0249397,573.342312 99.9272972,572.723613 L109.131869,566.41252" id="Path-65" stroke="#C2C2C2"></path>
            <polygon id="Path" fill="#FFFFFF" points="1094.19704 506.312614 1084.89529 511.727843 1086.82747 513.815414 1096.13099 508.429151"></polygon>
            <rect id="Rectangle-6" fill="#FFFFFF" x="1079.75862" y="526" width="3.07631391" height="10"></rect>
            <path d="M915.117456,486.165765 L823.905379,536.958036 C820.048639,539.105697 817.014423,537.259583 817.127899,532.848963 L817.866677,504.134057 C817.95204,500.816156 815.666149,496.831665 812.767003,495.237748 L786.738941,480.927821 C783.837106,479.332425 779.127405,479.342003 776.239281,480.938297 L640.576357,555.920461 L640.928929,561.372116 L776.252405,485.859947 C779.142124,484.247449 783.834241,484.244485 786.725216,485.84926 L808.196607,497.767997 C811.090862,499.374593 813.375275,503.367434 813.29903,506.684366 L812.705527,532.503717 C812.502554,541.333717 818.604821,545.022811 826.331992,540.745381 L917.720492,490.156638" id="Path-57" stroke="#C2C2C2"></path>
            <g id="cable" transform="translate(536.000000, 352.000000)">
                <path d="M511.26252,127.851986 L474.500477,148.572937 C472.576522,149.657375 471.016849,152.326844 471.016849,154.534565 L471.016849,188.833637 C471.016849,191.041715 469.448048,193.697535 467.518397,194.762506 L383.653251,241.047523 C379.789466,243.179938 373.536553,243.156517 369.687361,240.995426 L112.011012,96.3255586 C108.161648,94.1643712 108.162339,90.6610851 112.018182,88.4975931 L166.287299,58.0474905 C173.032188,54.2629708 173.047285,48.1193004 166.304859,44.3161024 L92.1901087,2.51022121 C88.3388905,0.337865954 82.0861906,0.309985197 78.214394,2.45343869 L0.089918253,45.7036911 L0.318242801,50.9313865 L78.4632865,6.98031099 C82.3098969,4.81686394 88.5457216,4.83163163 92.3910053,7.0130769 L162.891855,47.0084985 C166.737311,49.1900417 166.747392,52.739752 162.920821,54.9333013 L109.68449,85.450573 C102.977192,89.2954743 103.005748,95.4943718 109.735173,99.288813 L369.688044,245.865349 C373.53703,248.035632 379.790825,248.052491 383.652067,245.90535 L471.51467,197.047152 C473.448006,195.972072 475.015284,193.312758 475.015284,191.108204 L475.015284,156.858345 C475.015284,154.653435 476.590152,151.999903 478.520268,150.938435 L513.365415,131.775333 L511.26252,127.851986 Z" id="Path-57-Copy" stroke="#C2C2C2"></path>
                <path d="M509.36762,129.563501 L476.483233,147.755147 C476.483233,147.755147 473.303575,149.338054 472.214005,152.316212 C471.124435,155.29437 471.378018,163.164225 471.378018,163.164225 L471.648176,182.25309 L474.497963,182.25309 C474.497963,182.25309 474.347695,169.654718 474.497963,163.164225 C474.64823,156.673732 474.494756,155.10731 475.632619,152.738697 C476.683679,150.550777 481.727792,148.597447 481.727792,148.597447 L511.784217,132.13438 L509.36762,129.563501 Z" id="Path-58-Copy" fill="#FFFFFF"></path>
                <polygon id="Path-59" fill="#FFFFFF" points="202.700549 147.853287 212.705109 153.330944 208.968451 154.631978 200.141639 149.667525"></polygon>
            </g>
            <polygon id="Path-58" fill="#FFFFFF" points="912.790802 488 884.765436 503.71345 888.681547 505.759895 915.702636 490.717376"></polygon>
            <polygon id="Path-3" fill="#FFFFFF" points="696.48189 518.992193 705.890361 524.40918 709.048904 522.571276 698.989265 516.953598"></polygon>
        </g>
    </g>
</svg>