<?xml version="1.0" encoding="UTF-8" standalone="no"?>
<svg width="1470px" height="681px" viewBox="0 0 1470 681" version="1.1" xmlns="http://www.w3.org/2000/svg" xmlns:xlink="http://www.w3.org/1999/xlink">
    <!-- Generator: Sketch 43.1 (39012) - http://www.bohemiancoding.com/sketch -->
    <title>Artboard Copy 2</title>
    <desc>Created with Sketch.</desc>
    <defs>
        <filter x="-37.5%" y="-33.5%" width="175.0%" height="167.1%" filterUnits="objectBoundingBox" id="filter-1">
            <feGaussianBlur stdDeviation="1" in="SourceGraphic"></feGaussianBlur>
        </filter>
        <filter x="-37.5%" y="-33.5%" width="175.0%" height="167.1%" filterUnits="objectBoundingBox" id="filter-2">
            <feGaussianBlur stdDeviation="1" in="SourceGraphic"></feGaussianBlur>
        </filter>
        <filter x="-37.5%" y="-33.5%" width="175.0%" height="167.1%" filterUnits="objectBoundingBox" id="filter-3">
            <feGaussianBlur stdDeviation="1" in="SourceGraphic"></feGaussianBlur>
        </filter>
        <filter x="-37.5%" y="-33.5%" width="175.0%" height="167.1%" filterUnits="objectBoundingBox" id="filter-4">
            <feGaussianBlur stdDeviation="1" in="SourceGraphic"></feGaussianBlur>
        </filter>
        <filter x="-37.5%" y="-33.5%" width="175.0%" height="167.1%" filterUnits="objectBoundingBox" id="filter-5">
            <feGaussianBlur stdDeviation="1" in="SourceGraphic"></feGaussianBlur>
        </filter>
        <filter x="-37.5%" y="-33.5%" width="175.0%" height="167.1%" filterUnits="objectBoundingBox" id="filter-6">
            <feGaussianBlur stdDeviation="1" in="SourceGraphic"></feGaussianBlur>
        </filter>
        <filter x="0.0%" y="0.0%" width="100.0%" height="100.0%" filterUnits="objectBoundingBox" id="filter-7">
            <feGaussianBlur stdDeviation="0" in="SourceGraphic"></feGaussianBlur>
        </filter>
        <filter x="0.0%" y="0.0%" width="100.0%" height="100.0%" filterUnits="objectBoundingBox" id="filter-8">
            <feGaussianBlur stdDeviation="0" in="SourceGraphic"></feGaussianBlur>
        </filter>
        <filter x="0.0%" y="0.0%" width="100.0%" height="100.0%" filterUnits="objectBoundingBox" id="filter-9">
            <feGaussianBlur stdDeviation="0" in="SourceGraphic"></feGaussianBlur>
        </filter>
        <filter x="0.0%" y="0.0%" width="100.0%" height="100.0%" filterUnits="objectBoundingBox" id="filter-10">
            <feGaussianBlur stdDeviation="0" in="SourceGraphic"></feGaussianBlur>
        </filter>
        <filter x="0.0%" y="0.0%" width="100.0%" height="100.0%" filterUnits="objectBoundingBox" id="filter-11">
            <feGaussianBlur stdDeviation="0" in="SourceGraphic"></feGaussianBlur>
        </filter>
        <filter x="0.0%" y="0.0%" width="100.0%" height="100.0%" filterUnits="objectBoundingBox" id="filter-12">
            <feGaussianBlur stdDeviation="0" in="SourceGraphic"></feGaussianBlur>
        </filter>
        <filter x="0.0%" y="0.0%" width="100.0%" height="100.0%" filterUnits="objectBoundingBox" id="filter-13">
            <feGaussianBlur stdDeviation="0" in="SourceGraphic"></feGaussianBlur>
        </filter>
        <filter x="0.0%" y="0.0%" width="100.0%" height="100.0%" filterUnits="objectBoundingBox" id="filter-14">
            <feGaussianBlur stdDeviation="0" in="SourceGraphic"></feGaussianBlur>
        </filter>
        <filter x="0.0%" y="0.0%" width="100.0%" height="100.0%" filterUnits="objectBoundingBox" id="filter-15">
            <feGaussianBlur stdDeviation="0" in="SourceGraphic"></feGaussianBlur>
        </filter>
        <filter x="-37.5%" y="-33.5%" width="175.0%" height="167.1%" filterUnits="objectBoundingBox" id="filter-16">
            <feGaussianBlur stdDeviation="1" in="SourceGraphic"></feGaussianBlur>
        </filter>
        <filter x="-37.5%" y="-33.5%" width="175.0%" height="167.1%" filterUnits="objectBoundingBox" id="filter-17">
            <feGaussianBlur stdDeviation="1" in="SourceGraphic"></feGaussianBlur>
        </filter>
        <filter x="-37.5%" y="-33.5%" width="175.0%" height="167.1%" filterUnits="objectBoundingBox" id="filter-18">
            <feGaussianBlur stdDeviation="1" in="SourceGraphic"></feGaussianBlur>
        </filter>
        <filter x="-37.5%" y="-33.5%" width="175.0%" height="167.1%" filterUnits="objectBoundingBox" id="filter-19">
            <feGaussianBlur stdDeviation="1" in="SourceGraphic"></feGaussianBlur>
        </filter>
        <filter x="-37.5%" y="-33.5%" width="175.0%" height="167.1%" filterUnits="objectBoundingBox" id="filter-20">
            <feGaussianBlur stdDeviation="1" in="SourceGraphic"></feGaussianBlur>
        </filter>
        <filter x="-37.5%" y="-33.5%" width="175.0%" height="167.1%" filterUnits="objectBoundingBox" id="filter-21">
            <feGaussianBlur stdDeviation="1" in="SourceGraphic"></feGaussianBlur>
        </filter>
        <filter x="0.0%" y="0.0%" width="100.0%" height="100.0%" filterUnits="objectBoundingBox" id="filter-22">
            <feGaussianBlur stdDeviation="0" in="SourceGraphic"></feGaussianBlur>
        </filter>
        <filter x="0.0%" y="0.0%" width="100.0%" height="100.0%" filterUnits="objectBoundingBox" id="filter-23">
            <feGaussianBlur stdDeviation="0" in="SourceGraphic"></feGaussianBlur>
        </filter>
        <filter x="0.0%" y="0.0%" width="100.0%" height="100.0%" filterUnits="objectBoundingBox" id="filter-24">
            <feGaussianBlur stdDeviation="0" in="SourceGraphic"></feGaussianBlur>
        </filter>
        <filter x="0.0%" y="0.0%" width="100.0%" height="100.0%" filterUnits="objectBoundingBox" id="filter-25">
            <feGaussianBlur stdDeviation="0" in="SourceGraphic"></feGaussianBlur>
        </filter>
        <filter x="0.0%" y="0.0%" width="100.0%" height="100.0%" filterUnits="objectBoundingBox" id="filter-26">
            <feGaussianBlur stdDeviation="0" in="SourceGraphic"></feGaussianBlur>
        </filter>
        <filter x="0.0%" y="0.0%" width="100.0%" height="100.0%" filterUnits="objectBoundingBox" id="filter-27">
            <feGaussianBlur stdDeviation="0" in="SourceGraphic"></feGaussianBlur>
        </filter>
        <filter x="0.0%" y="0.0%" width="100.0%" height="100.0%" filterUnits="objectBoundingBox" id="filter-28">
            <feGaussianBlur stdDeviation="0" in="SourceGraphic"></feGaussianBlur>
        </filter>
        <filter x="0.0%" y="0.0%" width="100.0%" height="100.0%" filterUnits="objectBoundingBox" id="filter-29">
            <feGaussianBlur stdDeviation="0" in="SourceGraphic"></feGaussianBlur>
        </filter>
        <filter x="0.0%" y="0.0%" width="100.0%" height="100.0%" filterUnits="objectBoundingBox" id="filter-30">
            <feGaussianBlur stdDeviation="0" in="SourceGraphic"></feGaussianBlur>
        </filter>
        <filter x="-37.5%" y="-33.5%" width="175.0%" height="167.1%" filterUnits="objectBoundingBox" id="filter-31">
            <feGaussianBlur stdDeviation="1" in="SourceGraphic"></feGaussianBlur>
        </filter>
        <filter x="-37.5%" y="-33.5%" width="175.0%" height="167.1%" filterUnits="objectBoundingBox" id="filter-32">
            <feGaussianBlur stdDeviation="1" in="SourceGraphic"></feGaussianBlur>
        </filter>
        <filter x="-37.5%" y="-33.5%" width="175.0%" height="167.1%" filterUnits="objectBoundingBox" id="filter-33">
            <feGaussianBlur stdDeviation="1" in="SourceGraphic"></feGaussianBlur>
        </filter>
        <filter x="-37.5%" y="-33.5%" width="175.0%" height="167.1%" filterUnits="objectBoundingBox" id="filter-34">
            <feGaussianBlur stdDeviation="1" in="SourceGraphic"></feGaussianBlur>
        </filter>
        <filter x="-37.5%" y="-33.5%" width="175.0%" height="167.1%" filterUnits="objectBoundingBox" id="filter-35">
            <feGaussianBlur stdDeviation="1" in="SourceGraphic"></feGaussianBlur>
        </filter>
        <filter x="-37.5%" y="-33.5%" width="175.0%" height="167.1%" filterUnits="objectBoundingBox" id="filter-36">
            <feGaussianBlur stdDeviation="1" in="SourceGraphic"></feGaussianBlur>
        </filter>
        <filter x="0.0%" y="0.0%" width="100.0%" height="100.0%" filterUnits="objectBoundingBox" id="filter-37">
            <feGaussianBlur stdDeviation="0" in="SourceGraphic"></feGaussianBlur>
        </filter>
        <filter x="0.0%" y="0.0%" width="100.0%" height="100.0%" filterUnits="objectBoundingBox" id="filter-38">
            <feGaussianBlur stdDeviation="0" in="SourceGraphic"></feGaussianBlur>
        </filter>
        <filter x="0.0%" y="0.0%" width="100.0%" height="100.0%" filterUnits="objectBoundingBox" id="filter-39">
            <feGaussianBlur stdDeviation="0" in="SourceGraphic"></feGaussianBlur>
        </filter>
        <filter x="0.0%" y="0.0%" width="100.0%" height="100.0%" filterUnits="objectBoundingBox" id="filter-40">
            <feGaussianBlur stdDeviation="0" in="SourceGraphic"></feGaussianBlur>
        </filter>
        <filter x="0.0%" y="0.0%" width="100.0%" height="100.0%" filterUnits="objectBoundingBox" id="filter-41">
            <feGaussianBlur stdDeviation="0" in="SourceGraphic"></feGaussianBlur>
        </filter>
        <filter x="0.0%" y="0.0%" width="100.0%" height="100.0%" filterUnits="objectBoundingBox" id="filter-42">
            <feGaussianBlur stdDeviation="0" in="SourceGraphic"></feGaussianBlur>
        </filter>
    </defs>
    <g id="Landing" stroke="none" stroke-width="1" fill="none" fill-rule="evenodd">
        <g id="Artboard-Copy-2">
            <g id="server" transform="translate(80.000000, 405.000000)">
                <path d="M182,73.4731128 C184.209139,72.3685468 186,69.6822581 186,67.4731191 C186,65.2639801 184.209139,64.3685468 182,65.4731128 C179.790861,66.5776787 178,69.2639674 178,71.4731064 C178,73.6822454 179.790861,74.5776787 182,73.4731128 Z" id="Oval-8-Copy-2" fill="#A3F419" filter="url(#filter-1)"></path>
                <path d="M182,112.473113 C184.209139,111.368547 186,108.682258 186,106.473119 C186,104.26398 184.209139,103.368547 182,104.473113 C179.790861,105.577679 178,108.263967 178,110.473106 C178,112.682245 179.790861,113.577679 182,112.473113 Z" id="Oval-8-Copy-4" fill="#A3F419" filter="url(#filter-2)"></path>
                <path d="M182,152.473113 C184.209139,151.368547 186,148.682258 186,146.473119 C186,144.26398 184.209139,143.368547 182,144.473113 C179.790861,145.577679 178,148.263967 178,150.473106 C178,152.682245 179.790861,153.577679 182,152.473113 Z" id="Oval-8-Copy-6" fill="#A3F419" filter="url(#filter-3)"></path>
                <path d="M196,65.4731128 C198.209139,64.3685468 200,61.6822581 200,59.4731191 C200,57.2639801 198.209139,56.3685468 196,57.4731128 C193.790861,58.5776787 192,61.2639674 192,63.4731064 C192,65.6822454 193.790861,66.5776787 196,65.4731128 Z" id="Oval-8-Copy-3" fill="#A3F419" filter="url(#filter-4)"></path>
                <path d="M196,104.473113 C198.209139,103.368547 200,100.682258 200,98.4731191 C200,96.2639801 198.209139,95.3685468 196,96.4731128 C193.790861,97.5776787 192,100.263967 192,102.473106 C192,104.682245 193.790861,105.577679 196,104.473113 Z" id="Oval-8-Copy-5" fill="#A3F419" filter="url(#filter-5)"></path>
                <path d="M196,144.473113 C198.209139,143.368547 200,140.682258 200,138.473119 C200,136.26398 198.209139,135.368547 196,136.473113 C193.790861,137.577679 192,140.263967 192,142.473106 C192,144.682245 193.790861,145.577679 196,144.473113 Z" id="Oval-8-Copy-7" fill="#A3F419" filter="url(#filter-6)"></path>
                <path d="M76.5,120.978064 L80.551152,118.830895 L80.551152,146.349883 L76.5,148.497052 L76.5,120.978064 Z" id="Rectangle-6-Copy-3" stroke="#D8D8D8" filter="url(#filter-7)"></path>
                <path d="M77.5,159.978064 L81.551152,157.830895 L81.551152,185.349883 L77.5,187.497052 L77.5,159.978064 Z" id="Rectangle-6-Copy-6" stroke="#D8D8D8" filter="url(#filter-8)"></path>
                <path d="M77.5,198.978064 L81.551152,196.830895 L81.551152,224.349883 L77.5,226.497052 L77.5,198.978064 Z" id="Rectangle-6-Copy-9" stroke="#D8D8D8" filter="url(#filter-9)"></path>
                <path d="M84.5,115.978064 L88.551152,113.830895 L88.551152,141.349883 L84.5,143.497052 L84.5,115.978064 Z" id="Rectangle-6-Copy-4" stroke="#D8D8D8" filter="url(#filter-10)"></path>
                <path d="M85.5,154.978064 L89.551152,152.830895 L89.551152,180.349883 L85.5,182.497052 L85.5,154.978064 Z" id="Rectangle-6-Copy-7" stroke="#D8D8D8" filter="url(#filter-11)"></path>
                <path d="M85.5,193.978064 L89.551152,191.830895 L89.551152,219.349883 L85.5,221.497052 L85.5,193.978064 Z" id="Rectangle-6-Copy-10" stroke="#D8D8D8" filter="url(#filter-12)"></path>
                <path d="M92.5,110.978064 L96.551152,108.830895 L96.551152,136.349883 L92.5,138.497052 L92.5,110.978064 Z" id="Rectangle-6-Copy-5" stroke="#D8D8D8" filter="url(#filter-13)"></path>
                <path d="M93.5,149.978064 L97.551152,147.830895 L97.551152,175.349883 L93.5,177.497052 L93.5,149.978064 Z" id="Rectangle-6-Copy-8" stroke="#D8D8D8" filter="url(#filter-14)"></path>
                <path d="M93.5,188.978064 L97.551152,186.830895 L97.551152,214.349883 L93.5,216.497052 L93.5,188.978064 Z" id="Rectangle-6-Copy-11" stroke="#D8D8D8" filter="url(#filter-15)"></path>
                <polyline id="Path-78" stroke="#C2C2C2" stroke-width="2" points="70.7196899 117.178849 0.781772957 78.4377286 0.781772957 196.0891 70.1359251 235.388424"></polyline>
                <polygon id="Path-32" stroke="#C2C2C2" stroke-width="2" points="70.3962025 234.770522 70.3962025 117.676541 210.709739 39.6974159 210.709739 157.012725"></polygon>
                <polyline id="Path-55" stroke="#C2C2C2" stroke-width="2" points="0.761752526 78.8092029 140.83084 0.830077494 211.220598 39.2085185"></polyline>
                <path d="M70.7434203,157.214407 L210.736719,78.9880414" id="Path-56-Copy" stroke="#C2C2C2" stroke-width="2"></path>
                <path d="M70.7434203,196.558515 L210.495399,117.648863" id="Path-56-Copy-2" stroke="#C2C2C2" stroke-width="2"></path>
            </g>
            <g id="plug" transform="translate(100.000000, 549.000000)" stroke="#C4C4C4" stroke-width="1.5">
                <path d="M10.9634146,30.448775 C17.0183413,33.6235434 21.9268293,31.0498863 21.9268293,24.700351 C21.9268293,18.3508157 17.0183413,10.629842 10.9634146,7.45507359 C4.90848793,4.28030516 8.52651283e-14,6.85396223 8.52651283e-14,13.2034975 C8.52651283e-14,19.5530328 4.90848793,27.2740066 10.9634146,30.448775 Z" id="Oval-8"></path>
                <path d="M3.43455088,6.68203784 L11.4478388,1.3643333 C11.4478388,1.3643333 17.2227781,-2.58876941 25.7722038,7.82081712 C34.3216295,18.2304037 28.0313371,25.2835316 28.0313371,25.2835316 L19.4949684,30.711865" id="Path-56"></path>
                <path d="M9.47888162,22.4878036 C10.955693,23.2437008 12.1528852,22.6309253 12.1528852,21.1191312 C12.1528852,19.6073371 10.955693,17.76901 9.47888162,17.0131128 C8.00207023,16.2572155 6.80487805,16.869991 6.80487805,18.3817851 C6.80487805,19.8935792 8.00207023,21.7319063 9.47888162,22.4878036 Z" id="Oval-8"></path>
                <path d="M7.64257339,16.8290566 L9.59703385,15.5629365 C9.59703385,15.5629365 11.0055556,14.6217216 13.0907814,17.1001946 C15.1760072,19.5786675 13.6417895,21.2579837 13.6417895,21.2579837 L11.5597484,22.550444" id="Path-56"></path>
            </g>
            <g id="server-copy-2" transform="translate(325.000000, 307.000000)">
                <path d="M182,74.4731128 C184.209139,73.3685468 186,70.6822581 186,68.4731191 C186,66.2639801 184.209139,65.3685468 182,66.4731128 C179.790861,67.5776787 178,70.2639674 178,72.4731064 C178,74.6822454 179.790861,75.5776787 182,74.4731128 Z" id="Oval-8-Copy-2" fill="#A3F419" filter="url(#filter-16)"></path>
                <path d="M182,113.473113 C184.209139,112.368547 186,109.682258 186,107.473119 C186,105.26398 184.209139,104.368547 182,105.473113 C179.790861,106.577679 178,109.263967 178,111.473106 C178,113.682245 179.790861,114.577679 182,113.473113 Z" id="Oval-8-Copy-4" fill="#A3F419" filter="url(#filter-17)"></path>
                <path d="M182,152.473113 C184.209139,151.368547 186,148.682258 186,146.473119 C186,144.26398 184.209139,143.368547 182,144.473113 C179.790861,145.577679 178,148.263967 178,150.473106 C178,152.682245 179.790861,153.577679 182,152.473113 Z" id="Oval-8-Copy-6" fill="#A3F419" filter="url(#filter-18)"></path>
                <path d="M196,66.4731128 C198.209139,65.3685468 200,62.6822581 200,60.4731191 C200,58.2639801 198.209139,57.3685468 196,58.4731128 C193.790861,59.5776787 192,62.2639674 192,64.4731064 C192,66.6822454 193.790861,67.5776787 196,66.4731128 Z" id="Oval-8-Copy-3" fill="#A3F419" filter="url(#filter-19)"></path>
                <path d="M196,105.473113 C198.209139,104.368547 200,101.682258 200,99.4731191 C200,97.2639801 198.209139,96.3685468 196,97.4731128 C193.790861,98.5776787 192,101.263967 192,103.473106 C192,105.682245 193.790861,106.577679 196,105.473113 Z" id="Oval-8-Copy-5" fill="#A3F419" filter="url(#filter-20)"></path>
                <path d="M196,144.473113 C198.209139,143.368547 200,140.682258 200,138.473119 C200,136.26398 198.209139,135.368547 196,136.473113 C193.790861,137.577679 192,140.263967 192,142.473106 C192,144.682245 193.790861,145.577679 196,144.473113 Z" id="Oval-8-Copy-7" fill="#A3F419" filter="url(#filter-21)"></path>
                <path d="M78.5,119.978064 L82.551152,117.830895 L82.551152,145.349883 L78.5,147.497052 L78.5,119.978064 Z" id="Rectangle-6-Copy-3" stroke="#D8D8D8" filter="url(#filter-22)"></path>
                <path d="M79.5,158.978064 L83.551152,156.830895 L83.551152,184.349883 L79.5,186.497052 L79.5,158.978064 Z" id="Rectangle-6-Copy-6" stroke="#D8D8D8" filter="url(#filter-23)"></path>
                <path d="M79.5,197.978064 L83.551152,195.830895 L83.551152,223.349883 L79.5,225.497052 L79.5,197.978064 Z" id="Rectangle-6-Copy-9" stroke="#D8D8D8" filter="url(#filter-24)"></path>
                <path d="M86.5,114.978064 L90.551152,112.830895 L90.551152,140.349883 L86.5,142.497052 L86.5,114.978064 Z" id="Rectangle-6-Copy-4" stroke="#D8D8D8" filter="url(#filter-25)"></path>
                <path d="M87.5,153.978064 L91.551152,151.830895 L91.551152,179.349883 L87.5,181.497052 L87.5,153.978064 Z" id="Rectangle-6-Copy-7" stroke="#D8D8D8" filter="url(#filter-26)"></path>
                <path d="M87.5,192.978064 L91.551152,190.830895 L91.551152,218.349883 L87.5,220.497052 L87.5,192.978064 Z" id="Rectangle-6-Copy-10" stroke="#D8D8D8" filter="url(#filter-27)"></path>
                <path d="M94.5,109.978064 L98.551152,107.830895 L98.551152,135.349883 L94.5,137.497052 L94.5,109.978064 Z" id="Rectangle-6-Copy-5" stroke="#D8D8D8" filter="url(#filter-28)"></path>
                <path d="M95.5,148.978064 L99.551152,146.830895 L99.551152,174.349883 L95.5,176.497052 L95.5,148.978064 Z" id="Rectangle-6-Copy-8" stroke="#D8D8D8" filter="url(#filter-29)"></path>
                <path d="M95.5,187.978064 L99.551152,185.830895 L99.551152,213.349883 L95.5,215.497052 L95.5,187.978064 Z" id="Rectangle-6-Copy-11" stroke="#D8D8D8" filter="url(#filter-30)"></path>
                <polyline id="Path-2" stroke="#C2C2C2" stroke-width="2" points="70.9022994 235.694379 1.11758507 196.133204 1.11758507 79.2648273 70.9022994 118.108849"></polyline>
                <polygon id="Path-32" stroke="#C2C2C2" stroke-width="2" points="71.024162 235.050016 71.024162 117.892006 211.09214 40.1934636 211.09214 157.351474"></polygon>
                <polyline id="Path-55" stroke="#C2C2C2" stroke-width="2" points="0.895521103 78.6847271 140.89984 0.37680552 211.369696 39.5307663"></polyline>
                <path d="M70.7087966,157.704838 L211.004464,78.959498" id="Path-56-Copy" stroke="#C2C2C2" stroke-width="2"></path>
                <path d="M70.9041944,196.589013 L211.004464,118.039071" id="Path-56-Copy-2" stroke="#C2C2C2" stroke-width="2"></path>
            </g>
            <polygon id="Path-3" fill="#FFFFFF" points="696.48189 518.992193 705.890361 524.40918 709.048904 522.571276 698.989265 516.953598"></polygon>
            <g id="server-copy" transform="translate(430.000000, 483.000000)">
                <path d="M180,73.4731128 C182.209139,72.3685468 184,69.6822581 184,67.4731191 C184,65.2639801 182.209139,64.3685468 180,65.4731128 C177.790861,66.5776787 176,69.2639674 176,71.4731064 C176,73.6822454 177.790861,74.5776787 180,73.4731128 Z" id="Oval-8-Copy-2" fill="#A3F419" filter="url(#filter-31)"></path>
                <path d="M180,112.473113 C182.209139,111.368547 184,108.682258 184,106.473119 C184,104.26398 182.209139,103.368547 180,104.473113 C177.790861,105.577679 176,108.263967 176,110.473106 C176,112.682245 177.790861,113.577679 180,112.473113 Z" id="Oval-8-Copy-4" fill="#A3F419" filter="url(#filter-32)"></path>
                <path d="M180,154.473113 C182.209139,153.368547 184,150.682258 184,148.473119 C184,146.26398 182.209139,145.368547 180,146.473113 C177.790861,147.577679 176,150.263967 176,152.473106 C176,154.682245 177.790861,155.577679 180,154.473113 Z" id="Oval-8-Copy-6" fill="#A3F419" filter="url(#filter-33)"></path>
                <path d="M194,65.4731128 C196.209139,64.3685468 198,61.6822581 198,59.4731191 C198,57.2639801 196.209139,56.3685468 194,57.4731128 C191.790861,58.5776787 190,61.2639674 190,63.4731064 C190,65.6822454 191.790861,66.5776787 194,65.4731128 Z" id="Oval-8-Copy-3" fill="#A3F419" filter="url(#filter-34)"></path>
                <path d="M194,104.473113 C196.209139,103.368547 198,100.682258 198,98.4731191 C198,96.2639801 196.209139,95.3685468 194,96.4731128 C191.790861,97.5776787 190,100.263967 190,102.473106 C190,104.682245 191.790861,105.577679 194,104.473113 Z" id="Oval-8-Copy-5" fill="#A3F419" filter="url(#filter-35)"></path>
                <path d="M194,146.473113 C196.209139,145.368547 198,142.682258 198,140.473119 C198,138.26398 196.209139,137.368547 194,138.473113 C191.790861,139.577679 190,142.263967 190,144.473106 C190,146.682245 191.790861,147.577679 194,146.473113 Z" id="Oval-8-Copy-7" fill="#A3F419" filter="url(#filter-36)"></path>
                <path d="M77.5,119.978064 L81.551152,117.830895 L81.551152,145.349883 L77.5,147.497052 L77.5,119.978064 Z" id="Rectangle-6-Copy-3" stroke="#D8D8D8" filter="url(#filter-37)"></path>
                <path d="M77.5,158.978064 L81.551152,156.830895 L81.551152,184.349883 L77.5,186.497052 L77.5,158.978064 Z" id="Rectangle-6-Copy-6" stroke="#D8D8D8" filter="url(#filter-38)"></path>
                <path d="M85.5,114.978064 L89.551152,112.830895 L89.551152,140.349883 L85.5,142.497052 L85.5,114.978064 Z" id="Rectangle-6-Copy-4" stroke="#D8D8D8" filter="url(#filter-39)"></path>
                <path d="M85.5,153.978064 L89.551152,151.830895 L89.551152,179.349883 L85.5,181.497052 L85.5,153.978064 Z" id="Rectangle-6-Copy-7" stroke="#D8D8D8" filter="url(#filter-40)"></path>
                <path d="M93.5,109.978064 L97.551152,107.830895 L97.551152,135.349883 L93.5,137.497052 L93.5,109.978064 Z" id="Rectangle-6-Copy-5" stroke="#D8D8D8" filter="url(#filter-41)"></path>
                <path d="M93.5,148.978064 L97.551152,146.830895 L97.551152,174.349883 L93.5,176.497052 L93.5,148.978064 Z" id="Rectangle-6-Copy-8" stroke="#D8D8D8" filter="url(#filter-42)"></path>
                <polyline id="Path-55" stroke="#C2C2C2" stroke-width="2" points="0.299693001 78.6641379 141.194467 0.901348086 210.979706 38.898819"></polyline>
                <path d="M71.1679686,156.925925 L210.532692,78.7473916" id="Path-56-Copy" stroke="#C2C2C2" stroke-width="2"></path>
                <path d="M70.9318795,196.362489 L210.069339,117.895787" id="Path-56-Copy-2" stroke="#C2C2C2" stroke-width="2"></path>
                <polyline id="Path-64" stroke="#C2C2C2" stroke-width="2" points="118.367796 208.961325 210.527893 157.540482 210.527893 39.6258961 71.0737928 117.984758 71.0737928 198"></polyline>
                <polyline id="Path-63" stroke="#C2C2C2" stroke-width="2" points="70.8285469 118.001607 0.605857015 79.2618911 0.605857015 202.442559"></polyline>
            </g>
        </g>
    </g>
</svg>