<?xml version="1.0" encoding="UTF-8" standalone="no"?>
<svg width="1470px" height="681px" viewBox="0 0 1470 681" version="1.1" xmlns="http://www.w3.org/2000/svg" xmlns:xlink="http://www.w3.org/1999/xlink">
    <!-- Generator: Sketch 43.1 (39012) - http://www.bohemiancoding.com/sketch -->
    <title>Artboard Copy 2</title>
    <desc>Created with Sketch.</desc>
    <defs></defs>
    <g id="Landing" stroke="none" stroke-width="1" fill="none" fill-rule="evenodd">
        <g id="Artboard-Copy-2">
            <g id="monkey" transform="translate(781.000000, 131.000000)">
                <polygon id="Path-34" stroke="#A6A7AB" stroke-width="2" points="210.50134 235.230638 303.700382 184.067386 339.140654 190.638272 327.899011 170.647208 420.013513 118.602863 525.835193 176.688615 490.77252 196.561533 525.835193 215.782637 490.77252 235.230638 525.835193 255.280948 455.498627 294.568039 420.013513 274.924494 385.388959 294.568039 349.903845 274.924494 314.850248 294.568039"></polygon>
                <path d="M439.442531,264.594495 C439.442531,264.594495 438.446837,263.727102 439.442531,262.421558 C440.438224,261.116013 443.821905,264.197561 449.410152,265.211393 C454.998398,266.225225 467.230014,266.996541 471.326692,263.911499 C479.179889,257.997578 472.620814,245.401656 472.620814,245.401656 C472.620814,245.401656 471.591708,244.124755 472.620814,243.299904 C473.649919,242.475052 474.4269,243.613274 474.4269,243.613274 C474.4269,243.613274 475.678649,245.828064 476.160917,247.420152 C476.478369,248.468139 477.601477,251.724375 477.528225,255.816718 C477.454973,259.90906 476.783695,262.862369 473.944161,265.211393 C467.42861,270.601425 451.868572,268.168394 448.891397,267.545413 C445.914221,266.922431 439.442531,264.594495 439.442531,264.594495 Z" id="Path-20" fill="#40404D"></path>
                <polygon id="Path-35" stroke="#A6A7AB" stroke-width="2" points="148 293.350275 176.099874 310.003892 204.832152 293.350275 177.107464 277"></polygon>
                <polygon id="Path-35-Copy" stroke="#A6A7AB" stroke-width="2" points="497 98.3502753 525.099874 115.003892 553.832152 98.3502753 526.107464 82"></polygon>
                <polyline id="Path-36" stroke="#C2C2C2" stroke-width="2" points="140.345767 273.622 70.3991586 274.743485 34.657845 254.837125 34.657845 216.426261 0.452549877 195.946015 0.452549877 157.535151 69.5842718 157.535151 140.345767 195.946015"></polyline>
                <polyline id="Path-37" stroke="#C2C2C2" stroke-width="2" points="139.606605 196.180567 70.0798332 196.180567 70.0798332 235.299597 140.815711 235.299597"></polyline>
                <polyline id="Path-38" stroke="#C2C2C2" stroke-width="2" points="69.6108164 157.472656 35.4829809 137.477164 35.4829809 98.6820312 104.498906 98.6820312 104.498906 59.8820312 69.6108164 40.1514669 69.6108164 1.0671875 139.940625 1.0671875 209.899066 40.1514669 280.158964 40.1514669 349.933705 78.9698091"></polyline>
                <polyline id="Path-39" stroke="#C2C2C2" stroke-width="2" points="175.25296 176.742098 140.630758 156.863299 140.630758 118.312336 175.25296 98.4191496 175.25296 59.1536053 245.490105 59.1536053 315.7167 98.4191496"></polyline>
                <polyline id="Path-40" stroke="#C2C2C2" stroke-width="2" points="280.00248 40.0129162 280.00248 0.828819266 350.225842 0.828819266 385.337522 20.5256157 455.560883 20.5256157 490.253572 39.3660296 490.253572 79.1970131"></polyline>
                <polyline id="Path-41" stroke="#C2C2C2" stroke-width="2" points="351.144222 78.3480376 351.144222 39.6722215 419.699584 40.3104963 421.09149 79.5411476"></polyline>
                <polyline id="Path-43" stroke="#4A4A4A" stroke-width="2" points="175.176776 411.143474 245.45576 371.769413 245.45576 294.349413"></polyline>
                <polyline id="Path-44" stroke="#4A4A4A" stroke-width="2" points="245.123141 371.854266 350.0044 430.093196 350.0044 352.611374"></polyline>
                <polyline id="Path-45" stroke="#4A4A4A" stroke-width="2" points="350.426261 430.936919 419.336283 391.563216 419.336283 314.263019"></polyline>
                <polyline id="Path-46" stroke="#4A4A4A" stroke-width="2" points="419.049 391.000734 455.419194 410.832051 455.419194 332.084645"></polyline>
                <polyline id="Path-47" stroke="#4A4A4A" stroke-width="2" points="455.345952 411.574769 595.815151 333.373914 595.815151 254.418553"></polyline>
                <polyline id="Path-48" stroke="#4A4A4A" stroke-width="2" points="595.386919 294.492741 631.188248 274.324161 631.188248 195.677944"></polyline>
                <path d="M595.697218,176.897614 L595.697218,99" id="Path-49" stroke="#4A4A4A" stroke-width="2"></path>
                <polyline id="Path-50" stroke="#C2C2C2" stroke-width="2" points="104.09633 353.03066 70.2822125 352.613202 71.2562818 274.697447"></polyline>
                <polyline id="Path-51" stroke="#C2C2C2" stroke-width="2" points="70.2822125 352.762139 34.6716111 333.280754 34.6716111 254.786102"></polyline>
                <polyline id="Path-52" stroke="#C2C2C2" stroke-width="2" points="32.7234726 292.774802 0.482968431 274.128334 0.482968431 196.211945"></polyline>
                <path d="M35.7425033,157.970903 L35.6150391,137.291428" id="Path-53" stroke="#C2C2C2" stroke-width="2"></path>
                <path d="M69.5424797,98.5984838 L69.5744533,40.3164255" id="Path-54" stroke="#C2C2C2" stroke-width="2"></path>
                <polyline id="Path-42" stroke="#4A4A4A" stroke-width="2" points="103.873036 293.777547 103.873036 371.039855 174.771705 410.704694 174.771705 332.69948"></polyline>
                <polygon id="Path-33" stroke="#4A4A4A" stroke-width="2" points="455.15633 332.739801 594.749137 254.497934 559.98935 235.558953 630.174169 195.580259 525.637287 137.253704 594.749137 99.0738195 525.637287 59.0951253 455.15633 99.0738195 385.563788 59.0951253 104.824514 216.344656 175.341646 254.497934 104.824514 293.649523 175.341646 332.739801 245.503014 293.649523 350.336034 352.284941 419.336299 314.083077"></polygon>
                <ellipse id="Oval-4" fill="#000000" cx="313.5" cy="229.5" rx="7.5" ry="5.5"></ellipse>
                <ellipse id="Oval-4-Copy" fill="#000000" cx="408.5" cy="177.5" rx="7.5" ry="5.5"></ellipse>
                <ellipse id="Oval-5" fill="#4A4A4A" transform="translate(405.207596, 224.524213) rotate(-30.000000) translate(-405.207596, -224.524213) " cx="405.207596" cy="224.524213" rx="12.5" ry="4.5"></ellipse>
            </g>
            <g id="plug-copy" transform="translate(1034.000000, 457.000000)" stroke="#C2C2C2" stroke-width="2">
                <path d="M14.5,39.9640172 C22.5081289,44.1309007 29,40.7529758 29,32.4192107 C29,24.0854456 22.5081289,13.9516676 14.5,9.78478409 C6.49187113,5.61790053 -1.13686838e-13,8.99582543 -1.13686838e-13,17.3295905 C-1.13686838e-13,25.6633556 6.49187113,35.7971336 14.5,39.9640172 Z" id="Oval-8"></path>
                <path d="M4.54247052,8.77017466 L15.14069,1.79068746 C15.14069,1.79068746 22.778513,-3.39775985 34.085818,10.2648225 C45.3931229,23.9274048 37.0737039,33.1846352 37.0737039,33.1846352 L25.7836679,40.3093228" id="Path-56"></path>
                <g id="Group-3-Copy" transform="translate(9.000000, 20.000000)">
                    <path d="M3.53658537,9.51524218 C5.48978753,10.5073573 7.07317073,9.70308948 7.07317073,7.7188597 C7.07317073,5.73462991 5.48978753,3.32182563 3.53658537,2.3297105 C1.5833832,1.33759536 2.7533531e-14,2.1418632 2.7533531e-14,4.12609298 C2.7533531e-14,6.11032277 1.5833832,8.52312705 3.53658537,9.51524218 Z" id="Oval-8"></path>
                    <path d="M1.10791964,2.08813682 L3.69285123,0.426354157 C3.69285123,0.426354157 5.55573488,-0.808990441 8.31361414,2.44400535 C11.0714934,5.69700114 9.0423668,7.90110361 9.0423668,7.90110361 L6.28869949,9.5974578" id="Path-56"></path>
                </g>
            </g>
            <polygon id="Path" fill="#FFFFFF" points="1094.19704 506.312614 1084.89529 511.727843 1086.82747 513.815414 1096.13099 508.429151"></polygon>
            <g id="plug" transform="translate(902.000000, 463.000000)" stroke="#C2C2C2" stroke-width="2">
                <path d="M14.5,39.9640172 C22.5081289,44.1309007 29,40.7529758 29,32.4192107 C29,24.0854456 22.5081289,13.9516676 14.5,9.78478409 C6.49187113,5.61790053 -1.13686838e-13,8.99582543 -1.13686838e-13,17.3295905 C-1.13686838e-13,25.6633556 6.49187113,35.7971336 14.5,39.9640172 Z" id="Oval-8"></path>
                <path d="M4.54247052,8.77017466 L15.14069,1.79068746 C15.14069,1.79068746 22.778513,-3.39775985 34.085818,10.2648225 C45.3931229,23.9274048 37.0737039,33.1846352 37.0737039,33.1846352 L25.7836679,40.3093228" id="Path-56"></path>
                <g id="Group-3-Copy" transform="translate(9.000000, 20.000000)">
                    <path d="M3.53658537,9.51524218 C5.48978753,10.5073573 7.07317073,9.70308948 7.07317073,7.7188597 C7.07317073,5.73462991 5.48978753,3.32182563 3.53658537,2.3297105 C1.5833832,1.33759536 2.7533531e-14,2.1418632 2.7533531e-14,4.12609298 C2.7533531e-14,6.11032277 1.5833832,8.52312705 3.53658537,9.51524218 Z" id="Oval-8"></path>
                    <path d="M1.10791964,2.08813682 L3.69285123,0.426354157 C3.69285123,0.426354157 5.55573488,-0.808990441 8.31361414,2.44400535 C11.0714934,5.69700114 9.0423668,7.90110361 9.0423668,7.90110361 L6.28869949,9.5974578" id="Path-56"></path>
                </g>
            </g>
            <g id="plug-copy-2" transform="translate(1083.000000, 481.000000)" stroke="#C2C2C2" stroke-width="2">
                <path d="M14.5,39.9640172 C22.5081289,44.1309007 29,40.7529758 29,32.4192107 C29,24.0854456 22.5081289,13.9516676 14.5,9.78478409 C6.49187113,5.61790053 -1.13686838e-13,8.99582543 -1.13686838e-13,17.3295905 C-1.13686838e-13,25.6633556 6.49187113,35.7971336 14.5,39.9640172 Z" id="Oval-8"></path>
                <path d="M4.54247052,8.77017466 L15.14069,1.79068746 C15.14069,1.79068746 22.778513,-3.39775985 34.085818,10.2648225 C45.3931229,23.9274048 37.0737039,33.1846352 37.0737039,33.1846352 L25.7836679,40.3093228" id="Path-56"></path>
                <g id="Group-3-Copy" transform="translate(9.000000, 20.000000)">
                    <path d="M3.53658537,9.51524218 C5.48978753,10.5073573 7.07317073,9.70308948 7.07317073,7.7188597 C7.07317073,5.73462991 5.48978753,3.32182563 3.53658537,2.3297105 C1.5833832,1.33759536 2.7533531e-14,2.1418632 2.7533531e-14,4.12609298 C2.7533531e-14,6.11032277 1.5833832,8.52312705 3.53658537,9.51524218 Z" id="Oval-8"></path>
                    <path d="M1.10791964,2.08813682 L3.69285123,0.426354157 C3.69285123,0.426354157 5.55573488,-0.808990441 8.31361414,2.44400535 C11.0714934,5.69700114 9.0423668,7.90110361 9.0423668,7.90110361 L6.28869949,9.5974578" id="Path-56"></path>
                </g>
            </g>
            <polygon id="Path-3" fill="#FFFFFF" points="696.48189 518.992193 705.890361 524.40918 709.048904 522.571276 698.989265 516.953598"></polygon>
        </g>
    </g>
</svg>