<?xml version="1.0" encoding="UTF-8" standalone="no"?>
<svg width="1429px" height="681px" viewBox="0 0 1429 681" version="1.1" xmlns="http://www.w3.org/2000/svg" xmlns:xlink="http://www.w3.org/1999/xlink">
    <!-- Generator: Sketch 43.1 (39012) - http://www.bohemiancoding.com/sketch -->
    <title>Artboard Copy 2</title>
    <desc>Created with Sketch.</desc>
    <defs></defs>
    <g id="Landing" stroke="none" stroke-width="1" fill="none" fill-rule="evenodd">
        <g id="Artboard-Copy-2">
            <g id="lamp" transform="translate(718.000000, 590.000000)">
                <ellipse id="Oval-9" stroke="#BCBCBC" stroke-width="2" cx="27.5" cy="40.0347826" rx="27.1206897" ry="8.83478261"></ellipse>
                <path d="M0.373159634,39.3719006 L0.373159634,48.5889344 C0.373159634,48.5889344 0.288514688,53.3700467 9.03988243,56.7091116 C17.7912502,60.0481765 26.4160281,59.7526078 27.4800995,59.7526078 C28.544171,59.7526078 39.7831007,60.5059381 46.9216412,56.7091116 C54.0601818,52.9122851 54.6716844,48.9168783 54.6716844,48.9168783 L54.6716844,39.973479" id="Path-76" stroke="#BCBCBC" stroke-width="2"></path>
                <path d="M7.17391304,39.8407919 L11.1572965,7.94274641 C11.7050962,3.5560887 15.7265422,0 20.1504903,0 L34.3009677,0 C38.7199717,0 42.8374597,3.53560451 43.5009493,7.91889269 L48.3329036,39.8407919 C48.3329036,39.8407919 42.7338388,44.7858841 27.7534083,44.7858841 C12.7729779,44.7858841 7.17391304,39.8407919 7.17391304,39.8407919 Z" id="Path-75" stroke="#BCBCBC" stroke-width="2" fill="#FEFEFE"></path>
                <path d="M27.6654673,23.2 C23.4171914,23.2 19.9275362,26.6817391 19.9275362,31.0052174 C19.9275362,33.8747826 21.4447776,36.4382609 23.9102949,37.8156522 L23.9102949,44.8211691 C23.9102949,44.8211691 24.8572806,45.045408 27.8572729,45.045408 C30.8572652,45.045408 31.4206397,44.8211691 31.4206397,44.8211691 L31.4206397,37.8156522 C33.8861569,36.4382609 35.4033983,33.8747826 35.4033983,31.0052174 C35.4033983,26.72 31.9137431,23.2 27.6654673,23.2 Z M27.0965017,33.0713043 L26.224088,33.0713043 C25.9585707,33.0713043 25.7309845,32.8417391 25.7309845,32.573913 C25.7309845,32.306087 25.9585707,32.0765217 26.224088,32.0765217 L27.0965017,32.0765217 L27.0965017,33.0713043 Z M30.624088,36.973913 C30.3965017,37.0886957 30.2827086,37.3182609 30.3206397,37.5478261 L30.3206397,39.6624824 L28.2723638,39.6624824 L28.2723638,34.2191304 L29.8654673,34.2191304 C30.1689155,34.2191304 30.4344328,33.9513043 30.4344328,33.6452174 C30.4344328,33.3391304 30.1689155,33.0713043 29.8654673,33.0713043 L28.2723638,33.0713043 L28.2723638,31.5026087 C28.2723638,31.1965217 28.0068466,30.9286957 27.7033983,30.9286957 L26.262019,30.9286957 C25.3516742,30.9286957 24.6309845,31.6556522 24.6309845,32.573913 C24.6309845,33.4921739 25.3516742,34.2191304 26.262019,34.2191304 L27.1344328,34.2191304 L27.1344328,39.7007432 L25.0861569,39.7007432 L25.0861569,37.6243478 C25.124088,37.3565217 25.0102949,37.1269565 24.7827086,37.0121739 C22.5447776,35.8643478 21.1413293,33.6069565 21.1413293,31.0434783 C21.1413293,27.3704348 24.09995,24.386087 27.7413293,24.386087 C31.3827086,24.386087 34.3413293,27.3704348 34.3413293,31.0434783 C34.2654673,33.5304348 32.862019,35.826087 30.624088,36.973913 Z" id="Shape" fill="#BEBEBE" fill-rule="nonzero"></path>
            </g>
        </g>
    </g>
</svg>