<?xml version="1.0" encoding="UTF-8" standalone="no"?>
<svg width="1470px" height="681px" viewBox="0 0 1470 681" version="1.1" xmlns="http://www.w3.org/2000/svg" xmlns:xlink="http://www.w3.org/1999/xlink">
    <!-- Generator: Sketch 43.1 (39012) - http://www.bohemiancoding.com/sketch -->
    <title>Artboard Copy</title>
    <desc>Created with Sketch.</desc>
    <defs>
        <rect id="path-1" x="0" y="0" width="1470" height="681"></rect>
    </defs>
    <g id="Landing" stroke="none" stroke-width="1" fill="none" fill-rule="evenodd">
        <g id="Artboard-Copy">
            <g id="bgn-copy">
                <g id="Group">
                    <mask id="mask-2" fill="white">
                        <use xlink:href="#path-1"></use>
                    </mask>
                    <use id="Mask" fill="#FEFEFE" xlink:href="#path-1"></use>
                    <g id="Group-14" opacity="0.2" mask="url(#mask-2)" stroke="#979797">
                        <g transform="translate(-1826.000000, -346.000000)">
                            <path d="M2152.90586,1201.44829 L0.900287141,-4.54747351e-13" id="Path-80"></path>
                            <path d="M2222.90586,1201.44829 L70.9002871,-4.54747351e-13" id="Path-80-Copy"></path>
                            <path d="M2432.90586,1201.44829 L280.900287,-4.54747351e-13" id="Path-80-Copy-5"></path>
                            <path d="M2852.90586,1201.44829 L700.900287,-4.54747351e-13" id="Path-80-Copy-9"></path>
                            <path d="M3132.90586,1201.44829 L980.900287,-4.54747351e-13" id="Path-80-Copy-14"></path>
                            <path d="M3412.90586,1201.44829 L1260.90029,-4.54747351e-13" id="Path-80-Copy-19"></path>
                            <path d="M3692.90586,1201.44829 L1540.90029,-4.54747351e-13" id="Path-80-Copy-23"></path>
                            <path d="M2362.90586,1201.44829 L210.900287,-4.54747351e-13" id="Path-80-Copy-3"></path>
                            <path d="M2782.90586,1201.44829 L630.900287,-4.54747351e-13" id="Path-80-Copy-10"></path>
                            <path d="M2572.90586,1201.44829 L420.900287,-4.54747351e-13" id="Path-80-Copy-6"></path>
                            <path d="M2992.90586,1201.44829 L840.900287,-4.54747351e-13" id="Path-80-Copy-11"></path>
                            <path d="M3272.90586,1201.44829 L1120.90029,-4.54747351e-13" id="Path-80-Copy-16"></path>
                            <path d="M3552.90586,1201.44829 L1400.90029,-4.54747351e-13" id="Path-80-Copy-20"></path>
                            <path d="M3832.90586,1201.44829 L1680.90029,-4.54747351e-13" id="Path-80-Copy-24"></path>
                            <path d="M2292.90586,1201.44829 L140.900287,-4.54747351e-13" id="Path-80-Copy-2"></path>
                            <path d="M2712.90586,1201.44829 L560.900287,-4.54747351e-13" id="Path-80-Copy-12"></path>
                            <path d="M2502.90586,1201.44829 L350.900287,-4.54747351e-13" id="Path-80-Copy-7"></path>
                            <path d="M2922.90586,1201.44829 L770.900287,-4.54747351e-13" id="Path-80-Copy-13"></path>
                            <path d="M3202.90586,1201.44829 L1050.90029,-4.54747351e-13" id="Path-80-Copy-17"></path>
                            <path d="M3482.90586,1201.44829 L1330.90029,-4.54747351e-13" id="Path-80-Copy-21"></path>
                            <path d="M3762.90586,1201.44829 L1610.90029,-4.54747351e-13" id="Path-80-Copy-25"></path>
                            <path d="M2642.90586,1201.44829 L490.900287,-4.54747351e-13" id="Path-80-Copy-8"></path>
                            <path d="M3062.90586,1201.44829 L910.900287,-4.54747351e-13" id="Path-80-Copy-15"></path>
                            <path d="M3342.90586,1201.44829 L1190.90029,-4.54747351e-13" id="Path-80-Copy-18"></path>
                            <path d="M3622.90586,1201.44829 L1470.90029,-4.54747351e-13" id="Path-80-Copy-22"></path>
                            <path d="M3902.90586,1201.44829 L1750.90029,-4.54747351e-13" id="Path-80-Copy-26"></path>
                        </g>
                    </g>
                    <g id="Group-14-Copy-2" opacity="0.2" mask="url(#mask-2)" stroke="#979797">
                        <g transform="translate(-6.000000, -346.000000)">
                            <path d="M2152.90586,1201.44829 L0.900287141,-4.54747351e-13" id="Path-80-Copy"></path>
                            <path d="M2362.90586,1201.44829 L210.900287,-4.54747351e-13" id="Path-80-Copy-5"></path>
                            <path d="M2782.90586,1201.44829 L630.900287,-4.54747351e-13" id="Path-80-Copy-9"></path>
                            <path d="M3062.90586,1201.44829 L910.900287,-4.54747351e-13" id="Path-80-Copy-14"></path>
                            <path d="M3342.90586,1201.44829 L1190.90029,-4.54747351e-13" id="Path-80-Copy-19"></path>
                            <path d="M3622.90586,1201.44829 L1470.90029,-4.54747351e-13" id="Path-80-Copy-23"></path>
                            <path d="M2292.90586,1201.44829 L140.900287,-4.54747351e-13" id="Path-80-Copy-3"></path>
                            <path d="M2712.90586,1201.44829 L560.900287,-4.54747351e-13" id="Path-80-Copy-10"></path>
                            <path d="M2502.90586,1201.44829 L350.900287,-4.54747351e-13" id="Path-80-Copy-6"></path>
                            <path d="M2922.90586,1201.44829 L770.900287,-4.54747351e-13" id="Path-80-Copy-11"></path>
                            <path d="M3202.90586,1201.44829 L1050.90029,-4.54747351e-13" id="Path-80-Copy-16"></path>
                            <path d="M3482.90586,1201.44829 L1330.90029,-4.54747351e-13" id="Path-80-Copy-20"></path>
                            <path d="M2222.90586,1201.44829 L70.9002871,-4.54747351e-13" id="Path-80-Copy-2"></path>
                            <path d="M2642.90586,1201.44829 L490.900287,-4.54747351e-13" id="Path-80-Copy-12"></path>
                            <path d="M2432.90586,1201.44829 L280.900287,-4.54747351e-13" id="Path-80-Copy-7"></path>
                            <path d="M2852.90586,1201.44829 L700.900287,-4.54747351e-13" id="Path-80-Copy-13"></path>
                            <path d="M3132.90586,1201.44829 L980.900287,-4.54747351e-13" id="Path-80-Copy-17"></path>
                            <path d="M3412.90586,1201.44829 L1260.90029,-4.54747351e-13" id="Path-80-Copy-21"></path>
                            <path d="M2572.90586,1201.44829 L420.900287,-4.54747351e-13" id="Path-80-Copy-8"></path>
                            <path d="M2992.90586,1201.44829 L840.900287,-4.54747351e-13" id="Path-80-Copy-15"></path>
                            <path d="M3272.90586,1201.44829 L1120.90029,-4.54747351e-13" id="Path-80-Copy-18"></path>
                            <path d="M3552.90586,1201.44829 L1400.90029,-4.54747351e-13" id="Path-80-Copy-22"></path>
                        </g>
                    </g>
                    <g id="Group-14" opacity="0.2" mask="url(#mask-2)" stroke="#979797">
                        <g transform="translate(1256.500000, 297.000000) scale(-1, 1) translate(-1256.500000, -297.000000) translate(-660.000000, -304.000000)">
                            <path d="M2152.90586,1201.44829 L0.900287141,-4.54747351e-13" id="Path-80"></path>
                            <path d="M2222.90586,1201.44829 L70.9002871,-4.54747351e-13" id="Path-80-Copy"></path>
                            <path d="M2432.90586,1201.44829 L280.900287,-4.54747351e-13" id="Path-80-Copy-5"></path>
                            <path d="M2852.90586,1201.44829 L700.900287,-4.54747351e-13" id="Path-80-Copy-9"></path>
                            <path d="M3132.90586,1201.44829 L980.900287,-4.54747351e-13" id="Path-80-Copy-14"></path>
                            <path d="M3412.90586,1201.44829 L1260.90029,-4.54747351e-13" id="Path-80-Copy-19"></path>
                            <path d="M3692.90586,1201.44829 L1540.90029,-4.54747351e-13" id="Path-80-Copy-23"></path>
                            <path d="M2362.90586,1201.44829 L210.900287,-4.54747351e-13" id="Path-80-Copy-3"></path>
                            <path d="M2782.90586,1201.44829 L630.900287,-4.54747351e-13" id="Path-80-Copy-10"></path>
                            <path d="M2572.90586,1201.44829 L420.900287,-4.54747351e-13" id="Path-80-Copy-6"></path>
                            <path d="M2992.90586,1201.44829 L840.900287,-4.54747351e-13" id="Path-80-Copy-11"></path>
                            <path d="M3272.90586,1201.44829 L1120.90029,-4.54747351e-13" id="Path-80-Copy-16"></path>
                            <path d="M3552.90586,1201.44829 L1400.90029,-4.54747351e-13" id="Path-80-Copy-20"></path>
                            <path d="M3832.90586,1201.44829 L1680.90029,-4.54747351e-13" id="Path-80-Copy-24"></path>
                            <path d="M2292.90586,1201.44829 L140.900287,-4.54747351e-13" id="Path-80-Copy-2"></path>
                            <path d="M2712.90586,1201.44829 L560.900287,-4.54747351e-13" id="Path-80-Copy-12"></path>
                            <path d="M2502.90586,1201.44829 L350.900287,-4.54747351e-13" id="Path-80-Copy-7"></path>
                            <path d="M2922.90586,1201.44829 L770.900287,-4.54747351e-13" id="Path-80-Copy-13"></path>
                            <path d="M3202.90586,1201.44829 L1050.90029,-4.54747351e-13" id="Path-80-Copy-17"></path>
                            <path d="M3482.90586,1201.44829 L1330.90029,-4.54747351e-13" id="Path-80-Copy-21"></path>
                            <path d="M3762.90586,1201.44829 L1610.90029,-4.54747351e-13" id="Path-80-Copy-25"></path>
                            <path d="M2642.90586,1201.44829 L490.900287,-4.54747351e-13" id="Path-80-Copy-8"></path>
                            <path d="M3062.90586,1201.44829 L910.900287,-4.54747351e-13" id="Path-80-Copy-15"></path>
                            <path d="M3342.90586,1201.44829 L1190.90029,-4.54747351e-13" id="Path-80-Copy-18"></path>
                            <path d="M3622.90586,1201.44829 L1470.90029,-4.54747351e-13" id="Path-80-Copy-22"></path>
                        </g>
                    </g>
                    <g id="Group-14-Copy-3" opacity="0.2" mask="url(#mask-2)" stroke="#979797">
                        <g transform="translate(-528.500000, 297.000000) scale(-1, 1) translate(528.500000, -297.000000) translate(-2480.000000, -304.000000)">
                            <path d="M2152.90586,1201.44829 L0.900287141,-4.54747351e-13" id="Path-80"></path>
                            <path d="M2222.90586,1201.44829 L70.9002871,-4.54747351e-13" id="Path-80-Copy"></path>
                            <path d="M2432.90586,1201.44829 L280.900287,-4.54747351e-13" id="Path-80-Copy-5"></path>
                            <path d="M2852.90586,1201.44829 L700.900287,-4.54747351e-13" id="Path-80-Copy-9"></path>
                            <path d="M3132.90586,1201.44829 L980.900287,-4.54747351e-13" id="Path-80-Copy-14"></path>
                            <path d="M3412.90586,1201.44829 L1260.90029,-4.54747351e-13" id="Path-80-Copy-19"></path>
                            <path d="M2362.90586,1201.44829 L210.900287,-4.54747351e-13" id="Path-80-Copy-3"></path>
                            <path d="M2782.90586,1201.44829 L630.900287,-4.54747351e-13" id="Path-80-Copy-10"></path>
                            <path d="M2572.90586,1201.44829 L420.900287,-4.54747351e-13" id="Path-80-Copy-6"></path>
                            <path d="M2992.90586,1201.44829 L840.900287,-4.54747351e-13" id="Path-80-Copy-11"></path>
                            <path d="M3272.90586,1201.44829 L1120.90029,-4.54747351e-13" id="Path-80-Copy-16"></path>
                            <path d="M3552.90586,1201.44829 L1400.90029,-4.54747351e-13" id="Path-80-Copy-20"></path>
                            <path d="M2292.90586,1201.44829 L140.900287,-4.54747351e-13" id="Path-80-Copy-2"></path>
                            <path d="M2712.90586,1201.44829 L560.900287,-4.54747351e-13" id="Path-80-Copy-12"></path>
                            <path d="M2502.90586,1201.44829 L350.900287,-4.54747351e-13" id="Path-80-Copy-7"></path>
                            <path d="M2922.90586,1201.44829 L770.900287,-4.54747351e-13" id="Path-80-Copy-13"></path>
                            <path d="M3202.90586,1201.44829 L1050.90029,-4.54747351e-13" id="Path-80-Copy-17"></path>
                            <path d="M3482.90586,1201.44829 L1330.90029,-4.54747351e-13" id="Path-80-Copy-21"></path>
                            <path d="M2642.90586,1201.44829 L490.900287,-4.54747351e-13" id="Path-80-Copy-8"></path>
                            <path d="M3062.90586,1201.44829 L910.900287,-4.54747351e-13" id="Path-80-Copy-15"></path>
                            <path d="M3342.90586,1201.44829 L1190.90029,-4.54747351e-13" id="Path-80-Copy-18"></path>
                        </g>
                    </g>
                </g>
            </g>
        </g>
    </g>
</svg>