<?xml version="1.0" encoding="UTF-8" standalone="no"?>
<svg width="619px" height="681px" viewBox="0 0 619 681" version="1.1" xmlns="http://www.w3.org/2000/svg" xmlns:xlink="http://www.w3.org/1999/xlink">
    <!-- Generator: Sketch 43.1 (39012) - http://www.bohemiancoding.com/sketch -->
    <title>Artboard Copy 2</title>
    <desc>Created with Sketch.</desc>
    <defs>
        <rect id="path-1" x="0" y="0" width="619" height="681"></rect>
    </defs>
    <g id="Landing" stroke="none" stroke-width="1" fill="none" fill-rule="evenodd">
        <g id="Artboard-Copy-2">
            <g id="bgn-copy">
                <mask id="mask-2" fill="white">
                    <use xlink:href="#path-1"></use>
                </mask>
                <use id="Mask" fill="#FEFEFE" xlink:href="#path-1"></use>
                <g id="Group" mask="url(#mask-2)" opacity="0.2">
                    <g transform="translate(-2301.000000, -54.000000)">
                        <g id="Group-14" transform="translate(482.837904, 0.000000)">
                            <path d="M2102.05585,884.704198 L516.431883,-4.54747351e-13" id="Path-80-Copy-9" stroke="#979797"></path>
                            <path d="M2308.36326,884.704198 L722.739299,-4.54747351e-13" id="Path-80-Copy-14" stroke="#979797"></path>
                            <path d="M2514.67068,884.704198 L929.046715,-4.54747351e-13" id="Path-80-Copy-19" stroke="#979797"></path>
                            <path d="M2720.9781,884.704198 L1135.35413,-4.54747351e-13" id="Path-80-Copy-23" stroke="#979797"></path>
                            <path d="M2050.47899,884.704198 L464.855029,-4.54747351e-13" id="Path-80-Copy-10" stroke="#979797"></path>
                            <path d="M1895.74843,884.704198 L310.124467,-4.54747351e-13" id="Path-80-Copy-6" stroke="#979797"></path>
                            <path d="M2205.20956,884.704198 L619.585591,-4.54747351e-13" id="Path-80-Copy-11" stroke="#979797"></path>
                            <path d="M2411.51697,884.704198 L825.893007,-4.54747351e-13" id="Path-80-Copy-16" stroke="#979797"></path>
                            <path d="M2617.82439,884.704198 L1032.20042,-4.54747351e-13" id="Path-80-Copy-20" stroke="#979797"></path>
                            <path d="M2824.1318,884.704198 L1238.50784,-4.54747351e-13" id="Path-80-Copy-24" stroke="#979797"></path>
                            <path d="M1998.90214,884.704198 L413.278175,-4.54747351e-13" id="Path-80-Copy-12" stroke="#979797"></path>
                            <path d="M1844.17158,884.704198 L258.547613,-4.54747351e-13" id="Path-80-Copy-7" stroke="#979797"></path>
                            <path d="M2153.6327,884.704198 L568.008737,-4.54747351e-13" id="Path-80-Copy-13" stroke="#979797"></path>
                            <path d="M2359.94012,884.704198 L774.316153,-4.54747351e-13" id="Path-80-Copy-17" stroke="#979797"></path>
                            <path d="M2566.24753,884.704198 L980.623569,-4.54747351e-13" id="Path-80-Copy-21" stroke="#979797"></path>
                            <path d="M2772.55495,884.704198 L1186.93099,-4.54747351e-13" id="Path-80-Copy-25" stroke="#979797"></path>
                            <path d="M1947.32529,884.704198 L361.701321,-4.54747351e-13" id="Path-80-Copy-8" stroke="#979797"></path>
                            <path d="M2256.78641,884.704198 L671.162445,-4.54747351e-13" id="Path-80-Copy-15" stroke="#979797"></path>
                            <path d="M2463.09383,884.704198 L877.469861,-4.54747351e-13" id="Path-80-Copy-18" stroke="#979797"></path>
                            <path d="M2669.40124,884.704198 L1083.77728,-4.54747351e-13" id="Path-80-Copy-22" stroke="#979797"></path>
                            <path d="M2875.70866,884.704198 L1290.08469,-4.54747351e-13" id="Path-80-Copy-26" stroke="#979797"></path>
                        </g>
                        <g id="Group-14-Copy-2" transform="translate(1823.836110, 0.000000)">
                            <path d="M1586.28731,884.704198 L0.663342549,-4.54747351e-13" id="Path-80-Copy" stroke="#979797"></path>
                            <path d="M1741.01787,884.704198 L155.393905,-4.54747351e-13" id="Path-80-Copy-5" stroke="#979797"></path>
                            <path d="M2050.47899,884.704198 L464.855029,-4.54747351e-13" id="Path-80-Copy-9" stroke="#979797"></path>
                            <path d="M2256.78641,884.704198 L671.162445,-4.54747351e-13" id="Path-80-Copy-14" stroke="#979797"></path>
                            <path d="M2463.09383,884.704198 L877.469861,-4.54747351e-13" id="Path-80-Copy-19" stroke="#979797"></path>
                            <path d="M2669.40124,884.704198 L1083.77728,-4.54747351e-13" id="Path-80-Copy-23" stroke="#979797"></path>
                            <path d="M1689.44102,884.704198 L103.817051,-4.54747351e-13" id="Path-80-Copy-3" stroke="#979797"></path>
                            <path d="M1998.90214,884.704198 L413.278175,-4.54747351e-13" id="Path-80-Copy-10" stroke="#979797"></path>
                            <path d="M1844.17158,884.704198 L258.547613,-4.54747351e-13" id="Path-80-Copy-6" stroke="#979797"></path>
                            <path d="M2153.6327,884.704198 L568.008737,-4.54747351e-13" id="Path-80-Copy-11" stroke="#979797"></path>
                            <path d="M2359.94012,884.704198 L774.316153,-4.54747351e-13" id="Path-80-Copy-16" stroke="#979797"></path>
                            <path d="M2566.24753,884.704198 L980.623569,-4.54747351e-13" id="Path-80-Copy-20" stroke="#979797"></path>
                            <path d="M1637.86416,884.704198 L52.2401966,-4.54747351e-13" id="Path-80-Copy-2" stroke="#979797"></path>
                            <path d="M1947.32529,884.704198 L361.701321,-4.54747351e-13" id="Path-80-Copy-12" stroke="#979797"></path>
                            <path d="M1792.59472,884.704198 L206.970759,-4.54747351e-13" id="Path-80-Copy-7" stroke="#979797"></path>
                            <path d="M2102.05585,884.704198 L516.431883,-4.54747351e-13" id="Path-80-Copy-13" stroke="#979797"></path>
                            <path d="M2308.36326,884.704198 L722.739299,-4.54747351e-13" id="Path-80-Copy-17" stroke="#979797"></path>
                            <path d="M2514.67068,884.704198 L929.046715,-4.54747351e-13" id="Path-80-Copy-21" stroke="#979797"></path>
                            <path d="M1895.74843,884.704198 L310.124467,-4.54747351e-13" id="Path-80-Copy-8" stroke="#979797"></path>
                            <path d="M2205.20956,884.704198 L619.585591,-4.54747351e-13" id="Path-80-Copy-15" stroke="#979797"></path>
                            <path d="M2411.51697,884.704198 L825.893007,-4.54747351e-13" id="Path-80-Copy-18" stroke="#979797"></path>
                            <path d="M2617.82439,884.704198 L1032.20042,-4.54747351e-13" id="Path-80-Copy-22" stroke="#979797"></path>
                        </g>
                        <g id="Group-14" transform="translate(2753.662096, 473.427320) scale(-1, 1) translate(-2753.662096, -473.427320) translate(1341.162096, 30.927320)">
                            <path d="M1586.28731,884.704198 L0.663342549,-4.54747351e-13" id="Path-80" stroke="#979797"></path>
                            <path d="M1637.86416,884.704198 L52.2401966,-4.54747351e-13" id="Path-80-Copy" stroke="#979797"></path>
                            <path d="M1792.59472,884.704198 L206.970759,-4.54747351e-13" id="Path-80-Copy-5" stroke="#979797"></path>
                            <path d="M2102.05585,884.704198 L516.431883,-4.54747351e-13" id="Path-80-Copy-9" stroke="#979797"></path>
                            <path d="M2308.36326,884.704198 L722.739299,-4.54747351e-13" id="Path-80-Copy-14" stroke="#979797"></path>
                            <path d="M2514.67068,884.704198 L929.046715,-4.54747351e-13" id="Path-80-Copy-19" stroke="#979797"></path>
                            <path d="M2720.9781,884.704198 L1135.35413,-4.54747351e-13" id="Path-80-Copy-23" stroke="#979797"></path>
                            <path d="M1741.01787,884.704198 L155.393905,-4.54747351e-13" id="Path-80-Copy-3" stroke="#979797"></path>
                            <path d="M2050.47899,884.704198 L464.855029,-4.54747351e-13" id="Path-80-Copy-10" stroke="#979797"></path>
                            <path d="M1895.74843,884.704198 L310.124467,-4.54747351e-13" id="Path-80-Copy-6" stroke="#979797"></path>
                            <path d="M2205.20956,884.704198 L619.585591,-4.54747351e-13" id="Path-80-Copy-11" stroke="#979797"></path>
                            <path d="M2411.51697,884.704198 L825.893007,-4.54747351e-13" id="Path-80-Copy-16" stroke="#979797"></path>
                            <path d="M2617.82439,884.704198 L1032.20042,-4.54747351e-13" id="Path-80-Copy-20" stroke="#979797"></path>
                            <path d="M2824.1318,884.704198 L1238.50784,-4.54747351e-13" id="Path-80-Copy-24" stroke="#979797"></path>
                            <path d="M1689.44102,884.704198 L103.817051,-4.54747351e-13" id="Path-80-Copy-2" stroke="#979797"></path>
                            <path d="M1998.90214,884.704198 L413.278175,-4.54747351e-13" id="Path-80-Copy-12" stroke="#979797"></path>
                            <path d="M1844.17158,884.704198 L258.547613,-4.54747351e-13" id="Path-80-Copy-7" stroke="#979797"></path>
                            <path d="M2153.6327,884.704198 L568.008737,-4.54747351e-13" id="Path-80-Copy-13" stroke="#979797"></path>
                            <path d="M2359.94012,884.704198 L774.316153,-4.54747351e-13" id="Path-80-Copy-17" stroke="#979797"></path>
                            <path d="M2566.24753,884.704198 L980.623569,-4.54747351e-13" id="Path-80-Copy-21" stroke="#979797"></path>
                            <path d="M2772.55495,884.704198 L1186.93099,-4.54747351e-13" id="Path-80-Copy-25" stroke="#979797"></path>
                            <path d="M1947.32529,884.704198 L361.701321,-4.54747351e-13" id="Path-80-Copy-8" stroke="#979797"></path>
                            <path d="M2256.78641,884.704198 L671.162445,-4.54747351e-13" id="Path-80-Copy-15" stroke="#979797"></path>
                            <path d="M2463.09383,884.704198 L877.469861,-4.54747351e-13" id="Path-80-Copy-18" stroke="#979797"></path>
                            <path d="M2669.40124,884.704198 L1083.77728,-4.54747351e-13" id="Path-80-Copy-22" stroke="#979797"></path>
                        </g>
                        <g id="Group-14-Copy-3" transform="translate(1438.740744, 473.427320) scale(-1, 1) translate(-1438.740744, -473.427320) translate(0.740744, 30.927320)">
                            <path d="M1586.28731,884.704198 L0.663342549,-4.54747351e-13" id="Path-80" stroke="#979797"></path>
                            <path d="M1637.86416,884.704198 L52.2401966,-4.54747351e-13" id="Path-80-Copy" stroke="#979797"></path>
                            <path d="M1792.59472,884.704198 L206.970759,-4.54747351e-13" id="Path-80-Copy-5" stroke="#979797"></path>
                            <path d="M2102.05585,884.704198 L516.431883,-4.54747351e-13" id="Path-80-Copy-9" stroke="#979797"></path>
                            <path d="M1741.01787,884.704198 L155.393905,-4.54747351e-13" id="Path-80-Copy-3" stroke="#979797"></path>
                            <path d="M2050.47899,884.704198 L464.855029,-4.54747351e-13" id="Path-80-Copy-10" stroke="#979797"></path>
                            <path d="M1895.74843,884.704198 L310.124467,-4.54747351e-13" id="Path-80-Copy-6" stroke="#979797"></path>
                            <path d="M1689.44102,884.704198 L103.817051,-4.54747351e-13" id="Path-80-Copy-2" stroke="#979797"></path>
                            <path d="M1998.90214,884.704198 L413.278175,-4.54747351e-13" id="Path-80-Copy-12" stroke="#979797"></path>
                            <path d="M1844.17158,884.704198 L258.547613,-4.54747351e-13" id="Path-80-Copy-7" stroke="#979797"></path>
                            <path d="M2153.6327,884.704198 L568.008737,-4.54747351e-13" id="Path-80-Copy-13" stroke="#979797"></path>
                            <path d="M1947.32529,884.704198 L361.701321,-4.54747351e-13" id="Path-80-Copy-8" stroke="#979797"></path>
                        </g>
                    </g>
                </g>
            </g>
        </g>
    </g>
</svg>