<svg width="273" height="274" viewBox="0 0 273 274" xmlns="http://www.w3.org/2000/svg" xmlns:xlink="http://www.w3.org/1999/xlink"><title>1142781B-E18E-4F8F-9D9C-D01C6E951D7D</title><defs><ellipse id="a" cx="38.233" cy="38.248" rx="38.233" ry="38.248"/></defs><g fill="none" fill-rule="evenodd"><g fill-rule="nonzero"><path d="M235.65 156.542l-1.887-1.922c-.298-.303-.795-.303-.993 0-.2.304-.298.81 0 1.012l1.887 1.922c.1.101.298.202.497.202a.752.752 0 0 0 .497-.202c.298-.304.298-.81 0-1.012zm3.956 3.888c-.298-.303-.795-.303-.993 0-.298.304-.298.81 0 1.012l1.887 1.922c.1.1.298.202.497.202a.752.752 0 0 0 .497-.202c.298-.304.298-.81 0-1.012l-1.888-1.922zm-4.913 0l-1.888 1.922c-.298.304-.298.81 0 1.012.1.1.298.202.497.202a.752.752 0 0 0 .497-.202l1.887-1.922c.298-.304.298-.81 0-1.012-.298-.303-.695-.303-.993 0zm6.801-5.81c-.298-.303-.795-.303-.994 0l-1.887 1.922c-.298.304-.298.81 0 1.012a.751.751 0 0 0 .496.202.752.752 0 0 0 .497-.202l1.888-1.922c.298-.304.298-.708 0-1.012z" fill="#FFA300"/><path d="M151.788 47.456a.883.883 0 0 0-.902-.905h-18.04a.883.883 0 0 0-.903.905c0 .518.387.906.902.906h17.912c.644.13 1.03-.388 1.03-.906zm9.733.906a.883.883 0 0 0 .902-.906.883.883 0 0 0-.902-.905h-5.799a.883.883 0 0 0-.902.905c0 .518.387.906.902.906h5.8zm-8.303 3.375a.883.883 0 0 0-.902-.905h-18.04a.883.883 0 0 0-.902.905c0 .518.387.906.902.906h17.912c.644.13 1.03-.388 1.03-.906z" fill="#CCC"/><path d="M158.943 26.575c-3.105 0-5.564 2.449-5.564 5.541 0 3.093 2.459 5.541 5.564 5.541 3.106 0 5.564-2.448 5.564-5.54 0-3.093-2.458-5.542-5.564-5.542zm0 9.278a3.747 3.747 0 0 1-3.752-3.737 3.747 3.747 0 0 1 3.752-3.737 3.747 3.747 0 0 1 3.753 3.737c0 2.062-1.812 3.737-3.753 3.737z" fill="#FFA300"/><path d="M70.829 205.714a3.734 3.734 0 0 0-3.764 3.76 3.734 3.734 0 0 0 3.764 3.76c2.1 0 3.764-1.662 3.764-3.76a3.734 3.734 0 0 0-3.764-3.76zm0 6.295a2.539 2.539 0 0 1-2.539-2.536 2.539 2.539 0 0 1 5.077 0c0 1.4-1.225 2.536-2.538 2.536z" fill="#B3BAC7"/><path d="M103.218 238.99l-1.888-1.923c-.298-.303-.794-.303-.993 0-.199.304-.298.81 0 1.012l1.888 1.922a.751.751 0 0 0 .496.202.752.752 0 0 0 .497-.202c.298-.304.298-.81 0-1.012zm4.272 4.248c-.298-.304-.795-.304-.994 0-.298.303-.298.809 0 1.011l1.888 1.922c.1.101.298.202.497.202a.752.752 0 0 0 .497-.202c.298-.303.298-.81 0-1.011l-1.888-1.922zm-5.265 0l-1.888 1.922c-.298.303-.298.809 0 1.011.1.101.298.202.497.202a.752.752 0 0 0 .496-.202l1.888-1.922c.298-.303.298-.809 0-1.011-.298-.304-.695-.304-.993 0zm7.053-6.171c-.298-.303-.795-.303-.993 0l-1.888 1.922c-.298.304-.298.81 0 1.012.1.101.298.202.497.202a.752.752 0 0 0 .497-.202l1.887-1.922c.298-.304.298-.708 0-1.012z" fill="#FFA300"/></g><path d="M213.905 184.245h-28.567v7.191h35.709V105.14h-7.142v79.106zm-85.702 0v-79.106h7.142v86.297H49.642V69.181h49.993v7.192H56.784v107.872h71.419zm42.85 0h-28.567v7.191h35.709V105.14h-7.141v79.106zm-42.85-107.872l-7.142-7.192h21.425v7.192h-14.283zm21.425 14.383V69.18l28.568 28.766-28.568-7.191zm-42.851 0V69.18l28.568 28.766-28.568-7.191zm64.277-14.383l-7.142-7.192h21.426v7.192h-14.284z" stroke="#CCC" stroke-width="2" fill="#FFF" fill-rule="nonzero"/><g transform="translate(158.05 164.076)"><mask id="b" fill="#fff"><use xlink:href="#a"/></mask><use stroke="#B3BAC7" stroke-width="2" fill="#FFF" xlink:href="#a"/><path d="M38.594 47.313c9.096 0 16.05-6.967 16.05-16.079 0-9.111-6.954-16.079-16.05-16.079-9.095 0-16.05 6.968-16.05 16.08 0 9.11 6.955 16.078 16.05 16.078zm16.05 8.04h-32.1c-9.096 0-16.052 6.967-16.052 16.079v8.04h64.204v-8.04c0-9.112-6.956-16.08-16.051-16.08z" stroke="#B3BAC7" stroke-width="2" mask="url(#b)"/></g><path d="M206.447 83.706v-10.66a1.935 1.935 0 0 0-1.936-1.928 1.927 1.927 0 0 0-1.935 1.928v10.66h-11.614a1.933 1.933 0 0 0-1.937 1.936c0 1.077.867 1.937 1.937 1.937h11.614v10.66c0 1.059.866 1.928 1.935 1.928a1.927 1.927 0 0 0 1.936-1.928v-10.66h11.614a1.933 1.933 0 0 0 1.937-1.937 1.932 1.932 0 0 0-1.937-1.936h-11.614z" stroke="#FFA300" stroke-width="2" fill="#FFF"/><g fill-rule="nonzero"><path d="M33.08 172.567c.35 0 .612-.262.612-.612v-12.241a.598.598 0 0 0-.613-.612.598.598 0 0 0-.612.612v12.154c-.088.437.262.7.612.7zm-.701 7.258c0 .35.263.612.613.612s.612-.262.612-.612v-3.935a.598.598 0 0 0-.612-.612.598.598 0 0 0-.613.612v3.935z" fill="#CCC"/><path d="M33.08 126.749a3.734 3.734 0 0 0-3.765 3.76 3.734 3.734 0 0 0 3.764 3.76 3.734 3.734 0 0 0 3.764-3.76 3.734 3.734 0 0 0-3.764-3.76zm0 6.296a2.539 2.539 0 0 1-2.54-2.536 2.539 2.539 0 0 1 5.078 0c0 1.399-1.226 2.536-2.539 2.536z" fill="#FFA300"/></g></g></svg>