<?xml version="1.0" encoding="UTF-8" standalone="no"?>
<svg width="60px" height="60px" viewBox="0 0 60 60" version="1.1" xmlns="http://www.w3.org/2000/svg" xmlns:xlink="http://www.w3.org/1999/xlink">
    <!-- Generator: sketchtool 39.1 (31720) - http://www.bohemiancoding.com/sketch -->
    <title>C1C425AB-D8DE-453D-8CA5-8A00635D173F</title>
    <desc>Created with sketchtool.</desc>
    <defs></defs>
    <g id="Landing" stroke="none" stroke-width="1" fill="none" fill-rule="evenodd">
        <g id="Landing--Desktop" transform="translate(-408.000000, -659.000000)">
            <g id="features" transform="translate(0.000000, 541.000000)">
                <g id="01" transform="translate(327.000000, 118.000000)">
                    <g id="icon-multiple" transform="translate(81.000000, 0.000000)">
                        <rect id="Rectangle-5" fill-opacity="0" fill="#D8D8D8" x="0" y="0" width="60" height="60"></rect>
                        <g id="Group" transform="translate(13.000000, 10.000000)" fill="#00C96A">
                            <path d="M0.0619747477,31.85466 C0.0630505892,32.4076362 0.50316506,32.8559121 1.06510501,32.8559121 L1.04191207,32.8559121 C1.59484977,32.8559121 2.04309435,32.3982813 2.04309435,31.8523015 L2.04309435,3.17111945 C2.04309435,2.61684062 2.49179469,2.16750885 3.03951418,2.16750885 L25.6863037,2.16750885 C26.2366112,2.16750885 26.6827236,1.72888109 26.6827236,1.1599001 L26.6827236,1.00760875 C26.6827236,0.451121805 26.2418572,-1.90872505e-16 25.6854276,-1.2299443e-16 L0.997295951,2.88867685e-15 C0.446504606,2.95586713e-15 0.000855294142,0.439616216 0.00194798331,1.00125209 L0.0619747477,31.85466 Z" id="Path-2"></path>
                            <path d="M3.98094134,36.0988931 C3.98199791,36.6474399 4.42209676,37.0921249 4.98403671,37.0921249 L4.96084376,37.0921249 C5.51378147,37.0921249 5.96202604,36.6536185 5.96202604,36.0951717 L5.96202601,7.06922396 C5.96202601,6.51862191 6.40913882,6.07227076 6.96326205,6.07227076 L30.1059245,6.07227076 C30.6588919,6.07227076 31.1071605,5.633643 31.1071605,5.064662 L31.1071605,4.91237066 C31.1071605,4.35588371 30.6579419,3.9047619 30.1072727,3.9047619 L4.9188195,3.9047619 C4.3665967,3.9047619 3.91978695,4.34881298 3.92084474,4.89799376 L3.98094134,36.0988931 Z" id="Path-2-Copy"></path>
                            <path d="M32.6287739,32.6803705 L34.6986057,32.6803701 L34.6986057,9.08292643 C34.6986057,8.53368418 34.2594595,8.08843537 33.6891481,8.08843539 L9.12945756,8.08843623 C8.57194954,8.08843625 8.12,8.52664905 8.12,9.08649197 L8.12000015,39.8414038 C8.12000015,40.3926147 8.57531183,40.8394595 9.11030304,40.8394595 L26.5393246,40.8394595 L26.5393245,38.7645699 L11.1762658,38.7645699 C10.6245982,38.7645699 10.1773832,38.3152573 10.1773832,37.7632836 L10.1773832,11.1610891 C10.1773832,10.6080939 10.6258582,10.1598028 11.1710605,10.1598028 L31.6350961,10.1598027 C32.183889,10.1598027 32.6287735,10.6096596 32.6287735,11.1565418 L32.6287739,32.6803705 Z" id="Path-3"></path>
                            <path d="M29.8311325,34.8937639 C29.2837451,34.8970964 28.84,35.3390209 28.84,35.9082967 L28.84,39.9986135 C28.84,40.5555919 29.1543951,40.6939392 29.5476455,40.3022175 L34.3012045,35.5671369 C34.6920264,35.1778342 34.5652016,34.864943 34.0177176,34.8682761 L29.8311325,34.8937639 Z" id="Path-4"></path>
                        </g>
                    </g>
                </g>
            </g>
        </g>
    </g>
</svg>