<svg width="306" height="308" viewBox="0 0 306 308" xmlns="http://www.w3.org/2000/svg" xmlns:xlink="http://www.w3.org/1999/xlink"><title>F6C6070D-B249-48F5-B232-68BCE6335CBC</title><defs><path d="M40.567 9.684c-.892 0-1.733.205-2.487.561C35.823 4.41 30.084.262 23.356.262 16.63.262 10.89 4.41 8.633 10.245a5.805 5.805 0 0 0-2.487-.56c-3.18 0-5.758 2.534-5.758 5.66 0 3.126 2.578 5.66 5.758 5.66.88 0 1.712-.2 2.458-.547 1.429 2.79 4.294 4.128 7.94 4.73.598 3.166 3.422 5.572 6.812 5.572s6.215-2.406 6.813-5.572c3.646-.602 6.51-1.941 7.94-4.73a5.81 5.81 0 0 0 2.458.547c3.18 0 5.758-2.534 5.758-5.66 0-3.126-2.578-5.66-5.758-5.66zm-34.42 7.647c-1.098 0-1.988-.875-1.988-1.954 0-1.08.89-1.954 1.988-1.954 1.098 0 1.988.875 1.988 1.954 0 1.08-.89 1.954-1.988 1.954zm22.725 2.892h-.005l-1.427-.044.652 1.132a5.28 5.28 0 0 1 .707 2.632c0 2.95-2.441 5.351-5.443 5.351-3.001 0-5.443-2.4-5.443-5.351 0-.918.244-1.827.706-2.628l.64-1.113-1.3.02-.083.004c-3.043 0-5.518-2.433-5.518-5.425 0-2.99 2.475-5.424 5.518-5.424a5.51 5.51 0 0 1 4.914 2.966l.648 1.25.673-1.237a5.452 5.452 0 0 1 4.802-2.832c3.001 0 5.443 2.4 5.443 5.351 0 2.949-2.44 5.348-5.484 5.348zm11.895-2.892c-1.097 0-1.987-.875-1.987-1.954 0-1.08.89-1.954 1.987-1.954 1.098 0 1.988.875 1.988 1.954 0 1.08-.89 1.954-1.988 1.954z" id="a"/><mask id="b" x="-1" y="-1" width="47.938" height="32.498"><path fill="#fff" d="M-.612-.738h47.938V31.76H-.612z"/><use xlink:href="#a"/></mask></defs><g fill="none" fill-rule="evenodd"><g transform="translate(7 20)"><path d="M84 129V97.365l-51.5 29.733L31 124.5l53-30.6V40h3v52.168l26.324-15.198L94 43.5l2.598-1.5 19.324 33.47 27.154-15.677L101 35.5l1.5-2.598 43.576 25.159L186.02 35l1.5 2.598-38.443 22.195 27.142 15.67L195.538 42l2.597 1.5-19.32 33.463L206 92.658V40h3v54.39l48.519 28.012-1.5 2.598L209 97.854V129h45v3h-45v30.105L249.019 139l1.5 2.598L209 165.568V219h-3v-51.7l-27.795 16.048 21.93 37.984-2.598 1.5-21.93-37.984-26.848 15.5 48.76 28.152-1.5 2.598-50.26-29.017L95.5 231.098 94 228.5l48.76-28.151-26.386-15.234-21.776 37.717-2.598-1.5 21.776-37.717L87 168.156V219h-3v-52.576l-43-24.826L42.5 139 84 162.96V132H41v-3h43zm3 0h56.363l-28.539-49.432L87 95.632V129zm0 3v32.692l28.276 16.325 28.3-49.017H87zm61.56 0l28.145 48.75L206 163.837V132h-57.44zm.212-3H206V96.122L177.316 79.56 148.772 129zm-31.35-50.932l28.646 49.616 28.65-49.623-28.642-16.536-28.654 16.543zm56.685 104.182l-28.04-48.566-28.193 48.833 27.885 16.1 28.348-16.367zM75.5 38l2.598 1.5-46.5 80.54-2.598-1.5L75.5 38zm3 188.52L32 145.98l2.598-1.5 46.5 80.54-2.598 1.5zM216.598 38l46.5 80.54-2.598 1.5L214 39.5l2.598-1.5zm-3 188.52l-2.598-1.5 46.5-80.54 2.598 1.5-46.5 80.54zM100 23h85v3h-85v-3zm0 211h85v3h-85v-3z" fill="#CCC"/><circle fill="#F6B509" cx="85.5" cy="95.5" r="5.5"/><circle fill="#F6B509" cx="85.5" cy="165.5" r="5.5"/><circle fill="#F6B509" cx="207.5" cy="95.5" r="5.5"/><circle fill="#F6B509" cx="207.5" cy="165.5" r="5.5"/><circle fill="#F6B509" cx="145.5" cy="200.5" r="5.5"/><circle fill="#F6B509" cx="145.5" cy="59.5" r="5.5"/><circle stroke="#CCC" stroke-width="2" fill="#FFF" cx="146.5" cy="130.5" r="32.5"/><circle stroke="#CCC" stroke-width="2" fill="#FFF" cx="268" cy="131" r="24"/><circle stroke="#CCC" stroke-width="2" fill="#FFF" cx="24" cy="131" r="24"/><circle stroke="#CCC" stroke-width="2" fill="#FFF" cx="85" cy="24" r="24"/><circle stroke="#CCC" stroke-width="2" fill="#FFF" cx="85" cy="236" r="24"/><circle stroke="#CCC" stroke-width="2" fill="#FFF" cx="207" cy="236" r="24"/><circle stroke="#CCC" stroke-width="2" fill="#FFF" cx="207" cy="25" r="24"/></g><g stroke="#B3BAC7" fill="#FFF"><path d="M142.574 145.964c-.024.021-.024.043-.024.064.559 1.444-.85 2.823-1.433 3.34.777-1.314.923-2.65.485-3.943-.583-1.68-2.064-3.017-3.23-3.857-1.264-.905-2.381-1.4-2.406-1.4h-.073c-.024.02-.024.042 0 .064 1.822 3.124.56 4.223-1.214 5.753-1.36 1.142-3.061 2.63-3.571 5.56-.413 2.5.364 4.525 2.307 6.012 1.798 1.379 3.96 1.81 4.568 1.917.073-.021.097-.064.097-.086 0-.064-.049-.107-.073-.107-1.409-.302-3.693-1.164-3.79-3.384.365.216 1.652.906 2.721.927.024 0 .049-.021.049-.043 0-.022 0-.043-.025-.065-.024-.021-2.065-1.616-2.04-3.792.024-1.336.801-2.607 2.332-3.793.048.54.267 2.93 1.603 4.267 1.458 1.487 2.138 1.228 2.162 1.207 0 0 .996-.216 1.07-1.035.29.517.995 2.004.437 3.383-.413 1.013-1.41 1.767-2.94 2.263-.097.086-.097.15-.097.172.024.065.121.086.243.086 3.28-.452 6.608-3.06 6.608-7.154 0-4.266-3.644-6.335-3.693-6.356-.024-.022-.048 0-.073 0zm21.565.466c.024.02.024.042.024.064-.559 1.444.85 2.823 1.433 3.34-.777-1.314-.923-2.65-.486-3.943.583-1.681 2.065-3.017 3.231-3.857 1.264-.905 2.381-1.401 2.405-1.401h.073c.025.021.025.043 0 .065-1.822 3.124-.558 4.223 1.215 5.753 1.36 1.142 3.061 2.629 3.571 5.56.413 2.499-.364 4.524-2.308 6.011-1.797 1.38-3.96 1.81-4.567 1.918-.073-.021-.097-.065-.097-.086 0-.065.048-.108.073-.108 1.409-.302 3.692-1.163 3.79-3.383-.365.216-1.652.905-2.721.927-.025 0-.049-.022-.049-.043 0-.022 0-.044.024-.065.025-.022 2.065-1.616 2.041-3.793-.024-1.336-.802-2.607-2.332-3.792-.049.539-.267 2.93-1.604 4.266-1.457 1.487-2.137 1.229-2.162 1.207 0 0-.996-.215-1.069-1.034-.291.517-.996 2.004-.437 3.383.413 1.013 1.41 1.767 2.94 2.262.097.087.097.151.097.173-.024.065-.122.086-.243.086-3.28-.452-6.608-3.06-6.608-7.154 0-4.266 3.644-6.335 3.693-6.357.024-.021.048 0 .073 0z"/><path d="M145.986 134.854c.041.037.041.073.041.11-.955 2.454 1.454 4.799 2.45 5.678-1.328-2.235-1.578-4.506-.83-6.704.997-2.857 3.53-5.128 5.524-6.557 2.16-1.538 4.07-2.381 4.112-2.381h.125c.041.037.041.073 0 .11-3.115 5.312-.956 7.18 2.076 9.78 2.326 1.942 5.234 4.47 6.106 9.452.706 4.249-.623 7.692-3.946 10.22-3.073 2.344-6.77 3.077-7.808 3.26-.125-.036-.166-.11-.166-.146 0-.11.083-.184.124-.184 2.41-.512 6.313-1.978 6.48-5.75-.624.366-2.825 1.538-4.652 1.574-.042 0-.083-.036-.083-.073 0-.036 0-.073.041-.11.042-.036 3.53-2.747 3.489-6.447-.042-2.271-1.37-4.432-3.987-6.447-.083.916-.457 4.982-2.742 7.253-2.492 2.528-3.655 2.088-3.696 2.051 0 0-1.703-.366-1.828-1.758-.498.88-1.703 3.407-.747 5.751.706 1.722 2.409 3.004 5.025 3.847.167.146.167.256.167.293-.042.11-.208.146-.416.146-5.607-.77-11.297-5.202-11.297-12.162 0-7.253 6.23-10.77 6.313-10.806.042-.037.083 0 .125 0z"/></g><g transform="translate(130 143)"><use fill="#FFF" xlink:href="#a"/><use stroke="#B3BAC7" mask="url(#b)" stroke-width="2" xlink:href="#a"/><path d="M28.872 20.223h-.005l-1.427-.044.652 1.132a5.28 5.28 0 0 1 .707 2.632c0 2.95-2.441 5.351-5.443 5.351-3.001 0-5.443-2.4-5.443-5.351 0-.918.244-1.827.706-2.628l.64-1.113-1.3.02-.083.004c-3.043 0-5.518-2.433-5.518-5.425 0-2.99 2.475-5.424 5.518-5.424a5.51 5.51 0 0 1 4.914 2.966l.648 1.25.673-1.237a5.452 5.452 0 0 1 4.802-2.832c3.001 0 5.443 2.4 5.443 5.351 0 2.949-2.44 5.348-5.484 5.348z" stroke="#B3BAC7" fill="#FFF"/><path d="M18.885 23.391s-.048-.43.38-.43c.429 0 .429.43.429.43s-.087 1.379 1.02 2.545c1.107 1.167 2.625 1.134 2.625 1.134s1.584.02 2.662-1.134c1.078-1.153 1.017-2.545 1.017-2.545s0-.43.399-.43c.398 0 .407.43.407.43s.148 1.802-1.193 3.156c-1.34 1.355-3.292 1.359-3.292 1.359s-1.888 0-3.198-1.359c-1.31-1.358-1.256-3.156-1.256-3.156zm4.471-4.338c-.823 0-1.49-.328-1.49-.733 0-.405.667-.733 1.49-.733.824 0 1.491.328 1.491.733 0 .405-.667.733-1.49.733z" fill="#B3BAC7"/><ellipse fill="#B3BAC7" cx="20.03" cy="15.499" rx="1.008" ry=".991"/><ellipse fill="#B3BAC7" cx="26.682" cy="15.499" rx="1.008" ry=".991"/><path d="M6.147 17.331c-1.098 0-1.988-.875-1.988-1.954 0-1.08.89-1.954 1.988-1.954 1.098 0 1.988.875 1.988 1.954 0 1.08-.89 1.954-1.988 1.954zm34.62 0c-1.097 0-1.987-.875-1.987-1.954 0-1.08.89-1.954 1.987-1.954 1.098 0 1.988.875 1.988 1.954 0 1.08-.89 1.954-1.988 1.954z" stroke="#B3BAC7" fill="#FFF"/></g><path d="M32.402 146.848l-4.475-1.472v-6.379l4.48 1.309-.005 6.542m1.167-6.542l4.48-1.309-.015 6.374-4.465 1.477v-6.542m3.568-2l-4.176-1.272-4.122 1.272 4.128 1.09 4.17-1.09m6.549 8.542l-4.475-1.472v-6.379l4.48 1.309-.005 6.542m1.167-6.542l4.481-1.309-.016 6.374-4.465 1.477v-6.542m3.568-2l-4.176-1.272-4.121 1.272 4.127 1.09 4.17-1.09M15.48 149.628L11 148.32v6.378l4.475 1.472.006-6.542m1.161 0l4.48-1.308-.015 6.374-4.465 1.476v-6.542m3.568-1.999l-4.176-1.272-4.121 1.272 4.127 1.09 4.17-1.09m6.55 8.541l-4.476-1.472v-6.378l4.481 1.308-.005 6.542m1.167-6.542l4.48-1.308-.015 6.374-4.465 1.476v-6.542m3.568-1.999l-4.176-1.272-4.122 1.272 4.128 1.09 4.17-1.09m-10.378 17.864l-4.475-1.472v-6.379l4.48 1.309-.005 6.542m1.167-6.543l4.481-1.308-.015 6.375-4.466 1.476v-6.542m3.568-1.999l-4.176-1.272-4.121 1.272 4.127 1.09 4.17-1.09" fill-rule="nonzero" fill="#B3BAC7"/><g fill-rule="nonzero" fill="#B3BAC7"><path d="M75.86 51.635c7.04-4.51 15.031-1.257 19.027.906-5.528-2.183-13.602-2.677-19.026-.906"/><path d="M88.241 31c3.396 0 6.294 1.977 7.598 4.84h-2.65c-1.159-1.442-2.96-2.348-4.989-2.348a6.408 6.408 0 0 0-4.927 2.286c.062-.042.124-.103.186-.144 2.774-1.957 6.46.205 6.46.205s-3.5-1.009-5.88.639c-2.381 1.647-1.988 4.963-1.988 4.963s-.02-.041-.041-.124c0 .041.02.083.02.124a4.179 4.179 0 0 0-2.008-.762 8.574 8.574 0 0 1-.145-1.483c.021-4.53 3.748-8.196 8.364-8.196M77.58 49.72v-.7c2.195-1.628 6.253-3.728 11.139-2.204 7.411 2.306 12.11 5.457 17.846 4.036 5.714-1.42 6.231-4.53 6.231-4.53s-1.014 4.386-6.645 5.354c-5.632.968-10.828-.124-17.453-2.574-4.472-1.648-8.778-.371-11.118.617m0-1.42a21.52 21.52 0 0 1 1.201-.742 3.24 3.24 0 0 1-.517-.412 3.663 3.663 0 0 1-.684-.947v1.524l.042.041c.083.062.145.124.227.185a1.117 1.117 0 0 1-.269-.144v.494m0-7.104v-2.595a6.7 6.7 0 0 1 1.698-.33c-.02.289-.041.598-.041.907 0 .514.041 1.009.124 1.503a4.352 4.352 0 0 0-1.78.515m0-2.595v2.595a3.815 3.815 0 0 0-1.947 3.315c0 1.421.787 2.657 1.946 3.316v.473a19.58 19.58 0 0 0-1.304.948c-1.677-1.071-2.774-2.904-2.774-5.004 0-2.616 1.697-4.84 4.078-5.643m0 7.62c-.745-1.421-.497-3.048-.497-3.048s-1.242 2.862.497 4.571v-1.524m0 2.78c-1.138.845-1.78 1.545-1.78 1.545 0 .02.662-.37 1.78-.844v-.7"/><path d="M96.212 47.887s3.54 1.791 6.853 1.503c3.333-.288 4.327-1.462 4.327-1.462s-1.222 2.244-4.41 2.368c-3.188.124-6.77-2.327-6.77-2.41zM93.5 36.519h2.981v2.965H93.5V36.52zm11.8 8.176h2.299v2.285H105.3zM97.082 33.8h3.954v3.934h-3.954zm11.511 6.817h3.954v3.933h-3.954zm-7.163-2.574h2.215v2.203h-2.216v-2.203zm1.47 4.325h2.214v2.203H102.9v-2.203zm-4.659.226h2.215v2.204h-2.215v-2.204zm7.764-4.469h2.215v2.204h-2.215v-2.204z"/></g><g fill-rule="nonzero" fill="#B3BAC7"><path d="M213.196 43.997c.177.015.165-.127.167-.24.004-.392.002-.784.002-1.175 0-.416.002-.835-.002-1.251 0-.101.002-.22-.146-.22s-.146.117-.146.22a504.83 504.83 0 0 0 0 2.429c-.002.097-.018.226.125.237zm5.119.007c.158-.013.143-.151.143-.265.002-.39 0-.785 0-1.177v-1.216c0-.118-.005-.247-.166-.245-.157 0-.125.134-.125.228-.004.81-.004 1.621 0 2.432 0 .105-.042.26.148.243zm-2.995.002c.14.006.168-.097.168-.207v-2.506c0-.117-.048-.205-.181-.192-.126.011-.111.12-.113.205-.002.417-.002.835-.002 1.252 0 .406-.002.811.002 1.215.004.095-.034.226.126.233zm-1.051-.002c.14-.002.151-.116.151-.22v-2.468c0-.107-.019-.211-.159-.213-.159 0-.13.127-.13.222-.004.405-.002.81-.002 1.214 0 .404-.002.811.002 1.215 0 .103-.051.254.138.25zm-.905-6.748c0-.088 0-.195-.155-.189-.154.007-.136.12-.136.205v1.215c0 .405-.004.81 0 1.214.003.092-.037.228.155.226.152-.003.136-.12.136-.203.004-.822.004-1.646 0-2.468zm1.415 6.748c.164.01.173-.117.173-.235v-2.43c0-.12-.01-.246-.173-.236-.155.009-.119.144-.119.235-.005.406-.003.811-.003 1.215 0 .403 0 .81.003 1.214.002.093-.036.226.119.237zm-1.188-1.457c0 .405 0 .81.002 1.214.002.094-.037.228.111.241.16.017.18-.106.18-.23v-2.43c0-.118-.003-.25-.167-.241-.18.011-.118.166-.12.267-.01.392-.006.787-.006 1.179zm5.109 1.243c0 .095-.024.222.133.218.137-.002.16-.11.16-.217.002-.824.002-1.646 0-2.47 0-.106-.02-.215-.156-.22-.16-.006-.136.12-.136.217-.004.405-.002.81-.002 1.216 0 .418-.002.835.002 1.255zm-9.557-3.816c.168.01.175-.118.175-.235 0-.82 0-1.643-.002-2.465 0-.104-.011-.213-.158-.215-.165 0-.133.126-.133.22-.002.4-.002.806-.002 1.21 0 .418 0 .835.002 1.252.002.093-.036.226.118.233zm2.005-.196c0 .088-.002.19.118.2.133.007.176-.08.176-.194.002-.836.002-1.673 0-2.506 0-.105-.011-.213-.151-.217-.156-.003-.143.116-.143.213-.002.417-.002.836-.002 1.252 0 .415 0 .833.002 1.252zm-2.009 1.322c-.15.014-.114.147-.116.24-.002.405 0 .81 0 1.216 0 .406-.002.811 0 1.215.002.093-.034.228.122.233.16.006.172-.123.172-.24v-2.432c0-.121-.02-.244-.178-.231zm.539-1.126c.167.01.175-.12.175-.237 0-.82.004-1.642 0-2.465 0-.104-.014-.213-.158-.214-.165 0-.134.125-.134.218-.002.404 0 .81 0 1.213 0 .418-.002.835 0 1.252.004.093-.039.226.12.233h-.003zm.944-.2c0 .086-.015.195.12.202.133.008.174-.082.174-.198 0-.833.004-1.668 0-2.5 0-.103-.008-.215-.154-.219-.165-.005-.136.12-.136.213-.006.406-.004.811-.004 1.215 0 .428-.002.86 0 1.287zm-.407.2c.14.006.169-.097.169-.205 0-.834.002-1.669 0-2.5 0-.107-.02-.213-.163-.21-.167.002-.129.133-.129.225-.003.403-.001.809-.001 1.212l.001 1.25c0 .094-.038.223.123.228zm3.914-4.269c0 .093-.038.228.113.24.16.014.179-.11.179-.233V34.5c0-.404 0-.81-.004-1.213 0-.11.019-.25-.148-.258-.191-.007-.136.148-.136.247-.006.81-.004 1.618-.004 2.429zm1.891 1.577c0-.092.033-.226-.161-.215-.157.007-.127.125-.127.207-.002.389 0 .78 0 1.172 0 .415-.005.831 0 1.246.002.092-.046.232.14.235.186.004.149-.136.149-.227a211 211 0 0 0 0-2.418zm1.24 6.717c.141-.006.14-.122.14-.225v-2.432c0-.101.007-.22-.133-.232-.143-.013-.162.097-.162.204v2.472c0 .106.012.22.155.213zm-1.932-6.939c-.163 0-.13.127-.132.22-.004.404-.002.809-.002 1.213 0 .418-.002.835.002 1.251.002.094-.036.223.12.234.134.01.172-.092.172-.202.002-.835.002-1.668 0-2.5 0-.106-.02-.213-.16-.217zm-1.598 0c-.163 0-.131.127-.133.22-.004.404-.002.809-.002 1.213 0 .418-.002.835.002 1.251.002.094-.034.223.122.234.132.01.17-.092.17-.202.002-.835.002-1.668 0-2.5 0-.106-.019-.215-.16-.217zm2.002-2.588c0 .405-.004.81 0 1.212.002.092-.046.228.154.22.154-.003.136-.119.136-.203.002-.82.002-1.642 0-2.464 0-.082.02-.196-.138-.202-.202-.006-.15.13-.152.222-.004.406-.002.811 0 1.215zm-1.464 2.589c-.188-.007-.134.15-.135.249-.006.392-.004.783-.004 1.175 0 .417-.002.833.002 1.25.002.095-.038.228.113.241.158.013.179-.112.179-.232V37.32c-.002-.112.007-.25-.155-.258zm.533 0c-.188-.007-.135.15-.135.249-.007.392-.004.783-.004 1.175 0 .417-.003.833 0 1.25.004.095-.035.228.115.241.158.013.178-.112.178-.232V37.32c-.002-.112.008-.25-.154-.258zm.931 6.704c0 .082-.025.2.134.2.194.002.155-.13.155-.222.005-.39.002-.781.002-1.172 0-.403.003-.805-.002-1.209-.002-.091.035-.226-.16-.218-.16.005-.129.121-.129.202-.005.807-.005 1.612 0 2.42zm-2.51-7.862c.174-.002.14-.142.14-.234.007-.388.003-.78.003-1.173 0-.415 0-.831-.003-1.248 0-.082.025-.198-.128-.207-.192-.013-.16.121-.16.214-.005.806-.005 1.613 0 2.42 0 .092-.037.232.144.228h.004zm.373-.202c0 .103-.041.258.148.241.16-.013.14-.153.14-.263.003-.393.001-.783 0-1.174 0-.405.001-.81-.002-1.212 0-.11.019-.25-.144-.26-.195-.013-.142.144-.142.245-.004.807-.004 1.614 0 2.423zm4.042 8.027c0 .108-.063.29.15.274.185-.013.144-.175.144-.295.006-.38.002-.755.002-1.134 0-.389 0-.78-.002-1.171 0-.12.038-.283-.15-.294-.211-.01-.144.168-.144.275-.005.779-.005 1.562 0 2.345zm-2.975-9.254c0 .418-.003.835 0 1.251 0 .094-.026.22.136.22.14 0 .155-.107.155-.214.002-.82.002-1.64 0-2.462 0-.116-.003-.245-.17-.236-.163.008-.119.142-.119.234-.007.403-.004.809-.004 1.212v-.005h.002zm.532.013c0 .403-.002.809.002 1.212.002.103-.044.254.147.243.14-.007.143-.121.143-.226 0-.82.002-1.64-.002-2.462 0-.101-.004-.219-.145-.225-.195-.009-.141.144-.143.245-.006.406-.004.811-.002 1.213zm-5.518 6.613c-.153.01-.117.145-.117.236-.002.406-.002.811-.002 1.217 0 .405 0 .81.002 1.214 0 .095-.036.228.117.237.158.01.175-.117.175-.235v-2.433c-.002-.117-.015-.243-.175-.235zm2.008-1.402c0 .091-.043.233.133.235.21.006.15-.155.15-.254.009-.392.004-.785.004-1.177s.005-.787-.004-1.18c0-.098.063-.259-.15-.255-.174.002-.133.144-.133.235-.004.798-.004 1.598 0 2.396zm-6.581 4.306c.163.01.174-.117.174-.235v-2.43c0-.12-.01-.246-.174-.236-.154.009-.118.144-.118.235-.004.406-.002.811-.002 1.215 0 .403-.002.81.002 1.214.002.093-.036.226.118.237zm-1.493-.234c0 .087-.008.197.152.191.155-.007.134-.12.134-.201.007-.404.005-.808.005-1.213 0-.389.002-.781-.005-1.172 0-.09.049-.23-.146-.226-.152 0-.138.116-.14.2-.003.81-.003 1.616 0 2.422zm2.043.234c.163-.005.154-.14.154-.254v-2.418c0-.121-.02-.24-.18-.23-.144.014-.118.14-.12.236-.003.404-.001.805-.001 1.21 0 .404-.002.806.001 1.21.002.104-.035.252.143.246h.003zm.394-.259c.002.093-.034.226.152.222.151-.002.14-.116.14-.198.003-.807.003-1.616 0-2.423 0-.085.018-.197-.131-.202-.19-.008-.159.123-.159.217-.002.39-.002.782-.002 1.175 0 .401-.005.805 0 1.209zm-2.971.029c0 .086-.002.195.153.185.154-.007.138-.117.138-.201.004-.393.002-.785.002-1.174 0-.405.002-.81-.002-1.212-.002-.094.036-.228-.154-.223-.15.002-.137.118-.14.2 0 .81 0 1.618.003 2.425zm4.036-.026c0 .096-.03.232.156.219.175-.011.133-.146.135-.24.004-.39 0-.782 0-1.173 0-.39.004-.782 0-1.175-.002-.091.042-.226-.138-.235-.184-.011-.153.125-.153.218-.002.796-.002 1.59 0 2.386zm-.534-1.201c0 .405-.002.809 0 1.213 0 .082-.02.194.132.205.187.011.16-.12.16-.213.003-.796.003-1.59 0-2.386 0-.093.036-.23-.149-.224-.178.004-.14.14-.14.233-.005.39 0 .783 0 1.176v-.004h-.003z"/><path d="M229.458 45.615c.213-.656.575-.815 1.256-.83 2.288-.048 4.134-.917 5.16-3.103.095-.202.088-.277-.116-.402-1.464-.899-3.035-1.063-4.688-.706-.142.032-.307.157-.36-.135-.241-1.364-.979-2.45-1.973-3.383-.33-.31-.651-.63-1.061-.841-.367.351-.706.734-.9 1.207-.78 1.887-.78 3.744.286 5.534.123.207.067.273-.11.359-.467.232-.95.416-1.446.573-1.357.43-2.758.36-4.153.372-.28.002-.365-.067-.359-.355.017-1.128-.011-2.257.017-3.383.01-.354-.107-.413-.427-.408-1.028.019-2.058.01-3.085.006-.618-.002-.532.07-.534-.514-.004-2.408-.004-4.815.004-7.223 0-.249-.041-.353-.328-.351-1.408.015-2.817.015-4.229 0-.275-.002-.335.09-.331.347.013 1.103-.01 2.205.015 3.307.007.34-.09.415-.422.415-2.44-.017-4.875-.006-7.312-.017-.307-.002-.375.09-.371.381.017 1.114 0 2.23.015 3.347.002.246-.067.32-.318.317-1.118-.015-2.236 0-3.353-.015-.287-.003-.39.056-.384.368.02 1.153 0 2.306.011 3.46.004.247-.064.324-.314.318-.953-.015-1.904-.002-2.856-.01-.189 0-.307.018-.325.25-.064.835-.12 1.666-.045 2.503.04.44.041.44-.408.35-.886-.178-1.687-.52-2.344-1.189-.055.647-.234.91-.81 1.196-.589.299-1.238.418-1.86.633 1.728 0 3.454.008 5.18-.007.294-.002.38.095.429.366a10.246 10.246 0 0 0 2.26 4.824c2.327 2.778 5.403 4.07 8.932 4.383 2.737.243 5.448-.015 8.116-.674 5.186-1.286 9.304-4.084 12.161-8.641.126-.2.262-.256.49-.253 2.259.008 4.52.006 6.78.006h.386c-.43-.159-.864-.245-1.275-.392-.684-.247-1.418-.471-1.393-1.426-.229.183-.416.359-.628.497-1.115.727-2.364.843-3.652.78-.228-.012-.169-.105-.105-.234.266-.531.592-1.045.775-1.603l.002-.004zm-12.656-4.587c0-.207.088-.256.274-.256 1.001.006 2.003.006 3.006 0 .195 0 .274.071.274.267a411.315 411.315 0 0 0 0 3.04c0 .206-.102.258-.285.254-.498-.006-.992-.002-1.487-.002-.496 0-.99-.005-1.486.002-.195.004-.303-.034-.301-.267.013-1.015.01-2.027.005-3.038zm-.48-1.022c0 .213-.085.288-.293.288a201.86 201.86 0 0 0-3.009 0c-.235.003-.267-.107-.265-.303.009-.493.003-.987.003-1.48s.008-.988-.003-1.481c-.006-.21.054-.29.277-.288.988.01 1.98.01 2.97 0 .222-.002.32.062.32.299-.008.988-.008 1.977 0 2.965zm-3.564-5.538c0-.482.01-.962-.003-1.442-.006-.219.039-.316.288-.312.988.013 1.979.01 2.967 0 .238-.002.31.084.307.31-.007.975-.007 1.95 0 2.926.002.226-.067.315-.303.314-.989-.01-1.979-.012-2.97 0-.245.001-.299-.092-.291-.312.013-.494.005-.989.005-1.484zm-.003 6.614c-.002-.22.044-.312.292-.31.988.011 1.978.011 2.967.002.236-.002.305.086.303.312-.007.973-.01 1.947 0 2.924.002.243-.073.338-.327.329-.493-.017-.989-.004-1.483-.004-.483 0-.966-.01-1.447.004-.22.005-.315-.045-.311-.292.015-.986.011-1.973.004-2.96l.002-.005zm-3.745-4.338c.976.01 1.951.01 2.926 0 .234-.002.313.07.304.302-.015.494-.006.987-.006 1.478 0 .494-.007.987.006 1.48.003.21-.06.29-.28.29-.986-.01-1.976-.01-2.963 0-.217 0-.28-.071-.279-.284.01-.987.011-1.973 0-2.958-.004-.228.053-.314.292-.308zm3.224 5.846c0 .493-.006.986.004 1.482.004.194-.066.265-.264.263a268.837 268.837 0 0 0-3.007-.002c-.178.002-.249-.056-.247-.239a281 281 0 0 0 0-3.077c-.002-.18.06-.247.243-.245 1.002.006 2.004.007 3.005-.002.232-.004.274.101.27.297-.01.507-.004 1.013-.004 1.52v.003zm-7.296-5.846c1 .007 2.002.007 3.003 0 .2-.002.26.078.257.27a255.87 255.87 0 0 0 0 3.035c.003.177-.06.248-.242.247a329.435 329.435 0 0 0-3.038 0c-.227 0-.236-.122-.236-.29.005-.493.004-.988.004-1.48 0-.506.005-1.01-.004-1.517-.006-.192.054-.267.256-.265zm.049 4.028c.496.013.99.006 1.486.006.485 0 .966.007 1.448-.004.219-.006.282.075.279.286a160.51 160.51 0 0 0 0 3.002c.003.226-.09.275-.292.273a153.55 153.55 0 0 0-2.934.002c-.24.002-.3-.08-.294-.307.007-.986.011-1.976-.004-2.963-.002-.248.086-.303.31-.295zm-4.355.275c0-.226.092-.275.294-.275.977.007 1.955.01 2.932 0 .242-.002.298.082.296.308-.01.989-.013 1.975 0 2.962.004.243-.088.3-.31.295-.482-.013-.965-.004-1.444-.004-.48 0-.966-.007-1.446.002-.213.004-.322-.037-.318-.288.011-1 .01-2 0-2.999h-.004v-.001zm26.637 7.234c-.887 1.317-1.892 2.537-3.076 3.593a18.547 18.547 0 0 1-4.828 3.118c-1.868.84-3.827 1.37-5.852 1.672-.987.148-1.985.21-2.98.273-2.481.101-4.906-.136-7.207-1.171-1.355-.613-2.523-1.49-3.59-2.513-.05-.047-.124-.088-.12-.217 1.233.079 2.463.064 3.695-.007a17.262 17.262 0 0 0 2.814-.462c.118-.041.24-.08.358-.121.19-.066.31-.185.247-.396-.062-.217-.232-.24-.427-.18-.77.25-1.558.398-2.366.475-.639.06-1.279.15-1.921.12-.91.03-1.82.007-2.728-.057a.373.373 0 0 1-.309-.172 9.938 9.938 0 0 1-1.717-4.035c-.035-.202.047-.21.193-.21.506.006 1.011.008 1.517.012.114-.002.226-.012.342-.012h24.069c.114 0 .226.008.342.012 1.13-.002 2.258-.002 3.387-.015.281-.002.303.078.157.295v-.002zm.736-1.213c-.112.202-.219.255-.45.187-.5-.14-1-.278-1.428-.59-.15-.109-.215-.08-.34.037a1.91 1.91 0 0 1-.993.521c-.844.32-1.733.365-2.617.369-1.054.003-2.1-.1-3.124-.367-.646-.17-1.318-.31-1.772-.874-.103-.125-.147-.011-.202.037-1.21 1.073-2.684 1.237-4.206 1.176a5.814 5.814 0 0 1-2.45-.62c-.32-.163-.572-.533-.862-.586-.255-.046-.51.395-.841.53-.852.354-1.75.515-2.655.62-1.213.134-2.428.132-3.63-.13-.563-.123-1.112-.287-1.528-.711-.132-.137-.202-.062-.314.007-.543.34-1.13.559-1.773.628-.477.155-.973.151-1.464.163-.135.003-.2-.043-.225-.191-.106-.704-.056-1.413-.04-2.12.005-.188.125-.221.284-.217.432.009.863.009 1.293.013.165-.004.33-.012.495-.012 7.857 0 15.715.002 23.572-.003 1.354 0 2.674-.21 3.932-.746a6.844 6.844 0 0 0 1.357-.76c.082-.06.247-.114.071-.28-.674-.638-1.003-1.456-1.12-2.355-.146-1.15-.044-2.275.536-3.314.226-.407.24-.41.582-.108 1.054.932 1.837 2.023 1.998 3.467.022.2.02.404.015.607-.004.088 0 .148.105.154 1.52-.686 3.046-.733 4.59-.079.305.13.283.264.127.503-.756 1.179-1.881 1.77-3.22 2.003-.632.112-1.275.201-1.922.09-.289-.051-.448.037-.558.34-.33.902-.753 1.761-1.217 2.606v.005h-.006z"/><path d="M200.953 43.745c.002.091-.04.228.16.213.152-.01.127-.127.127-.21.004-.794.004-1.59 0-2.384 0-.093.03-.228-.162-.213-.157.01-.125.127-.125.21-.005.39-.002.782-.002 1.173 0 .402-.003.805.002 1.21zm1.591.005c0 .082-.025.196.13.206.19.01.158-.12.162-.213.003-.796.003-1.592 0-2.39 0-.082.023-.196-.13-.205-.189-.012-.162.12-.162.213-.002.392-.002.782-.002 1.175 0 .403 0 .809.002 1.214zm-.924.211c.155.004.148-.106.148-.194.005-.404.002-.809.002-1.213 0-.403.003-.809-.002-1.212 0-.086.01-.194-.143-.196-.155-.002-.15.106-.15.192v2.425c.002.086-.005.195.145.198zm8.61-2.858c-.184-.01-.138.147-.14.248a255.38 255.38 0 0 0 0 2.395c0 .101-.052.256.132.258.16.002.159-.134.159-.248.002-.393 0-.785 0-1.177 0-.406.002-.811 0-1.217 0-.114.007-.25-.15-.26zm-8.074 2.858c.15 0 .146-.108.146-.194.002-.392.002-.783.002-1.175 0-.419.003-.835-.002-1.252 0-.088.007-.196-.146-.196-.155 0-.145.108-.145.194-.003.81-.003 1.618 0 2.425 0 .088-.01.195.145.198zm9.682-2.815c-.188 0-.15.132-.152.226-.007.392-.002.784-.002 1.175 0 .405-.002.81.002 1.213 0 .085-.013.194.14.2.157.005.152-.103.152-.19v-2.426c0-.084.012-.198-.14-.198zm7.535 2.86c.136-.004.15-.118.15-.222.003-.824.003-1.646 0-2.47 0-.109-.025-.213-.16-.213-.159 0-.129.127-.129.224-.004.405-.002.81-.002 1.214 0 .406-.003.811.002 1.217 0 .103-.047.256.14.25zm-11.578-4.073c.157 0 .141-.114.141-.196.003-.417.003-.832.003-1.246 0-.415 0-.832-.003-1.247 0-.074.007-.162-.12-.173-.162-.015-.169.084-.169.175v2.495c0 .084-.007.192.148.192zm3.653 1.447c0-.124.015-.281-.17-.277-.173.002-.126.158-.126.261a252.6 252.6 0 0 0 0 2.382c0 .103-.043.258.133.258.185 0 .163-.157.163-.28.004-.39.004-.781.004-1.173 0-.393 0-.781-.004-1.172zm-3.802 1.154c0 .403-.005.805.002 1.209 0 .091-.04.226.153.222.16-.002.136-.12.136-.2.002-.805.002-1.612 0-2.418 0-.08.03-.196-.132-.203-.194-.008-.157.127-.16.22-.004.39 0 .781 0 1.17zm-.532-2.794c0 .088-.004.195.148.193.151-.002.142-.11.142-.196.003-.404.003-.807.003-1.213 0-.416 0-.831-.003-1.248 0-.084.025-.196-.129-.205-.188-.017-.16.114-.163.209-.002.82-.002 1.64.002 2.46zm3.636 1.363c-.18.009-.12.164-.122.265-.006.392-.004.785-.004 1.177 0 .405-.002.81.002 1.216.002.103-.041.256.146.243.131-.01.144-.121.144-.228v-2.432c0-.116-.007-.25-.167-.241zm9.131 2.903c.161.011.179-.114.179-.235V41.34c0-.12-.012-.247-.173-.24-.153.008-.12.143-.12.234-.003.811-.003 1.622 0 2.433 0 .095-.033.228.114.24zm-14.774-4.03c.135.008.171-.092.171-.202.002-.833.002-1.668 0-2.5 0-.104-.019-.213-.16-.213-.161 0-.131.127-.131.22-.004.403-.002.808-.002 1.213 0 .419-.002.836.002 1.252 0 .092-.034.223.12.23zm.526 0c.159.011.176-.114.176-.234 0-.822 0-1.646-.002-2.466 0-.106-.019-.213-.157-.215-.156-.003-.137.116-.137.215-.004.404-.002.81-.002 1.213 0 .418-.002.835.002 1.253 0 .096-.028.227.12.234zm.947-.236c0 .088-.004.195.15.193.152-.002.143-.112.143-.196.002-.419 0-.833 0-1.25 0-.404.002-.81 0-1.21 0-.083.027-.197-.13-.206-.187-.017-.163.114-.163.209a504.3 504.3 0 0 0 0 2.46zm-.392.191c.186.006.148-.132.152-.226.003-.403 0-.807 0-1.21 0-.404.003-.808 0-1.211 0-.094.027-.225-.163-.215-.15.007-.128.12-.128.203-.002.808-.002 1.617 0 2.424 0 .091-.038.228.139.235zm2.762 10.994a.968.968 0 0 0-1.009-.959.976.976 0 0 0 .032 1.949.965.965 0 0 0 .977-.99zm-.958.715a.698.698 0 0 1-.717-.672.677.677 0 0 1 .629-.716c.13-.007.314-.07.22.217-.076.224.09.4.311.312.26-.103.229.035.234.189a.686.686 0 0 1-.677.67z"/></g><g transform="translate(261 138)" fill-rule="nonzero"><path fill="#FFF" d="M9.422 21.574l-5.031-8.81 5.031-8.81h10.063l5.028 8.81-5.028 8.81z"/><path d="M10.276 20.463l-4.47-7.733-2.452-4.238C3.174 8.18 3.1 7.75 3.13 7.34L.55 11.856c-.307.54-.307 1.423 0 1.964l6.197 10.855c.308.541 1.066.982 1.682.982h7.38c.297-.178.554-.415.704-.678l2.525-4.513h-8.762v-.003z" stroke="#B3BAC7" stroke-width=".5" fill="#FFF"/><path fill="#FFF" d="M28.708 11.856L22.508 1l2.521 4.41z"/><path d="M28.708 11.856L25.03 5.409c-.319-.196-.685-.322-1.011-.322H19.03l4.314 7.688-4.306 7.688-2.525 4.512a1.95 1.95 0 0 1-.704.678h5.02c.616 0 1.375-.44 1.683-.981l2.466-4.317 3.73-6.535c.308-.541.308-1.423 0-1.964z" stroke="#B3BAC7" stroke-width=".5" fill="#FFF"/><path d="M22.508 1C22.2.46 21.442.02 20.826.02H8.43c-.616 0-1.374.44-1.682.981l-3.62 6.343c-.03.412.047.838.223 1.153l2.452 4.238 4.375-7.647h13.834c.326 0 .692.126 1.011.322L22.508 1z" stroke="#B3BAC7" stroke-width=".5" fill="#FFF"/><path stroke="#B3BAC7" stroke-width=".5" fill="#FFF" d="M5.805 12.734l4.471 7.729h8.762l4.302-7.688-4.313-7.688H10.18z"/><path d="M14.622 16.784c-2.162 0-3.921-1.779-3.921-3.965s1.759-3.964 3.921-3.964 3.921 1.778 3.921 3.964-1.759 3.965-3.92 3.965zM8.752 3.279a.76.76 0 0 1-.755-.763.76.76 0 0 1 .755-.764.76.76 0 0 1 .754.764.76.76 0 0 1-.754.763z" fill="#B3BAC7"/><ellipse fill="#B3BAC7" cx="20.445" cy="2.512" rx=".7" ry=".708"/><path d="M8.752 23.779a.76.76 0 0 1-.755-.764c0-.418.34-.763.755-.763a.76.76 0 0 1 .754.763.76.76 0 0 1-.754.764zm11.693 0a.76.76 0 0 1-.755-.764c0-.418.34-.763.755-.763a.76.76 0 0 1 .755.763.76.76 0 0 1-.755.764zm5.889-10.193a.76.76 0 0 1-.755-.763.76.76 0 0 1 .755-.763.76.76 0 0 1 .755.763.758.758 0 0 1-.755.763zm-23.482 0a.76.76 0 0 1-.755-.763.76.76 0 0 1 .755-.763c.414 0 .755.344.755.763a.758.758 0 0 1-.755.763z" fill="#B3BAC7"/></g><path d="M82 249.85l7-1.67V256h-7zm8-1.859L101 246v10H90zm-8 15.265l7 1.593V257h-7zm8 1.753L101 267v-10H90z" fill="#B3BAC7"/><g transform="translate(203 245)" fill="#B3BAC7"><rect x="10" width="2" height="22" rx="1"/><rect transform="rotate(90 11 11)" x="10" width="2" height="22" rx="1"/></g><path d="M34.35 68.365L32.4 66.38c-.307-.314-.82-.314-1.026 0-.205.313-.308.836 0 1.044l1.95 1.985a.777.777 0 0 0 .514.21c.205 0 .41-.105.513-.21.308-.313.308-.835 0-1.044zm4.414 4.387c-.308-.313-.82-.313-1.026 0-.308.313-.308.836 0 1.045l1.95 1.984a.777.777 0 0 0 .513.21c.206 0 .41-.105.513-.21.308-.313.308-.835 0-1.044l-1.95-1.985zm-5.44 0l-1.95 1.985c-.308.313-.308.836 0 1.044a.777.777 0 0 0 .514.21c.205 0 .41-.105.513-.21l1.95-1.984c.308-.314.308-.836 0-1.045-.308-.313-.719-.313-1.027 0zm7.288-6.372c-.308-.314-.821-.314-1.027 0l-1.95 1.985c-.308.313-.308.835 0 1.044a.777.777 0 0 0 .513.21.776.776 0 0 0 .514-.21l1.95-1.985c.308-.313.308-.73 0-1.044zM259.35 230.365l-1.95-1.985c-.307-.314-.82-.314-1.026 0-.205.313-.308.836 0 1.044l1.95 1.985a.777.777 0 0 0 .514.21c.205 0 .41-.105.513-.21.308-.313.308-.835 0-1.044zm4.414 4.387c-.308-.313-.82-.313-1.026 0-.308.313-.308.836 0 1.045l1.95 1.984a.777.777 0 0 0 .513.21c.206 0 .41-.105.513-.21.308-.313.308-.835 0-1.044l-1.95-1.985zm-5.44 0l-1.95 1.985c-.308.313-.308.836 0 1.044a.777.777 0 0 0 .514.21c.205 0 .41-.105.513-.21l1.95-1.984c.308-.314.308-.836 0-1.045-.308-.313-.719-.313-1.027 0zm7.288-6.372c-.308-.314-.821-.314-1.027 0l-1.95 1.985c-.308.313-.308.835 0 1.044a.777.777 0 0 0 .513.21.776.776 0 0 0 .514-.21l1.95-1.985c.308-.313.308-.73 0-1.044z" fill-rule="nonzero" fill="#FFA300"/><g fill-rule="nonzero"><path d="M269.889 90.77a.619.619 0 0 0 .633-.633V77.495a.618.618 0 0 0-.633-.632.618.618 0 0 0-.633.632v12.552c-.09.451.27.722.633.722zm-.724 7.494c0 .361.271.632.633.632s.633-.27.633-.632v-4.063a.618.618 0 0 0-.633-.632.618.618 0 0 0-.633.632v4.063z" fill="#CCC"/><path d="M269.889 43A3.857 3.857 0 0 0 266 46.883a3.857 3.857 0 0 0 3.889 3.883 3.857 3.857 0 0 0 3.888-3.883A3.857 3.857 0 0 0 269.889 43zm0 6.502a2.622 2.622 0 0 1-2.623-2.62 2.622 2.622 0 0 1 5.245 0c0 1.446-1.266 2.62-2.622 2.62z" fill="#FFA300"/><path d="M37.889 238A3.857 3.857 0 0 0 34 241.883a3.857 3.857 0 0 0 3.889 3.883 3.857 3.857 0 0 0 3.888-3.883A3.857 3.857 0 0 0 37.889 238zm0 6.502a2.622 2.622 0 0 1-2.623-2.62 2.622 2.622 0 0 1 5.245 0c0 1.446-1.266 2.62-2.622 2.62z" fill="#B3BAC7"/></g></g></svg>