<svg width="306" height="307" viewBox="0 0 306 307" xmlns="http://www.w3.org/2000/svg"><title>AB9045AF-B37D-49ED-97F6-F7135F16DE72</title><g fill="none" fill-rule="evenodd"><g fill-rule="nonzero"><path d="M27.35 77.365L25.4 75.38c-.307-.314-.82-.314-1.026 0-.205.313-.308.836 0 1.044l1.95 1.985a.777.777 0 0 0 .514.21c.205 0 .41-.105.513-.21.308-.313.308-.835 0-1.044zm4.414 4.387c-.308-.313-.82-.313-1.026 0-.308.313-.308.836 0 1.045l1.95 1.984a.777.777 0 0 0 .513.21c.206 0 .41-.105.513-.21.308-.313.308-.835 0-1.044l-1.95-1.985zm-5.44 0l-1.95 1.985c-.308.313-.308.836 0 1.044a.777.777 0 0 0 .514.21c.205 0 .41-.105.513-.21l1.95-1.984c.308-.314.308-.836 0-1.045-.308-.313-.719-.313-1.027 0zm7.288-6.372c-.308-.314-.821-.314-1.027 0l-1.95 1.985c-.308.313-.308.835 0 1.044a.777.777 0 0 0 .513.21.776.776 0 0 0 .514-.21l1.95-1.985c.308-.313.308-.73 0-1.044z" fill="#FFA300"/><path d="M270.77 81.111a.618.618 0 0 0-.633-.633h-12.642a.618.618 0 0 0-.632.633c0 .362.27.633.632.633h12.552c.451.09.722-.27.722-.633zm7.494.724a.618.618 0 0 0 .632-.633.618.618 0 0 0-.632-.633h-4.063a.618.618 0 0 0-.632.633c0 .362.27.633.632.633h4.063zm-6.358 2.518a.618.618 0 0 0-.632-.633h-12.642a.618.618 0 0 0-.632.633c0 .362.27.633.632.633h12.552c.451.09.722-.271.722-.633z" fill="#CCC"/><path d="M275.889 66A3.857 3.857 0 0 0 272 69.883a3.857 3.857 0 0 0 3.889 3.883 3.857 3.857 0 0 0 3.888-3.883A3.857 3.857 0 0 0 275.889 66zm0 6.502a2.622 2.622 0 0 1-2.623-2.62 2.622 2.622 0 0 1 5.245 0c0 1.446-1.266 2.62-2.622 2.62z" fill="#FFA300"/><path d="M43.889 261A3.857 3.857 0 0 0 40 264.883a3.857 3.857 0 0 0 3.889 3.883 3.857 3.857 0 0 0 3.888-3.883A3.857 3.857 0 0 0 43.889 261zm0 6.502a2.622 2.622 0 0 1-2.623-2.62 2.622 2.622 0 0 1 5.245 0c0 1.446-1.266 2.62-2.622 2.62z" fill="#B3BAC7"/><path d="M115.35 243.365l-1.95-1.985c-.307-.314-.82-.314-1.026 0-.205.313-.308.836 0 1.044l1.95 1.985a.777.777 0 0 0 .514.21c.205 0 .41-.105.513-.21.308-.313.308-.835 0-1.044zm4.414 4.387c-.308-.313-.82-.313-1.026 0-.308.313-.308.836 0 1.045l1.95 1.984a.777.777 0 0 0 .513.21c.206 0 .41-.105.513-.21.308-.313.308-.835 0-1.044l-1.95-1.985zm-5.44 0l-1.95 1.985c-.308.313-.308.836 0 1.044a.777.777 0 0 0 .514.21c.205 0 .41-.105.513-.21l1.95-1.984c.308-.314.308-.836 0-1.045-.308-.313-.719-.313-1.027 0zm7.288-6.372c-.308-.314-.821-.314-1.027 0l-1.95 1.985c-.308.313-.308.835 0 1.044a.777.777 0 0 0 .513.21.776.776 0 0 0 .514-.21l1.95-1.985c.308-.313.308-.73 0-1.044z" fill="#FFA300"/></g><path d="M247.056 262.112A5.002 5.002 0 0 1 246 272a5 5 0 0 1-.888-9.921v-10.14a2.003 2.003 0 0 0-2.01-2.003H221.89A4.002 4.002 0 0 1 214 249a4 4 0 0 1 7.856-1.067h21.194a4.006 4.006 0 0 1 4.006 4v10.179zM246 270a3 3 0 1 0 0-6 3 3 0 0 0 0 6zM134.056 154.112A5.002 5.002 0 0 1 133 164a5 5 0 0 1-.888-9.921v-10.14a2.003 2.003 0 0 0-2.01-2.003H108.89A4.002 4.002 0 0 1 101 141a4 4 0 0 1 7.856-1.067h21.194a4.006 4.006 0 0 1 4.006 4v10.179zM133 162a3 3 0 1 0 0-6 3 3 0 0 0 0 6zm37.944 100.112A5.002 5.002 0 0 0 172 272a5 5 0 0 0 .888-9.921v-10.14c0-1.107.895-2.003 2.01-2.003h21.212A4.002 4.002 0 0 0 204 249a4 4 0 0 0-7.856-1.067H174.95a4.006 4.006 0 0 0-4.006 4v10.179zM172 270a3 3 0 1 1 0-6 3 3 0 0 1 0 6zM57.944 154.112A5.002 5.002 0 0 0 59 164a5 5 0 0 0 .888-9.921v-10.14c0-1.107.895-2.003 2.01-2.003H83.11A4.002 4.002 0 0 0 91 141a4 4 0 0 0-7.856-1.067H61.95a4.006 4.006 0 0 0-4.006 4v10.179zM59 162a3 3 0 1 1 0-6 3 3 0 0 1 0 6zM91.896 53.983h11.216c2.206 0 4 1.786 4 3.99v29.183A4.002 4.002 0 0 1 106 95a4 4 0 0 1-1.013-7.87V57.95a1.997 1.997 0 0 0-2.008-1.997h-11.07A5.002 5.002 0 0 1 82 55a5 5 0 0 1 9.896-1.017zM87 58a3 3 0 1 0 0-6 3 3 0 0 0 0 6zm116.896 100.983h11.216c2.206 0 4 1.786 4 3.99v29.183A4.002 4.002 0 0 1 218 200a4 4 0 0 1-1.013-7.87v-29.18a1.997 1.997 0 0 0-2.008-1.997h-11.07A5.002 5.002 0 0 1 194 160a5 5 0 0 1 9.896-1.017zM199 163a3 3 0 1 0 0-6 3 3 0 0 0 0 6zm64.876 15.924v33.008a4 4 0 0 1-3.997 4.006h-17.99A4.002 4.002 0 0 1 234 215a4 4 0 0 1 7.838-1.132h17.993a1.994 1.994 0 0 0 1.998-2.005v-33.001A5.002 5.002 0 0 1 263 169a5 5 0 0 1 .876 9.924zM263 171a3 3 0 1 0 0 6 3 3 0 0 0 0-6zM150.876 71.924v33.008a4 4 0 0 1-3.997 4.006h-17.99A4.002 4.002 0 0 1 121 108a4 4 0 0 1 7.838-1.132h17.993a1.994 1.994 0 0 0 1.998-2.005V71.862A5.002 5.002 0 0 1 150 62a5 5 0 0 1 .876 9.924zM150 64a3 3 0 1 0 0 6 3 3 0 0 0 0-6zm91.874 167H263.1a5.002 5.002 0 0 1 9.9 1 5 5 0 0 1-9.9 1h-21.226a4.002 4.002 0 0 1-7.874-1 4 4 0 0 1 7.874-1zM268 235a3 3 0 1 0 0-6 3 3 0 0 0 0 6zM128.874 124H150.1a5.002 5.002 0 0 1 9.9 1 5 5 0 0 1-9.9 1h-21.226a4.002 4.002 0 0 1-7.874-1 4 4 0 0 1 7.874-1zM155 128a3 3 0 1 0 0-6 3 3 0 0 0 0 6zm22.126 85H155.9a5.002 5.002 0 0 0-9.9 1 5 5 0 0 0 9.9 1h21.226a4.002 4.002 0 0 0 7.874-1 4 4 0 0 0-7.874-1zM151 217a3 3 0 1 1 0-6 3 3 0 0 1 0 6zM66.126 107H44.9a5.002 5.002 0 0 0-9.9 1 5 5 0 0 0 9.9 1h21.226A4.002 4.002 0 0 0 74 108a4 4 0 0 0-7.874-1zM40 111a3 3 0 1 1 0-6 3 3 0 0 1 0 6zm137.126 120H164.9a5.002 5.002 0 0 0-9.9 1 5 5 0 0 0 9.9 1h12.226a4.002 4.002 0 0 0 7.874-1 4 4 0 0 0-7.874-1zM160 235a3 3 0 1 1 0-6 3 3 0 0 1 0 6zM66.126 125H53.9a5.002 5.002 0 0 0-9.9 1 5 5 0 0 0 9.9 1h12.226A4.002 4.002 0 0 0 74 126a4 4 0 0 0-7.874-1zM49 129a3 3 0 1 1 0-6 3 3 0 0 1 0 6zm33.133-36.974H69.026c-1.669 0-3.67-1.17-4.49-2.613L39.05 44.562a5 5 0 1 1 1.523-1.064l25.761 44.756c.554.962 1.89 1.736 2.99 1.736H82.13A4.002 4.002 0 0 1 90 91a4 4 0 0 1-7.867 1.026zM37 43a3 3 0 1 0 0-6 3 3 0 0 0 0 6zm157.133 154.026h-13.107c-1.669 0-3.67-1.17-4.49-2.613l-25.486-44.851a5 5 0 1 1 1.523-1.064l25.761 44.756c.554.962 1.89 1.736 2.99 1.736h12.805A4.002 4.002 0 0 1 202 196a4 4 0 0 1-7.867 1.026zM149 148a3 3 0 1 0 0-6 3 3 0 0 0 0 6z" fill="#CCC"/><path d="M205.28 231.657l-6.605 5.708s-1.645-1.015-2.3-1.681c-.73-.744-1.856-2.55-1.856-2.55l5.47-6.563-8.564-.628s-.362-1.833-.362-2.929c0-1.095.362-2.948.362-2.948l8.565-.41-5.57-6.924s.526-1.479 1.587-2.558c1.06-1.08 2.556-1.659 2.556-1.659l6.717 5.996.447-9.166s1.517-.345 3.034-.345c1.516 0 2.945.345 2.945.345l.254 9.166 6.939-6.147s1.4.73 2.46 1.81c1.061 1.08 1.71 2.435 1.71 2.435l-5.747 7.046 8.774.369s.399 1.394.399 2.792-.399 3.194-.399 3.194l-9.095.56 5.86 6.805s-.643 1.421-1.502 2.41c-.858.989-2.563 1.753-2.563 1.753l-6.557-5.88-.56 8.974s-1.402.368-2.775.368-3.097-.368-3.097-.368l-.527-8.975zm-.993-8.633c.043 2.04.596 3.98.596 3.98s1.91.464 3.82.464c1.911 0 3.922-.464 3.922-.464s.403-1.985.444-3.979c.04-1.993-.278-4.094-.278-4.094s-2.044-.402-4.088-.402c-2.043 0-3.988.402-3.988.402s-.47 2.052-.428 4.093zM96.83 131.247c.426 2.84-3.525 4.196-5.075 1.905-.74-1.096-.774-2.11-1.336-3.898-1.979.556-3.05 1.373-4.541 1.178-2.25-.294-2.834-3.456-1.247-4.894.998-.905 2.478-.969 4.008-1.54 0 0-1.304-4.174-2.049-6.165-1.487.45-3.664 1.397-4.63 1.178-1.176-.465-1.98-1.429-1.96-2.718.042-2.632 2.98-2.824 4.899-3.626-.475-1.53-1.26-2.59-1.159-4.26.133-2.147 2.635-3.39 4.454-2.085.859.617 1.416 2.864 1.958 4.532l5.967-1.994c-.683-2.223-1.99-4.41-.357-6.073 1.223-1.245 3.382-.93 4.275.362.822 1.189.907 2.637 1.335 3.898 1.615-.562 3.651-1.608 5.17-1.083 1.249.431 1.85 2.11 1.51 3.168-.627 2.022-2.885 2.29-4.899 2.99l1.96 6.164c1.674-.558 2.522-1.277 4.096-1.268 1.606.01 2.613 1.187 2.761 2.356.382 3.033-2.982 3.307-5.076 4.079.644 2.119 1.191 2.574 1.158 4.26-.057 2.883-3.635 3.55-5.165 1.36-.555-.794-.694-2.067-1.248-3.717l-5.965 1.996s1.028 3.033 1.157 3.895zm.891-17.311l-5.788 2.084 1.96 6.073 5.966-1.993-2.138-6.164z" fill="#FFA300"/><path d="M217.131 130.184c2.484-8.182 1.807-17.332-2.67-25.406-8.771-15.81-28.67-21.537-44.461-12.78 15.79-8.757 35.69-3.03 44.462 12.78 4.475 8.072 5.153 17.224 2.67 25.406l-3.452-.994.825 10.205 6.08-8.218-3.454-.993zM79.336 181.093c-2.484 8.182-1.806 17.331 2.67 25.406 8.772 15.81 28.67 21.536 44.461 12.779-15.79 8.757-35.69 3.03-44.462-12.78-4.475-8.072-5.153-17.223-2.67-25.405l3.453.993-.826-10.204-6.08 8.217 3.454.994z" stroke="#B3BAC7" stroke-width="2" fill="#B3BAC7" stroke-linecap="round" stroke-linejoin="round"/></g></svg>