<?xml version="1.0" encoding="UTF-8" standalone="no"?>
<svg width="60px" height="60px" viewBox="0 0 60 60" version="1.1" xmlns="http://www.w3.org/2000/svg" xmlns:xlink="http://www.w3.org/1999/xlink">
    <!-- Generator: sketchtool 39.1 (31720) - http://www.bohemiancoding.com/sketch -->
    <title>CB01688D-3D10-4D24-A306-5AD2FF86FD26</title>
    <desc>Created with sketchtool.</desc>
    <defs></defs>
    <g id="Landing" stroke="none" stroke-width="1" fill="none" fill-rule="evenodd">
        <g id="Landing--Desktop" transform="translate(-970.000000, -659.000000)">
            <g id="features" transform="translate(0.000000, 541.000000)">
                <g id="03" transform="translate(887.000000, 118.000000)">
                    <g id="icon" transform="translate(83.000000, 0.000000)">
                        <rect id="Rectangle-5" fill-opacity="0" fill="#D8D8D8" x="0" y="0" width="60" height="60"></rect>
                        <g id="Group-3" transform="translate(9.000000, 8.000000)" stroke="#4F2C4B">
                            <path d="M5.18038868,22.1176126 L2.21052632,22.1176126 C2.21052632,11.0186227 11.0757871,1.99505368 21.9800579,1.99505368 L21.9800579,0.235457724 C21.9800579,0.0549863436 22.2016894,-0.0803671918 22.3346683,0.0549863436 L26.9889302,3.30347119 C27.1219091,3.39370688 27.1219091,3.57417826 26.9889302,3.7095318 L22.3346683,6.95801665 C22.2016894,7.04825234 21.9800579,6.95801665 21.9800579,6.77754527 L21.9800579,5.01794931 C12.7158604,5.01794931 5.18038868,12.687983 5.18038868,22.1176126 L5.18038868,22.1176126 Z M38.7797271,22.8676126 L41.7052632,22.8676126 C41.7052632,33.9666025 32.8400024,42.9901715 21.9357316,42.9901715 L21.9357316,44.7497675 C21.9357316,44.9302389 21.7141001,45.0655924 21.5811212,44.9302389 L16.9268592,41.681754 C16.7938803,41.5915183 16.7938803,41.4110469 16.9268592,41.2756934 L21.5811212,38.0272086 C21.7141001,37.9369729 21.9357316,38.0272086 21.9357316,38.2076799 L21.9357316,39.9672759 C31.2442554,39.9672759 38.7797271,32.2972422 38.7797271,22.8676126 L38.7797271,22.8676126 Z" id="Shape" stroke-width="1.5"></path>
                            <path d="M9.30130173,40.150956 C9.53604567,41.720112 7.35298237,42.4696297 6.49600997,41.2033263 C6.08673177,40.5978092 6.06844723,40.0379738 5.75797943,39.0493323 C4.66423146,39.3568846 4.07284663,39.8080616 3.24819539,39.700343 C2.00503134,39.5381073 1.68218915,37.7903605 2.5594777,36.9955371 C3.11096899,36.4958586 3.92875983,36.4604785 4.7741234,36.1443166 C4.7741234,36.1443166 4.05382332,33.8380503 3.64195943,32.7379304 C2.82026327,32.9868297 1.61680806,33.510007 1.08304724,33.3889412 C0.433484323,33.1319583 -0.0107007245,32.5991935 0.000196122808,31.8865219 C0.0232826637,30.4322281 1.64654353,30.3260135 2.70723156,29.8829202 C2.44496846,29.0369633 2.01057211,28.4515612 2.06708796,27.5287163 C2.14041081,26.3423089 3.52301757,25.6552039 4.52811322,26.3765231 C5.00295719,26.7171617 5.3108393,27.9590263 5.61041026,28.8809313 L8.90790707,27.7791195 C8.53058064,26.5506022 7.80824895,25.3418239 8.71065566,24.4227388 C9.38662958,23.7350699 10.5793726,23.9089611 11.0732399,24.6229486 C11.5272137,25.2799751 11.5741255,26.0802502 11.8110858,26.7769427 C12.7031497,26.4665705 13.8284801,25.8885 14.6682761,26.1785692 C15.3581019,26.4169411 15.6901787,27.3444857 15.5023466,27.9293239 C15.1558638,29.0465508 13.9082671,29.1952513 12.7953112,29.5819475 L13.8781623,32.9883336 C14.8031015,32.6798414 15.2720353,32.2822417 16.1419361,32.2873174 C17.0295675,32.2923932 17.5858608,32.9434039 17.6676795,33.589339 C17.8787828,35.2654614 16.0194851,35.4167937 14.8623877,35.8433439 C15.2181051,37.0143361 15.5206312,37.2660553 15.5025313,38.1975478 C15.4709489,39.7911424 13.4936329,40.1599796 12.6479267,38.9491334 C12.3415221,38.5105518 12.2643207,37.8069037 11.9586549,36.8953382 L8.6617122,37.9980899 C8.6617122,37.9980899 9.23001049,39.6742124 9.30130173,40.150956 Z M9.79332209,30.5839364 L6.59482036,31.7357536 L7.67730209,35.0919463 L10.9746142,33.9903225 L9.79332209,30.5839364 Z" id="Shape" stroke-width="1.2"></path>
                            <path d="M31.8525395,17.4054823 L32.1046108,21.6983355 C32.1046108,21.6983355 32.9293714,21.8743114 33.5861041,21.8743114 C34.2428368,21.8743114 34.9135033,21.6983355 34.9135033,21.6983355 L35.181119,17.4054823 L38.317715,20.2186137 C38.317715,20.2186137 39.1332252,19.8528452 39.5437227,19.3798958 C39.9542201,18.9069464 40.2622586,18.2269306 40.2622586,18.2269306 L37.4591561,14.9726024 L41.8095068,14.704213 C41.8095068,14.704213 42,13.8452788 42,13.1766709 C42,12.508063 41.8095067,11.8411865 41.8095067,11.8411865 L37.61236,11.6647276 L40.3615153,8.29426286 C40.3615153,8.29426286 40.0511792,7.64621728 39.5437233,7.12969965 C39.0362674,6.61318202 38.3667437,6.2638703 38.3667437,6.2638703 L35.0476639,9.20435749 L34.9263668,4.81980615 C34.9263668,4.81980615 34.2430659,4.65500696 33.5175943,4.65500696 C32.7921228,4.65500696 32.0663877,4.81980615 32.0663877,4.81980615 L31.8525395,9.20435763 L28.6398834,6.3363887 C28.6398834,6.3363887 27.9244422,6.61332539 27.4171272,7.12969965 C26.9098121,7.64607391 26.6583364,8.35332043 26.6583364,8.35332043 L29.3222616,11.6647276 L25.2256817,11.8615129 C25.2256817,11.8615129 25.0526316,12.7474425 25.0526316,13.271509 C25.0526316,13.7955755 25.2256817,14.6721534 25.2256817,14.6721534 L29.3222616,14.9726024 L26.7054149,18.112255 C26.7054149,18.112255 27.2441982,18.975822 27.5936818,19.3315465 C27.9068597,19.6503168 28.6933995,20.1357394 28.6933995,20.1357394 L31.8525395,17.4054823 Z M31.377926,13.2759114 C31.3575822,12.2999551 31.582325,11.3183512 31.582325,11.3183512 C31.582325,11.3183512 32.5126971,11.1262805 33.4902005,11.1262805 C34.4677039,11.1262805 35.4454314,11.3183512 35.4454314,11.3183512 C35.4454314,11.3183512 35.59787,12.3233503 35.5782208,13.276767 C35.5585717,14.2301837 35.3658519,15.1797089 35.3658519,15.1797089 C35.3658519,15.1797089 34.4040584,15.4015806 33.4902005,15.4015806 C32.5763426,15.4015806 31.6628151,15.1797089 31.6628151,15.1797089 C31.6628151,15.1797089 31.3982698,14.2518676 31.377926,13.2759114 Z" id="Combined-Shape" stroke-width="1.2"></path>
                        </g>
                    </g>
                </g>
            </g>
        </g>
    </g>
</svg>