<?xml version="1.0" encoding="UTF-8" standalone="no"?>
<svg width="60px" height="60px" viewBox="0 0 60 60" version="1.1" xmlns="http://www.w3.org/2000/svg" xmlns:xlink="http://www.w3.org/1999/xlink">
    <!-- Generator: sketchtool 39.1 (31720) - http://www.bohemiancoding.com/sketch -->
    <title>5A48BD3C-A994-4C0D-BD1B-16EA81AE3F3C</title>
    <desc>Created with sketchtool.</desc>
    <defs></defs>
    <g id="Landing" stroke="none" stroke-width="1" fill="none" fill-rule="evenodd">
        <g id="Landing--Desktop" transform="translate(-690.000000, -659.000000)">
            <g id="features" transform="translate(0.000000, 541.000000)">
                <g id="02" transform="translate(607.000000, 118.000000)">
                    <g id="icon" transform="translate(83.000000, 0.000000)">
                        <g id="Group-4">
                            <rect id="Rectangle-5" fill-opacity="0" fill="#D8D8D8" x="0" y="0" width="60" height="60"></rect>
                            <path d="M28.9377816,34.5416466 C29.3988311,34.8424485 30.1498122,34.8414312 30.6093353,34.5431453 L48.7031184,22.7980984 C49.1652425,22.4981242 49.1618399,22.0106267 48.7013404,21.7130049 L30.5691087,9.99410732 C30.1060027,9.69480095 29.3550331,9.6958099 28.8849854,10.0007634 L10.8968605,21.670943 C10.4298509,21.9739254 10.4276143,22.4650824 10.8860689,22.7641913 L28.9377816,34.5416466 Z M28.9575797,32.4574193 C29.4195066,32.7601614 30.1692671,32.7614691 30.63415,32.4590824 L45.4391958,22.8290267 C45.9032131,22.5272031 45.9039756,22.0389724 45.4389649,21.7372782 L30.6298505,12.1292752 C30.1657057,11.8281427 29.4159411,11.8268381 28.9532802,12.127612 L14.2189989,21.7063082 C13.7571995,22.0065221 13.7564412,22.4947498 14.2192298,22.7980567 L28.9575797,32.4574193 Z" id="Combined-Shape" fill="#0094DA"></path>
                            <path d="M11.6579881,27.9640762 C11.4753572,28.2452477 11.548361,28.6174192 11.8230413,28.7966462 L29.3654155,40.2429229 C29.6392027,40.4215671 30.0828238,40.4227428 30.3582713,40.2442525 L47.9496427,28.845028 C48.2241946,28.6671181 48.2955029,28.2890741 48.1190205,28.0162656 L47.8064411,27.5330766 C47.625434,27.2532737 47.2564356,27.1706331 46.9715525,27.3554398 L30.4068749,38.1011221 C30.1267857,38.2828189 29.6768589,38.2858165 29.3911983,38.1008657 L12.7813142,27.3468075 C12.5004607,27.164969 12.1250529,27.2450008 11.9421015,27.5266659 L11.6579881,27.9640762 Z" id="Path-8" fill="#0094DA"></path>
                            <path d="M11.6579881,33.528782 C11.4753572,33.8099536 11.548361,34.1821251 11.8230413,34.3613521 L29.3654155,45.8076287 C29.6392027,45.986273 30.0828238,45.9874486 30.3582713,45.8089584 L47.9496427,34.4097339 C48.2241946,34.231824 48.2955029,33.85378 48.1190205,33.5809715 L47.8064411,33.0977825 C47.625434,32.8179796 47.2564356,32.735339 46.9715525,32.9201457 L30.4068749,43.665828 C30.1267857,43.8475248 29.6768589,43.8505223 29.3911983,43.6655716 L12.7813142,32.9115134 C12.5004607,32.7296749 12.1250529,32.8097067 11.9421015,33.0913718 L11.6579881,33.528782 Z" id="Path-8-Copy" fill="#0094DA"></path>
                            <path d="M11.6579881,39.0934879 C11.4753572,39.3746594 11.548361,39.746831 11.8230413,39.926058 L29.3654155,51.3723346 C29.6392027,51.5509789 30.0828238,51.5521545 30.3582713,51.3736643 L47.9496427,39.9744397 C48.2241946,39.7965298 48.2955029,39.4184859 48.1190205,39.1456774 L47.8064411,38.6624884 C47.625434,38.3826855 47.2564356,38.3000449 46.9715525,38.4848516 L30.4068749,49.2305339 C30.1267857,49.4122307 29.6768589,49.4152282 29.3911983,49.2302774 L12.7813142,38.4762192 C12.5004607,38.2943808 12.1250529,38.3744126 11.9421015,38.6560777 L11.6579881,39.0934879 Z" id="Path-8-Copy-2" fill="#0094DA"></path>
                        </g>
                    </g>
                </g>
            </g>
        </g>
    </g>
</svg>