<svg width="31" height="27" viewBox="0 0 31 27" xmlns="http://www.w3.org/2000/svg"><title>logo_twitter</title><path d="M10.525 24.837c10.121 0 15.656-8.367 15.656-15.621 0-.238-.005-.475-.015-.71a11.176 11.176 0 0 0 2.744-2.843 10.96 10.96 0 0 1-3.16.864 5.512 5.512 0 0 0 2.42-3.036 11.051 11.051 0 0 1-3.494 1.332A5.502 5.502 0 0 0 20.66 3.09a5.497 5.497 0 0 0-5.36 6.741A15.637 15.637 0 0 1 3.956 4.094a5.483 5.483 0 0 0 1.704 7.33 5.471 5.471 0 0 1-2.492-.687v.07a5.495 5.495 0 0 0 4.414 5.382 5.521 5.521 0 0 1-2.485.094 5.507 5.507 0 0 0 5.14 3.813 11.055 11.055 0 0 1-6.834 2.35c-.444 0-.882-.025-1.313-.076a15.602 15.602 0 0 0 8.435 2.466" fill="#727272"/></svg>