<?xml version="1.0" encoding="UTF-8" standalone="no"?>
<svg width="31px" height="27px" viewBox="0 0 31 27" version="1.1" xmlns="http://www.w3.org/2000/svg" xmlns:xlink="http://www.w3.org/1999/xlink">
    <!-- Generator: Sketch 42 (36781) - http://www.bohemiancoding.com/sketch -->
    <title>logo_twitter</title>
    <desc>Created with Sketch.</desc>
    <defs></defs>
    <g id="Landing" stroke="none" stroke-width="1" fill="none" fill-rule="evenodd">
        <g id="Landing--Desktop-redesign-img_multiple" transform="translate(-1153.000000, -2940.000000)" fill-rule="nonzero" fill="#727272">
            <g id="footer" transform="translate(0.000000, 2914.000000)">
                <g id="logo_twitter" transform="translate(1153.000000, 27.000000)">
                    <path d="M10.5248,23.8365714 C20.6462,23.8365714 26.1812,15.4704653 26.1812,8.21567347 C26.1812,7.97804653 26.176349,7.74149714 26.165666,7.50601633 C27.240086,6.73105959 28.173926,5.76397551 28.910486,4.66307755 C27.924536,5.1003298 26.863526,5.39468082 25.750496,5.52740816 C26.886566,4.84771592 27.758756,3.77252653 28.170236,2.49077959 C27.107066,3.11962939 25.929686,3.57668163 24.676076,3.82344082 C23.671946,2.75630612 22.242386,2.08885306 20.659466,2.08885306 C17.620706,2.08885306 15.156506,4.5475551 15.156506,7.57825714 C15.156506,8.00908 15.204782,8.42813959 15.299192,8.83010204 C10.725842,8.60050286 6.670532,6.41584898 3.956492,3.09393878 C3.48392,3.90528082 3.211427,4.84774286 3.211427,5.85336735 C3.211427,7.75811837 4.182887,9.43963673 5.660147,10.423351 C4.757357,10.3955215 3.909287,10.1482612 3.168047,9.73669959 C3.167237,9.75973404 3.167237,9.7821911 3.167237,9.80680955 C3.167237,12.4656667 5.063987,14.6856014 7.581827,15.1886381 C7.119443,15.3144063 6.632957,15.381843 6.130847,15.381843 C5.776823,15.381843 5.431907,15.3470776 5.096657,15.282834 C5.797199,17.4642463 7.828607,19.0516585 10.237007,19.0960177 C8.353667,20.5688504 5.981177,21.4460667 3.402677,21.4460667 C2.959067,21.4460667 2.52083,21.4208915 2.090117,21.3700688 C4.525427,22.9274892 7.417127,23.8362239 10.525097,23.8362239"></path>
                </g>
            </g>
        </g>
    </g>
</svg>