<svg width="49" height="51" viewBox="0 0 49 51" xmlns="http://www.w3.org/2000/svg"><title>D1E225E8-FF3D-47CB-90BB-DF885CC0EC71</title><g fill="none" fill-rule="evenodd" opacity=".295"><g stroke="#FFF" fill="#40404D"><path d="M12.574 20.964c-.024.021-.024.043-.024.064.559 1.444-.85 2.823-1.433 3.34.777-1.314.923-2.65.485-3.943-.583-1.68-2.064-3.017-3.23-3.857-1.264-.905-2.381-1.4-2.406-1.4h-.073c-.024.02-.024.042 0 .064 1.822 3.124.56 4.223-1.214 5.753-1.36 1.142-3.061 2.63-3.571 5.56-.413 2.5.364 4.525 2.307 6.012 1.798 1.379 3.96 1.81 4.568 1.917.073-.021.097-.064.097-.086 0-.064-.049-.107-.073-.107-1.409-.302-3.693-1.164-3.79-3.384.365.216 1.652.906 2.721.927.024 0 .049-.021.049-.043 0-.022 0-.043-.025-.065-.024-.021-2.065-1.616-2.04-3.792.024-1.336.801-2.607 2.332-3.793.048.54.267 2.93 1.603 4.267 1.458 1.487 2.138 1.228 2.162 1.207 0 0 .996-.216 1.07-1.035.29.517.995 2.004.437 3.383-.413 1.013-1.41 1.767-2.94 2.263-.097.086-.097.15-.097.172.024.065.121.086.243.086 3.28-.452 6.608-3.06 6.608-7.154 0-4.266-3.644-6.335-3.693-6.356-.024-.022-.048 0-.073 0zm23.565 1.466c.024.02.024.042.024.064-.559 1.444.85 2.823 1.433 3.34-.777-1.314-.923-2.65-.486-3.943.583-1.681 2.065-3.017 3.231-3.857 1.264-.905 2.381-1.401 2.405-1.401h.073c.025.021.025.043 0 .065-1.822 3.124-.558 4.223 1.215 5.753 1.36 1.142 3.061 2.629 3.571 5.56.413 2.499-.364 4.524-2.308 6.011-1.797 1.38-3.96 1.81-4.567 1.918-.073-.021-.097-.065-.097-.086 0-.065.048-.108.073-.108 1.409-.302 3.692-1.163 3.79-3.383-.365.216-1.652.905-2.721.927-.025 0-.049-.022-.049-.043 0-.022 0-.044.024-.065.025-.022 2.065-1.616 2.041-3.793-.024-1.336-.802-2.607-2.332-3.792-.049.539-.267 2.93-1.604 4.266-1.457 1.487-2.137 1.229-2.162 1.207 0 0-.996-.215-1.069-1.034-.291.517-.996 2.004-.437 3.383.413 1.013 1.41 1.767 2.94 2.262.097.087.097.151.097.173-.024.065-.122.086-.243.086-3.28-.452-6.608-3.06-6.608-7.154 0-4.266 3.644-6.335 3.693-6.357.024-.021.048 0 .073 0z"/><path d="M17.986 10.854c.041.037.041.073.041.11-.955 2.454 1.454 4.799 2.45 5.678-1.328-2.235-1.578-4.506-.83-6.704.997-2.857 3.53-5.128 5.524-6.557C27.331 1.843 29.241 1 29.283 1h.125c.041.037.041.073 0 .11-3.115 5.312-.956 7.18 2.076 9.78 2.326 1.942 5.234 4.47 6.106 9.452.706 4.249-.623 7.692-3.946 10.22-3.073 2.344-6.77 3.077-7.808 3.26-.125-.036-.166-.11-.166-.146 0-.11.083-.184.124-.184 2.41-.512 6.313-1.978 6.48-5.75-.624.366-2.825 1.538-4.652 1.574-.042 0-.083-.036-.083-.073 0-.036 0-.073.041-.11.042-.036 3.53-2.747 3.489-6.447-.042-2.271-1.37-4.432-3.987-6.447-.083.916-.457 4.982-2.742 7.253-2.492 2.528-3.655 2.088-3.696 2.051 0 0-1.703-.366-1.828-1.758-.498.88-1.703 3.407-.747 5.751.706 1.722 2.409 3.004 5.025 3.847.167.146.167.256.167.293-.042.11-.208.146-.416.146-5.607-.77-11.297-5.202-11.297-12.162 0-7.253 6.23-10.77 6.313-10.806.042-.037.083 0 .125 0z"/></g><g transform="translate(1 19.233)"><path d="M40.567 9.684c-.892 0-1.733.205-2.487.561C35.823 4.41 30.084.262 23.356.262 16.63.262 10.89 4.41 8.633 10.245a5.805 5.805 0 0 0-2.487-.56c-3.18 0-5.758 2.534-5.758 5.66 0 3.126 2.578 5.66 5.758 5.66.88 0 1.712-.2 2.458-.547 1.429 2.79 4.294 4.128 7.94 4.73.598 3.166 3.422 5.572 6.812 5.572s6.215-2.406 6.813-5.572c3.646-.602 6.51-1.941 7.94-4.73a5.81 5.81 0 0 0 2.458.547c3.18 0 5.758-2.534 5.758-5.66 0-3.126-2.578-5.66-5.758-5.66zm-34.42 7.647c-1.098 0-1.988-.875-1.988-1.954 0-1.08.89-1.954 1.988-1.954 1.098 0 1.988.875 1.988 1.954 0 1.08-.89 1.954-1.988 1.954zm22.725 2.892h-.005l-1.427-.044.652 1.132a5.28 5.28 0 0 1 .707 2.632c0 2.95-2.441 5.351-5.443 5.351-3.001 0-5.443-2.4-5.443-5.351 0-.918.244-1.827.706-2.628l.64-1.113-1.3.02-.083.004c-3.043 0-5.518-2.433-5.518-5.425 0-2.99 2.475-5.424 5.518-5.424a5.51 5.51 0 0 1 4.914 2.966l.648 1.25.673-1.237a5.452 5.452 0 0 1 4.802-2.832c3.001 0 5.443 2.4 5.443 5.351 0 2.949-2.44 5.348-5.484 5.348zm11.895-2.892c-1.097 0-1.987-.875-1.987-1.954 0-1.08.89-1.954 1.987-1.954 1.098 0 1.988.875 1.988 1.954 0 1.08-.89 1.954-1.988 1.954z" stroke="#FFF" fill="#40404D"/><path d="M28.872 20.223h-.005l-1.427-.044.652 1.132a5.28 5.28 0 0 1 .707 2.632c0 2.95-2.441 5.351-5.443 5.351-3.001 0-5.443-2.4-5.443-5.351 0-.918.244-1.827.706-2.628l.64-1.113-1.3.02-.083.004c-3.043 0-5.518-2.433-5.518-5.425 0-2.99 2.475-5.424 5.518-5.424a5.51 5.51 0 0 1 4.914 2.966l.648 1.25.673-1.237a5.452 5.452 0 0 1 4.802-2.832c3.001 0 5.443 2.4 5.443 5.351 0 2.949-2.44 5.348-5.484 5.348z" stroke="#FFF" fill="#40404D"/><path d="M18.885 23.391s-.048-.43.38-.43c.429 0 .429.43.429.43s-.087 1.379 1.02 2.545c1.107 1.167 2.625 1.134 2.625 1.134s1.584.02 2.662-1.134c1.078-1.153 1.017-2.545 1.017-2.545s0-.43.399-.43c.398 0 .407.43.407.43s.148 1.802-1.193 3.156c-1.34 1.355-3.292 1.359-3.292 1.359s-1.888 0-3.198-1.359c-1.31-1.358-1.256-3.156-1.256-3.156z" fill="#FFF"/><ellipse fill="#FFF" cx="23.356" cy="18.32" rx="1.491" ry=".733"/><ellipse fill="#FFF" cx="20.03" cy="15.499" rx="1.008" ry=".991"/><ellipse fill="#FFF" cx="26.682" cy="15.499" rx="1.008" ry=".991"/><path d="M6.147 17.331c-1.098 0-1.988-.875-1.988-1.954 0-1.08.89-1.954 1.988-1.954 1.098 0 1.988.875 1.988 1.954 0 1.08-.89 1.954-1.988 1.954zm34.62 0c-1.097 0-1.987-.875-1.987-1.954 0-1.08.89-1.954 1.987-1.954 1.098 0 1.988.875 1.988 1.954 0 1.08-.89 1.954-1.988 1.954z" stroke="#FFF" fill="#40404D"/></g></g></svg>