<?xml version="1.0" encoding="UTF-8" standalone="no"?>
<svg width="141px" height="60px" viewBox="0 0 141 60" version="1.1" xmlns="http://www.w3.org/2000/svg" xmlns:xlink="http://www.w3.org/1999/xlink">
    <!-- Generator: sketchtool 39.1 (31720) - http://www.bohemiancoding.com/sketch -->
    <title>51D1AC71-0DF7-430B-8EE4-3DE963FAC602</title>
    <desc>Created with sketchtool.</desc>
    <defs></defs>
    <g id="Landing" stroke="none" stroke-width="1" fill="none" fill-rule="evenodd">
        <g id="Landing--Desktop" transform="translate(-238.000000, -5.000000)">
            <g id="Nav-bar">
                <g id="Logo" transform="translate(238.000000, 5.000000)">
                    <text id="Simian-CI" font-family="SourceSansPro-Semibold, Source Sans Pro" font-size="16" font-weight="500">
                        <tspan x="68" y="37" fill="#40404D">Simian </tspan>
                        <tspan x="119.152" y="37" fill="#F89F00">CI</tspan>
                    </text>
                    <g id="logo-" transform="translate(9.000000, 5.000000)">
                        <g id="flames">
                            <g id="flame-copy-6" transform="translate(8.000000, 24.167331) rotate(-360.000000) translate(-8.000000, -24.167331) translate(0.000000, 14.167331)">
                                <path d="M7.77111616,19.3613065 C8.05764883,19.3613065 8.54945101,19.3418635 8.82502561,19.3009131 C11.6731001,18.8776886 13.6518855,16.3368016 13.6518855,13.1503736 C13.6518855,10.5303087 11.4976606,9.06607168 9.38823814,8.10485063 C8.6840335,7.78395884 8.58400198,6.82258499 7.77111616,6.82258499 C4.52325694,6.82258499 1.89034683,9.65563243 1.89034683,13.1503736 C1.89034683,16.6451147 4.52325694,19.3613065 7.77111616,19.3613065 Z" id="Oval-3" fill="#FFD000"></path>
                                <path d="M11.5742256,5.79645188 C11.5499319,5.81800003 11.5499319,5.83954818 11.5499319,5.86109632 C12.1086874,7.30482226 10.6996517,8.68390375 10.1166024,9.2010593 C10.8940014,7.88662226 11.0397637,6.55063707 10.6024768,5.25774817 C10.0194275,3.57699261 8.53751057,2.24100742 7.37141201,1.40062964 C6.10813856,0.49560741 4.99062743,0 4.96633371,0 L4.89345255,0 C4.86915883,0.0215481483 4.86915883,0.0430962965 4.89345255,0.0646444448 C6.71548156,3.18912594 5.45220811,4.2880815 3.67876654,5.81800003 C2.31831821,6.96005189 0.617757801,8.44687411 0.107589678,11.3774223 C-0.305403565,13.8770075 0.47199548,15.9025334 2.41549309,17.3893556 C4.21322838,18.7684371 6.37536948,19.1994001 6.98271248,19.3071408 C7.05559364,19.2855927 7.07988736,19.2424964 7.07988736,19.2209482 C7.07988736,19.1563038 7.03129992,19.1132075 7.0070062,19.1132075 C5.59797043,18.8115334 3.31436074,17.9496075 3.21718586,15.7301482 C3.58159166,15.9456297 4.86915883,16.6351705 5.93808252,16.6567186 C5.96237624,16.6567186 5.98666996,16.6351705 5.98666996,16.6136223 C5.98666996,16.5920742 5.98666996,16.570526 5.96237624,16.5489779 C5.93808252,16.5274297 3.89741002,14.9328667 3.92170374,12.7565038 C3.94599746,11.4205186 4.72339651,10.1491778 6.25390088,8.96402967 C6.30248832,9.50273338 6.5211318,11.8945778 7.85728641,13.230563 C9.31490962,14.7173853 9.99513378,14.4588075 10.0194275,14.4372593 C10.0194275,14.4372593 11.01547,14.2217778 11.0883512,13.4029482 C11.3798758,13.9201038 12.0843937,15.406926 11.5256382,16.7860075 C11.1126449,17.7987705 10.1166024,18.5529556 8.58609801,19.0485631 C8.48892313,19.1347556 8.48892313,19.1994001 8.48892313,19.2209482 C8.51321685,19.2855927 8.61039173,19.3071408 8.73186033,19.3071408 C12.0115126,18.8546297 15.3397522,16.2473038 15.3397522,12.1531556 C15.3397522,7.88662226 11.6956942,5.81800003 11.6471068,5.79645188 C11.622813,5.77490373 11.5985193,5.79645188 11.5742256,5.79645188 Z" id="Shape" fill="#F89F00"></path>
                            </g>
                            <g id="flame-copy-7" transform="translate(38.712739, 25.632917) scale(-1, 1) rotate(-360.000000) translate(-38.712739, -25.632917) translate(30.712739, 15.632917)">
                                <path d="M7.77111616,19.3613065 C8.05764883,19.3613065 8.54945101,19.3418635 8.82502561,19.3009131 C11.6731001,18.8776886 13.6518855,16.3368016 13.6518855,13.1503736 C13.6518855,10.5303087 11.4976606,9.06607168 9.38823814,8.10485063 C8.6840335,7.78395884 8.58400198,6.82258499 7.77111616,6.82258499 C4.52325694,6.82258499 1.89034683,9.65563243 1.89034683,13.1503736 C1.89034683,16.6451147 4.52325694,19.3613065 7.77111616,19.3613065 Z" id="Oval-3" fill="#FFD000"></path>
                                <path d="M11.5742256,5.79645188 C11.5499319,5.81800003 11.5499319,5.83954818 11.5499319,5.86109632 C12.1086874,7.30482226 10.6996517,8.68390375 10.1166024,9.2010593 C10.8940014,7.88662226 11.0397637,6.55063707 10.6024768,5.25774817 C10.0194275,3.57699261 8.53751057,2.24100742 7.37141201,1.40062964 C6.10813856,0.49560741 4.99062743,0 4.96633371,0 L4.89345255,0 C4.86915883,0.0215481483 4.86915883,0.0430962965 4.89345255,0.0646444448 C6.71548156,3.18912594 5.45220811,4.2880815 3.67876654,5.81800003 C2.31831821,6.96005189 0.617757801,8.44687411 0.107589678,11.3774223 C-0.305403565,13.8770075 0.47199548,15.9025334 2.41549309,17.3893556 C4.21322838,18.7684371 6.37536948,19.1994001 6.98271248,19.3071408 C7.05559364,19.2855927 7.07988736,19.2424964 7.07988736,19.2209482 C7.07988736,19.1563038 7.03129992,19.1132075 7.0070062,19.1132075 C5.59797043,18.8115334 3.31436074,17.9496075 3.21718586,15.7301482 C3.58159166,15.9456297 4.86915883,16.6351705 5.93808252,16.6567186 C5.96237624,16.6567186 5.98666996,16.6351705 5.98666996,16.6136223 C5.98666996,16.5920742 5.98666996,16.570526 5.96237624,16.5489779 C5.93808252,16.5274297 3.89741002,14.9328667 3.92170374,12.7565038 C3.94599746,11.4205186 4.72339651,10.1491778 6.25390088,8.96402967 C6.30248832,9.50273338 6.5211318,11.8945778 7.85728641,13.230563 C9.31490962,14.7173853 9.99513378,14.4588075 10.0194275,14.4372593 C10.0194275,14.4372593 11.01547,14.2217778 11.0883512,13.4029482 C11.3798758,13.9201038 12.0843937,15.406926 11.5256382,16.7860075 C11.1126449,17.7987705 10.1166024,18.5529556 8.58609801,19.0485631 C8.48892313,19.1347556 8.48892313,19.1994001 8.48892313,19.2209482 C8.51321685,19.2855927 8.61039173,19.3071408 8.73186033,19.3071408 C12.0115126,18.8546297 15.3397522,16.2473038 15.3397522,12.1531556 C15.3397522,7.88662226 11.6956942,5.81800003 11.6471068,5.79645188 C11.622813,5.77490373 11.5985193,5.79645188 11.5742256,5.79645188 Z" id="Shape" fill="#F89F00"></path>
                            </g>
                            <g id="flame-copy-8" transform="translate(23.273858, 16.500000) scale(-1, 1) rotate(-360.000000) translate(-23.273858, -16.500000) translate(9.773858, 0.000000)">
                                <path d="M13.2861018,32.9142211 C13.7759803,32.9142211 14.6168033,32.881168 15.087947,32.8115522 C19.9572357,32.0920707 23.3403204,27.7725628 23.3403204,22.3556351 C23.3403204,17.9015249 19.6572906,15.4123218 16.0508588,13.7782461 C14.846896,13.23273 14.6758744,11.5983945 13.2861018,11.5983945 C7.73331025,11.5983945 3.23188328,16.4145751 3.23188328,22.3556351 C3.23188328,28.296695 7.73331025,32.9142211 13.2861018,32.9142211 Z" id="Oval-3" fill="#FFD000"></path>
                                <path d="M19.7881921,9.8539682 C19.7466577,9.89060005 19.7466577,9.9272319 19.7466577,9.96386375 C20.7019495,12.4181978 18.2929529,14.7626364 17.2961267,15.6418008 C18.6252282,13.4072578 18.8744348,11.136083 18.1268152,8.9381719 C17.129989,6.08088744 14.596389,3.80971261 12.6027367,2.38107038 C10.4429466,0.842532597 8.53236303,-1.03028697e-13 8.4908286,-1.03028697e-13 L8.36622533,-1.03028697e-13 C8.3246909,0.036631852 8.3246909,0.0732637041 8.36622533,0.109895556 C11.4813072,5.4215141 9.3215171,7.28973855 6.28950409,9.89060005 C3.9635763,11.8320882 1.05616656,14.359686 0.183943643,19.3416179 C-0.522141578,23.5909127 0.806960015,27.0343068 4.129714,29.5619046 C7.20326143,31.9063431 10.8998252,32.6389802 11.9381859,32.8221394 C12.0627891,32.7855076 12.1043236,32.7122439 12.1043236,32.675612 C12.1043236,32.5657165 12.0212547,32.4924527 11.9797203,32.4924527 C9.57072365,31.9796068 5.66648772,30.5143327 5.50035002,26.741252 C6.12336639,27.1075705 8.3246909,28.2797898 10.1522056,28.3164216 C10.19374,28.3164216 10.2352744,28.2797898 10.2352744,28.2431579 C10.2352744,28.2065261 10.2352744,28.1698942 10.19374,28.1332624 C10.1522056,28.0966305 6.66331391,25.3858735 6.70484833,21.6860564 C6.74638276,19.4148816 8.07548435,17.2536023 10.6921531,15.2388504 C10.775222,16.1546467 11.1490318,20.2207823 13.4334252,22.4919571 C15.9254906,25.0195549 17.0884545,24.5799727 17.129989,24.5433409 C17.129989,24.5433409 18.8329004,24.1770223 18.9575036,22.785012 C19.4559167,23.6641764 20.6604151,26.1917742 19.7051233,28.5362127 C18.9990381,30.2579098 17.2961267,31.5400246 14.6794579,32.3825572 C14.5133202,32.5290846 14.5133202,32.6389802 14.5133202,32.675612 C14.5548546,32.7855076 14.7209923,32.8221394 14.9286644,32.8221394 C20.5358118,32.0528705 26.226028,27.6204164 26.226028,20.6603645 C26.226028,13.4072578 19.9958643,9.89060005 19.9127954,9.8539682 C19.871261,9.81733634 19.8297266,9.8539682 19.7881921,9.8539682 Z" id="Shape" fill="#F89F00"></path>
                            </g>
                        </g>
                        <g id="monkey02-copy-3" transform="translate(0.000000, 18.232558)">
                            <path d="M40.567032,9.68410371 C39.6750174,9.68410371 38.8336912,9.88928575 38.0798271,10.2454231 C35.8232042,4.40994825 30.0839977,0.261851364 23.3563694,0.261851364 C16.6287411,0.261851364 10.8895345,4.41043678 8.63291168,10.2454231 C7.87904759,9.88928575 7.03772134,9.68410371 6.14570681,9.68410371 C2.96576197,9.68410371 0.387616343,12.2185904 0.387616343,15.3446853 C0.387616343,18.4707803 2.96576197,21.005267 6.14570681,21.005267 C7.02629163,21.005267 7.85767899,20.8049702 8.60408892,20.4576263 C10.032803,23.247125 12.8981823,24.5861821 16.5437637,25.1880494 C17.1415873,28.3537151 19.9662172,30.7597188 23.3563694,30.7597188 C26.7465215,30.7597188 29.5711514,28.3537151 30.1689751,25.1880494 C33.8145565,24.5861821 36.6799358,23.2466365 38.1086498,20.4576263 C38.8550598,20.8049702 39.6864471,21.005267 40.567032,21.005267 C43.7469768,21.005267 46.3251224,18.4707803 46.3251224,15.3446853 C46.3251224,12.2185904 43.7469768,9.68410371 40.567032,9.68410371 L40.567032,9.68410371 Z M6.14719764,17.3310429 C5.04944828,17.3310429 4.15942153,16.4560881 4.15942153,15.3769282 C4.15942153,14.2977684 5.04944828,13.4228136 6.14719764,13.4228136 C7.244947,13.4228136 8.13497376,14.2977684 8.13497376,15.3769282 C8.13497376,16.4560881 7.244947,17.3310429 6.14719764,17.3310429 L6.14719764,17.3310429 Z M28.8724481,20.2231326 L28.8674787,20.2231326 L27.4397585,20.179165 L28.092246,21.3110859 C28.5549009,22.114227 28.7993973,23.0238674 28.7993973,23.9427898 C28.7993973,26.893503 26.3579113,29.2941328 23.3563694,29.2941328 C20.3548274,29.2941328 17.9133414,26.893503 17.9133414,23.9427898 C17.9133414,23.025333 18.156844,22.1161812 18.618505,21.3145056 L19.2585689,20.2016373 L17.9580664,20.2211785 L17.8755737,20.2260638 C14.8327854,20.2260638 12.3575072,17.7927025 12.3575072,14.8014415 C12.3575072,11.8101805 14.8327854,9.37681918 17.8755737,9.37681918 C19.9567753,9.37681918 21.8401931,10.5136254 22.7898532,12.3431652 L23.4383651,13.592333 L24.1112274,12.355867 C25.0618813,10.6088885 26.9015681,9.52386631 28.9127006,9.52386631 C31.9142425,9.52386631 34.3562255,11.9244962 34.3562255,14.8752093 C34.3557285,17.8239683 31.9167272,20.2231326 28.8724481,20.2231326 L28.8724481,20.2231326 Z M40.7673004,17.3310429 C39.669551,17.3310429 38.7795243,16.4560881 38.7795243,15.3769282 C38.7795243,14.2977684 39.669551,13.4228136 40.7673004,13.4228136 C41.8650498,13.4228136 42.7550765,14.2977684 42.7550765,15.3769282 C42.7550765,16.4560881 41.8650498,17.3310429 40.7673004,17.3310429 L40.7673004,17.3310429 Z" id="Shape" fill="#40404D"></path>
                            <path d="M28.8724481,20.2231326 L28.8674787,20.2231326 L27.4397585,20.179165 L28.092246,21.3110859 C28.5549009,22.114227 28.7993973,23.0238674 28.7993973,23.9427898 C28.7993973,26.893503 26.3579113,29.2941328 23.3563694,29.2941328 C20.3548274,29.2941328 17.9133414,26.893503 17.9133414,23.9427898 C17.9133414,23.025333 18.156844,22.1161812 18.618505,21.3145056 L19.2585689,20.2016373 L17.9580664,20.2211785 L17.8755737,20.2260638 C14.8327854,20.2260638 12.3575072,17.7927025 12.3575072,14.8014415 C12.3575072,11.8101805 14.8327854,9.37681918 17.8755737,9.37681918 C19.9567753,9.37681918 21.8401931,10.5136254 22.7898532,12.3431652 L23.4383651,13.592333 L24.1112274,12.355867 C25.0618813,10.6088885 26.9015681,9.52386631 28.9127006,9.52386631 C31.9142425,9.52386631 34.3562255,11.9244962 34.3562255,14.8752093 C34.3557285,17.8239683 31.9167272,20.2231326 28.8724481,20.2231326 L28.8724481,20.2231326 Z" id="Path" fill="#A6A7AB"></path>
                            <ellipse id="Oval-2" fill="#40404D" cx="23.3563694" cy="18.3198249" rx="1.49083209" ry="0.732792996"></ellipse>
                            <ellipse id="Oval" fill="#000000" cx="20.030323" cy="15.4990604" rx="1.00780249" ry="0.990736131"></ellipse>
                            <ellipse id="Oval" fill="#000000" cx="26.6824158" cy="15.4990604" rx="1.00780249" ry="0.990736131"></ellipse>
                            <path d="M6.14719764,17.3310429 C5.04944828,17.3310429 4.15942153,16.4560881 4.15942153,15.3769282 C4.15942153,14.2977684 5.04944828,13.4228136 6.14719764,13.4228136 C7.244947,13.4228136 8.13497376,14.2977684 8.13497376,15.3769282 C8.13497376,16.4560881 7.244947,17.3310429 6.14719764,17.3310429 L6.14719764,17.3310429 Z" id="Path" fill="#A6A7AB"></path>
                            <path d="M40.7673004,17.3310429 C39.669551,17.3310429 38.7795243,16.4560881 38.7795243,15.3769282 C38.7795243,14.2977684 39.669551,13.4228136 40.7673004,13.4228136 C41.8650498,13.4228136 42.7550765,14.2977684 42.7550765,15.3769282 C42.7550765,16.4560881 41.8650498,17.3310429 40.7673004,17.3310429 L40.7673004,17.3310429 Z" id="Path" fill="#A6A7AB"></path>
                            <path d="M18.8854828,23.3911475 C18.8854828,23.3911475 18.8374876,22.9608472 19.265649,22.9608472 C19.6938104,22.9608472 19.6938104,23.3911475 19.6938104,23.3911475 C19.6938104,23.3911475 19.6066442,24.7696243 20.7139409,25.936282 C21.8212377,27.1029397 23.3393629,27.0698492 23.3393629,27.0698492 C23.3393629,27.0698492 24.922671,27.0899181 26.0006313,25.936282 C27.0785916,24.7826459 27.0178356,23.3911475 27.0178356,23.3911475 C27.0178356,23.3911475 27.0178359,22.9608472 27.416629,22.9608472 C27.8154221,22.9608472 27.8240055,23.3911475 27.8240055,23.3911475 C27.8240055,23.3911475 27.9722365,25.1928732 26.6314584,26.5472376 C25.2906803,27.901602 23.339363,27.9058705 23.339363,27.9058705 C23.339363,27.9058705 21.4513493,27.9058705 20.1409408,26.5472376 C18.8305324,25.1886048 18.8854828,23.3911475 18.8854828,23.3911475 Z" id="Rectangle" fill="#40404D"></path>
                        </g>
                    </g>
                </g>
            </g>
        </g>
    </g>
</svg>