<?xml version="1.0" encoding="UTF-8" standalone="no"?>
<svg width="47px" height="50px" viewBox="0 0 47 50" version="1.1" xmlns="http://www.w3.org/2000/svg" xmlns:xlink="http://www.w3.org/1999/xlink">
    <!-- Generator: Sketch 43.2 (39069) - http://www.bohemiancoding.com/sketch -->
    <title>Artboard 2</title>
    <desc>Created with Sketch.</desc>
    <defs>
        <polygon id="path-1" points="0.374156863 0.251076923 46.6000392 0.251076923 46.6000392 31.3753846 0.374156863 31.3753846"></polygon>
    </defs>
    <g id="Landing" stroke="none" stroke-width="1" fill="none" fill-rule="evenodd">
        <g id="Artboard-2">
            <g id="logo_simianci_grey" transform="translate(0.000000, 1.000000)">
                <g id="Group" transform="translate(0.921569, 0.000000)" fill-rule="nonzero" fill="#727272">
                    <path d="M11.1823137,19.1649231 C11.1592745,19.1861538 11.1592745,19.2064615 11.1592745,19.2276923 C11.6993137,20.6132308 10.3372353,21.9369231 9.77415686,22.4335385 C10.5252353,21.1716923 10.6662353,19.8895385 10.2441569,18.6489231 C9.68015686,17.0344615 8.24896078,15.7523077 7.12188235,14.9455385 C5.90172549,14.076 4.82164706,13.6006154 4.79860784,13.6006154 L4.72764706,13.6006154 C4.70460784,13.6209231 4.70460784,13.6421538 4.72764706,13.6624615 C6.48784314,16.6624615 5.26768627,17.7175385 3.5544902,19.1861538 C2.23941176,20.2818462 0.596254902,21.7098462 0.104137255,24.5233846 C-0.294901961,26.9233846 0.456176471,28.8673846 2.33433333,30.2944615 C4.07056863,31.6181538 6.15884314,32.0316923 6.74680392,32.1350769 C6.81684314,32.1147692 6.83988235,32.0732308 6.83988235,32.052 C6.83988235,31.9910769 6.79380392,31.9495385 6.76984314,31.9495385 C5.40868627,31.6596923 3.20245098,30.8326154 3.10845098,28.7012308 C3.4604902,28.908 4.70460784,29.5707692 5.73676471,29.5910769 C5.76072549,29.5910769 5.78376471,29.5707692 5.78376471,29.5495385 C5.78376471,29.5292308 5.78376471,29.508 5.76072549,29.4876923 C5.73676471,29.4673846 3.76552941,27.9369231 3.78856863,25.8470769 C3.81252941,24.564 4.56268627,23.3436923 6.04272549,22.2064615 C6.08880392,22.7233846 6.30076471,25.0190769 7.59096078,26.3021538 C9.00003922,27.7292308 9.65711765,27.4809231 9.68015686,27.4606154 C9.68015686,27.4606154 10.6422745,27.2538462 10.7123137,26.4673846 C10.9952353,26.964 11.6753529,28.3910769 11.1362353,29.7147692 C10.7362745,30.6876923 9.77415686,31.4113846 8.29596078,31.8876923 C8.20196078,31.9707692 8.20196078,32.0316923 8.20196078,32.0529231 C8.225,32.1147692 8.319,32.136 8.43603922,32.136 C11.6053137,31.7012308 14.8206667,29.1978462 14.8206667,25.2683077 C14.8206667,21.1716923 11.3002745,19.1852308 11.2532745,19.1649231 C11.2293137,19.1446154 11.2062745,19.1649231 11.1823137,19.1649231 L11.1823137,19.1649231 Z M33.9496667,20.5726154 C33.9727059,20.5929231 33.9727059,20.6132308 33.9727059,20.6344615 C33.4326667,22.02 34.7947451,23.3436923 35.3578235,23.8403077 C34.6067451,22.5784615 34.4657451,21.2963077 34.8878235,20.0556923 C35.4518235,18.4412308 36.8830196,17.1590769 38.010098,16.3523077 C39.2302549,15.4836923 40.3103333,15.0073846 40.3333725,15.0073846 L40.4043333,15.0073846 C40.4273725,15.0286154 40.4273725,15.0489231 40.4043333,15.0692308 C38.6441373,18.0692308 39.8642941,19.1243077 41.5774902,20.5929231 C42.8925686,21.6895385 44.5357255,23.1166154 45.0278431,25.9301538 C45.4268824,28.3301538 44.6758039,30.2741538 42.7976471,31.7012308 C41.0614118,33.0249231 38.9731373,33.4393846 38.3851765,33.5427692 C38.3151373,33.5215385 38.292098,33.48 38.292098,33.4596923 C38.292098,33.3978462 38.3381765,33.3563077 38.3621373,33.3563077 C39.7232941,33.0664615 41.9295294,32.2393846 42.0235294,30.1089231 C41.6714902,30.3156923 40.4273725,30.9766154 39.3952157,30.9978462 C39.3712549,30.9978462 39.3482157,30.9775385 39.3482157,30.9563077 C39.3482157,30.936 39.3482157,30.9156923 39.3712549,30.8944615 C39.3952157,30.8741538 41.366451,29.3436923 41.3434118,27.2538462 C41.319451,25.9707692 40.5692941,24.7504615 39.0901765,23.6132308 C39.0431765,24.1301538 38.8321373,26.4267692 37.5410196,27.7089231 C36.1319412,29.136 35.4748627,28.8876923 35.4518235,28.8673846 C35.4518235,28.8673846 34.4897059,28.6606154 34.4196667,27.8741538 C34.1376667,28.3707692 33.4566275,29.7978462 33.9957451,31.1224615 C34.3957059,32.0944615 35.3578235,32.8181538 36.8360196,33.2944615 C36.9300196,33.3775385 36.9300196,33.4393846 36.9300196,33.4596923 C36.9069804,33.5215385 36.8129804,33.5427692 36.6959412,33.5427692 C33.5266667,33.108 30.3113137,30.6046154 30.3113137,26.6750769 C30.3113137,22.5784615 33.8317059,20.5929231 33.8787059,20.5726154 C33.9026667,20.5513846 33.9257059,20.5726154 33.9496667,20.5726154 L33.9496667,20.5726154 Z" id="Shape"></path>
                    <path d="M16.4112941,9.45969231 C16.4509216,9.49476923 16.4509216,9.52984615 16.4509216,9.56492308 C15.5284314,11.9215385 17.8553922,14.172 18.8193529,15.0156923 C17.5346863,12.8713846 17.2941569,10.6910769 18.0157451,8.58092308 C18.9787843,5.83753846 21.4273922,3.65723077 23.3534706,2.28553846 C25.439902,0.808615385 27.2858039,0 27.3245098,0 L27.4452353,0 C27.4857843,0.0350769231 27.4857843,0.0701538462 27.4452353,0.105230769 C24.4353922,5.20430769 26.5227451,6.99784615 29.4514902,9.49476923 C31.6991961,11.3593846 34.5081373,13.7852308 35.350451,18.5686154 C36.0324118,22.6476923 34.7486667,25.9532308 31.5388431,28.3790769 C28.5686275,30.6304615 24.997549,31.3329231 23.9939608,31.5092308 C23.8741569,31.4741538 23.8336078,31.404 23.8336078,31.3689231 C23.8336078,31.2627692 23.9137843,31.1935385 23.9534118,31.1935385 C26.2812941,30.7006154 30.0541961,29.2938462 30.214549,25.6716923 C29.6127647,26.0224615 27.4857843,27.1486154 25.7200588,27.1836923 C25.6795098,27.1836923 25.6398824,27.1486154 25.6398824,27.1135385 C25.6398824,27.0784615 25.6398824,27.0433846 25.6795098,27.0083077 C25.7200588,26.9723077 29.0911569,24.3701538 29.0506078,20.8181538 C29.0100588,18.6378462 27.7263137,16.5627692 25.198451,14.6289231 C25.1182745,15.5086154 24.756098,19.4123077 22.5498627,21.5926154 C20.1418039,24.0184615 19.0184118,23.5966154 18.9778627,23.5615385 C18.9778627,23.5615385 17.3328627,23.2107692 17.2121373,21.8732308 C16.7310784,22.7178462 15.5671373,25.1436923 16.490549,27.3950769 C17.1725098,29.0473846 18.8175098,30.2787692 21.3453725,31.0873846 C21.5066471,31.2276923 21.5066471,31.3338462 21.5066471,31.3689231 C21.466098,31.4741538 21.3057451,31.5092308 21.1048431,31.5092308 C15.6878627,30.7707692 10.1897843,26.5153846 10.1897843,19.8341538 C10.1897843,12.8713846 16.2094706,9.49569231 16.2896471,9.45969231 C16.3292745,9.42461538 16.3698235,9.45969231 16.409451,9.45969231 L16.4112941,9.45969231 Z" id="Shape"></path>
                </g>
                <g id="Group" transform="translate(0.000000, 16.580308)">
                    <g id="a-link" transform="translate(0.921569, 0.923077)" fill-rule="nonzero" fill="#727272">
                        <path d="M39.1943137,9.29630769 C38.3326471,9.29630769 37.5198235,9.49384615 36.7908627,9.83538462 C34.6113529,4.23323077 29.0662745,0.251076923 22.566451,0.251076923 C16.0657059,0.251076923 10.521549,4.23415385 8.34111765,9.83538462 C7.5893314,9.48073311 6.7686597,9.2966623 5.93766667,9.29630769 C2.86515686,9.29630769 0.374156863,11.7295385 0.374156863,14.7304615 C0.374156863,17.7323077 2.86515686,20.1646154 5.93766667,20.1646154 C6.78827451,20.1646154 7.59188235,19.9726154 8.31254902,19.6384615 C9.69305882,22.3172308 12.461451,23.6030769 15.9836863,24.18 C16.5615098,27.2196923 19.2902745,29.5292308 22.566451,29.5292308 C25.8417059,29.5292308 28.5704706,27.2196923 29.1482941,24.1809231 C32.6705294,23.6030769 35.4389216,22.3163077 36.8194314,19.6393846 C37.540098,19.9726154 38.3437059,20.1655385 39.1943137,20.1655385 C42.2668235,20.1655385 44.7578235,17.7323077 44.7578235,14.7304615 C44.7578235,11.7304615 42.2668235,9.29630769 39.1943137,9.29630769 L39.1943137,9.29630769 Z M5.9395098,16.6375385 C4.87878431,16.6375385 4.01896078,15.7975385 4.01896078,14.7618462 C4.01896078,13.7261538 4.87878431,12.8861538 5.9395098,12.8861538 C6.99931373,12.8861538 7.86005882,13.7261538 7.86005882,14.7618462 C7.86005882,15.7975385 7.00023529,16.6375385 5.9395098,16.6375385 Z M27.8958824,19.4141538 L27.8903529,19.4141538 L26.5107647,19.3716923 L27.1420392,20.4590769 C27.589,21.2298462 27.824,22.1021538 27.824,22.9855385 C27.824,25.8175385 25.4657059,28.1224615 22.566451,28.1224615 C19.6662745,28.1224615 17.3070588,25.8175385 17.3070588,22.9855385 C17.3070588,22.104 17.5420588,21.2316923 17.9890196,20.4618462 L18.6064706,19.3938462 L17.3503725,19.4123077 L17.2711176,19.4169231 C14.3313137,19.4169231 11.9389216,17.0815385 11.9389216,14.2089231 C11.9389216,11.3381538 14.3313137,9.00184615 17.2711176,9.00184615 C19.2810588,9.00184615 21.1011569,10.0929231 22.0190392,11.8495385 L22.6457059,13.0486154 L23.2954118,11.8615385 C24.2142157,10.1843077 25.991,9.14307692 27.9345882,9.14307692 C30.8338431,9.14307692 33.1939804,11.4470769 33.1939804,14.28 C33.1939804,17.1110769 30.8366078,19.4141538 27.8949608,19.4141538 L27.8958824,19.4141538 Z M39.3878431,16.6375385 C38.3271176,16.6375385 37.4672941,15.7975385 37.4672941,14.7618462 C37.4672941,13.7261538 38.3271176,12.8861538 39.3878431,12.8861538 C40.4476471,12.8861538 41.3083922,13.7261538 41.3083922,14.7618462 C41.3083922,15.7975385 40.4485686,16.6375385 39.3878431,16.6375385 Z" id="a"></path>
                    </g>
                    <g id="a-Clipped">
                        <mask id="mask-2" fill="white">
                            <use xlink:href="#path-1"></use>
                        </mask>
                        <g id="Shape"></g>
                        <path d="M40.1158824,10.2193846 C39.2542157,10.2193846 38.4413922,10.4169231 37.7124314,10.7584615 C35.5329216,5.15630769 29.9878431,1.17415385 23.4880196,1.17415385 C16.9872745,1.17415385 11.4431176,5.15723077 9.26268627,10.7584615 C8.51090002,10.40381 7.69022833,10.2197392 6.85923529,10.2193846 C3.78672549,10.2193846 1.29572549,12.6526154 1.29572549,15.6535385 C1.29572549,18.6553846 3.78672549,21.0876923 6.85923529,21.0876923 C7.70984314,21.0876923 8.51345098,20.8956923 9.23411765,20.5615385 C10.6146275,23.2403077 13.3830196,24.5261538 16.9052549,25.1030769 C17.4830784,28.1427692 20.2118431,30.4523077 23.4880196,30.4523077 C26.7632745,30.4523077 29.4920392,28.1427692 30.0698627,25.104 C33.592098,24.5261538 36.3604902,23.2393846 37.741,20.5624615 C38.4616667,20.8956923 39.2652745,21.0886154 40.1158824,21.0886154 C43.1883922,21.0886154 45.6793922,18.6553846 45.6793922,15.6535385 C45.6793922,12.6535385 43.1883922,10.2193846 40.1158824,10.2193846 L40.1158824,10.2193846 Z M6.86107843,17.5606154 C5.80035294,17.5606154 4.94052941,16.7206154 4.94052941,15.6849231 C4.94052941,14.6492308 5.80035294,13.8092308 6.86107843,13.8092308 C7.92088235,13.8092308 8.78162745,14.6492308 8.78162745,15.6849231 C8.78162745,16.7206154 7.92180392,17.5606154 6.86107843,17.5606154 Z M28.817451,20.3372308 L28.8119216,20.3372308 L27.4323333,20.2947692 L28.0636078,21.3821538 C28.5105686,22.1529231 28.7455686,23.0252308 28.7455686,23.9086154 C28.7455686,26.7406154 26.3872745,29.0455385 23.4880196,29.0455385 C20.5878431,29.0455385 18.2286275,26.7406154 18.2286275,23.9086154 C18.2286275,23.0270769 18.4636275,22.1547692 18.9105882,21.3849231 L19.5280392,20.3169231 L18.2719412,20.3353846 L18.1926863,20.34 C15.2528824,20.34 12.8604902,18.0046154 12.8604902,15.132 C12.8604902,12.2612308 15.2528824,9.92492308 18.1926863,9.92492308 C20.2026275,9.92492308 22.0227255,11.016 22.9406078,12.7726154 L23.5672745,13.9716923 L24.2169804,12.7846154 C25.1357843,11.1073846 26.9125686,10.0661538 28.8561569,10.0661538 C31.7554118,10.0661538 34.115549,12.3701538 34.115549,15.2030769 C34.115549,18.0341538 31.7581765,20.3372308 28.8165294,20.3372308 L28.817451,20.3372308 Z M40.3094118,17.5606154 C39.2486863,17.5606154 38.3888627,16.7206154 38.3888627,15.6849231 C38.3888627,14.6492308 39.2486863,13.8092308 40.3094118,13.8092308 C41.3692157,13.8092308 42.2299608,14.6492308 42.2299608,15.6849231 C42.2299608,16.7206154 41.3701373,17.5606154 40.3094118,17.5606154 Z" id="a" stroke="#4A4A4A" stroke-width="0.7" mask="url(#mask-2)"></path>
                    </g>
                    <path d="M28.817451,20.3372308 L28.8119216,20.3372308 L27.4323333,20.2947692 L28.0636078,21.3821538 C28.5105686,22.1529231 28.7455686,23.0252308 28.7455686,23.9086154 C28.7455686,26.7406154 26.3872745,29.0455385 23.4880196,29.0455385 C20.5878431,29.0455385 18.2286275,26.7406154 18.2286275,23.9086154 C18.2286275,23.0270769 18.4636275,22.1547692 18.9105882,21.3849231 L19.5280392,20.3169231 L18.2719412,20.3353846 L18.1926863,20.34 C15.2528824,20.34 12.8604902,18.0046154 12.8604902,15.132 C12.8604902,12.2612308 15.2528824,9.92492308 18.1926863,9.92492308 C20.2026275,9.92492308 22.0227255,11.016 22.9406078,12.7726154 L23.5672745,13.9716923 L24.2169804,12.7846154 C25.1357843,11.1073846 26.9125686,10.0661538 28.8561569,10.0661538 C31.7554118,10.0661538 34.115549,12.3701538 34.115549,15.2030769 C34.115549,18.0341538 31.7581765,20.3372308 28.8165294,20.3372308 L28.817451,20.3372308 Z M6.86107843,17.5606154 C5.80035294,17.5606154 4.94052941,16.7206154 4.94052941,15.6849231 C4.94052941,14.6492308 5.80035294,13.8092308 6.86107843,13.8092308 C7.92088235,13.8092308 8.78162745,14.6492308 8.78162745,15.6849231 C8.78162745,16.7206154 7.92180392,17.5606154 6.86107843,17.5606154 Z M40.3094118,17.5606154 C39.2486863,17.5606154 38.3888627,16.7206154 38.3888627,15.6849231 C38.3888627,14.6492308 39.2486863,13.8092308 40.3094118,13.8092308 C41.3692157,13.8092308 42.2299608,14.6492308 42.2299608,15.6849231 C42.2299608,16.7206154 41.3701373,17.5606154 40.3094118,17.5606154 Z" id="Shape" fill="#4A4A4A" fill-rule="nonzero"></path>
                    <ellipse id="Oval" fill="#727272" fill-rule="nonzero" cx="23.4880196" cy="18.5104615" rx="1.44041176" ry="1"></ellipse>
                    <ellipse id="Oval" fill="#727272" fill-rule="nonzero" cx="20.2745098" cy="15.8021538" rx="1" ry="1"></ellipse>
                    <ellipse id="Oval" fill="#727272" fill-rule="nonzero" cx="26.7015294" cy="15.8021538" rx="1" ry="1"></ellipse>
                    <path d="M19.1686275,23.3787692 C19.1686275,23.3787692 19.1216275,22.9652308 19.5354118,22.9652308 C19.9491961,22.9652308 19.9491961,23.3787692 19.9491961,23.3787692 C19.9491961,23.3787692 19.8644118,24.7015385 20.9352745,25.8221538 C22.0042941,26.9418462 23.4714314,26.9104615 23.4714314,26.9104615 C23.4714314,26.9104615 25.0012353,26.9289231 26.0426078,25.8212308 C27.0839804,24.7144615 27.025,23.3787692 27.025,23.3787692 C27.025,23.3787692 27.025,22.9652308 27.4102157,22.9652308 C27.7954314,22.9652308 27.8037255,23.3787692 27.8037255,23.3787692 C27.8037255,23.3787692 27.9474902,25.1086154 26.6517647,26.4083077 C25.3560392,27.7089231 23.4714314,27.7126154 23.4714314,27.7126154 C23.4714314,27.7126154 21.6467255,27.7126154 20.3814118,26.4083077 C19.1151765,25.104 19.1677059,23.3787692 19.1677059,23.3787692 L19.1686275,23.3787692 Z" id="Shape" fill="#727272" fill-rule="nonzero"></path>
                </g>
            </g>
        </g>
    </g>
</svg>