<svg width="66" height="67" viewBox="0 0 66 67" xmlns="http://www.w3.org/2000/svg" xmlns:xlink="http://www.w3.org/1999/xlink"><title>A8CDF237-72E3-49DC-A619-D078C7D403D5</title><defs><path d="M42.53 10.071c-.935 0-1.817.214-2.608.584C37.557 4.586 31.54.272 24.487.272c-7.054 0-13.07 4.315-15.436 10.383a6.127 6.127 0 0 0-2.608-.584c-3.334 0-6.037 2.636-6.037 5.887 0 3.252 2.703 5.887 6.037 5.887.923 0 1.795-.208 2.577-.57 1.498 2.902 4.502 4.295 8.324 4.92.627 3.293 3.588 5.795 7.143 5.795 3.554 0 6.515-2.502 7.142-5.794 3.822-.626 6.826-2.02 8.324-4.92.782.361 1.654.57 2.577.57 3.334 0 6.037-2.636 6.037-5.888 0-3.25-2.703-5.887-6.037-5.887zM6.445 18.024c-1.151 0-2.084-.91-2.084-2.032 0-1.122.933-2.032 2.084-2.032 1.15 0 2.084.91 2.084 2.032 0 1.122-.933 2.032-2.084 2.032zm23.825 3.008h-.006l-1.497-.046.685 1.178c.485.835.74 1.78.74 2.737 0 3.068-2.559 5.565-5.705 5.565-3.147 0-5.707-2.497-5.707-5.565 0-.955.255-1.9.74-2.734l.67-1.157-1.363.02-.086.005c-3.19 0-5.786-2.53-5.786-5.642 0-3.11 2.596-5.641 5.786-5.641 2.181 0 4.156 1.182 5.152 3.085l.68 1.299.705-1.286c.997-1.817 2.925-2.945 5.034-2.945 3.146 0 5.707 2.496 5.707 5.565 0 3.067-2.558 5.562-5.75 5.562zm12.47-3.008c-1.151 0-2.084-.91-2.084-2.032 0-1.122.933-2.032 2.084-2.032 1.15 0 2.084.91 2.084 2.032 0 1.122-.933 2.032-2.084 2.032z" id="a"/><mask id="b" x="-1" y="-1" width="50.16" height="33.718"><path fill="#fff" d="M-.594-.728h50.16V32.99H-.594z"/><use xlink:href="#a"/></mask></defs><g fill="none" fill-rule="evenodd"><g fill="#727272"><path d="M21.134 29.762c-.025.023-.025.045-.025.068.586 1.501-.892 2.935-1.503 3.473.815-1.367.968-2.756.51-4.1-.612-1.749-2.165-3.138-3.388-4.012-1.324-.942-2.496-1.457-2.521-1.457h-.077c-.025.022-.025.045 0 .067 1.91 3.25.586 4.393-1.273 5.984-1.427 1.187-3.21 2.734-3.744 5.782-.433 2.6.382 4.706 2.42 6.252 1.884 1.434 4.15 1.882 4.788 1.994.076-.022.101-.067.101-.09 0-.066-.05-.111-.076-.111-1.477-.314-3.871-1.21-3.973-3.519.382.224 1.732.942 2.852.964.026 0 .051-.022.051-.045 0-.022 0-.045-.025-.067-.026-.022-2.165-1.68-2.14-3.944.026-1.39.84-2.712 2.446-3.944.05.56.28 3.047 1.68 4.437 1.529 1.546 2.242 1.277 2.267 1.255 0 0 1.044-.224 1.12-1.076.307.538 1.045 2.084.46 3.518-.434 1.054-1.478 1.838-3.082 2.354-.102.09-.102.156-.102.179.025.067.127.09.254.09 3.439-.471 6.928-3.183 6.928-7.44 0-4.438-3.82-6.59-3.871-6.612-.026-.022-.051 0-.077 0zM45.839 31.287c.025.022.025.044.025.067-.586 1.501.892 2.935 1.503 3.473-.815-1.367-.968-2.756-.51-4.1.612-1.749 2.165-3.138 3.388-4.012 1.324-.941 2.496-1.457 2.521-1.457h.077c.025.023.025.045 0 .067-1.91 3.25-.586 4.393 1.273 5.984 1.427 1.188 3.21 2.734 3.744 5.782.433 2.6-.382 4.706-2.42 6.252-1.884 1.434-4.15 1.883-4.788 1.995-.076-.023-.101-.068-.101-.09 0-.067.05-.112.076-.112 1.477-.314 3.871-1.21 3.973-3.518-.382.224-1.732.94-2.852.963-.026 0-.051-.022-.051-.045 0-.022 0-.044.025-.067.026-.022 2.165-1.68 2.14-3.944-.026-1.39-.84-2.712-2.445-3.944-.051.56-.28 3.048-1.681 4.437-1.529 1.546-2.242 1.277-2.267 1.255 0 0-1.044-.224-1.12-1.076-.306.538-1.045 2.084-.46 3.519.434 1.053 1.478 1.837 3.082 2.353.102.09.102.157.102.179-.025.067-.127.09-.254.09-3.439-.471-6.928-3.183-6.928-7.44 0-4.438 3.82-6.589 3.871-6.611.026-.023.051 0 .077 0z"/><path d="M26.808 19.248c.043.038.043.076.043.114-1.001 2.553 1.524 4.991 2.57 5.905-1.394-2.323-1.655-4.685-.872-6.971 1.045-2.972 3.702-5.334 5.792-6.82C36.605 9.876 38.608 9 38.65 9h.131c.044.038.044.076 0 .114-3.266 5.524-1.001 7.467 2.177 10.172 2.439 2.02 5.487 4.648 6.401 9.83.74 4.419-.653 8-4.136 10.628-3.223 2.439-7.098 3.2-8.187 3.391-.13-.038-.174-.114-.174-.152 0-.115.087-.19.13-.19 2.526-.534 6.62-2.058 6.794-5.982-.653.38-2.961 1.6-4.877 1.638-.044 0-.087-.038-.087-.076s0-.076.043-.114c.044-.039 3.702-2.858 3.658-6.706-.044-2.362-1.437-4.61-4.18-6.705-.087.953-.48 5.182-2.874 7.544-2.613 2.628-3.832 2.171-3.876 2.133 0 0-1.785-.38-1.916-1.829-.522.915-1.785 3.543-.783 5.982.74 1.79 2.525 3.124 5.268 4 .175.152.175.267.175.305-.044.114-.218.152-.436.152-5.878-.8-11.844-5.41-11.844-12.648 0-7.543 6.532-11.2 6.619-11.239.043-.038.087 0 .13 0z"/></g><g transform="translate(9 27.962)"><use fill="#727272" xlink:href="#a"/><use stroke="#4A4A4A" mask="url(#b)" stroke-width="2" xlink:href="#a"/><path d="M30.27 21.032h-.006l-1.497-.046.685 1.178c.485.835.74 1.78.74 2.737 0 3.068-2.559 5.565-5.705 5.565-3.147 0-5.707-2.497-5.707-5.565 0-.955.255-1.9.74-2.734l.67-1.157-1.363.02-.086.005c-3.19 0-5.786-2.53-5.786-5.642 0-3.11 2.596-5.641 5.786-5.641 2.181 0 4.156 1.182 5.152 3.085l.68 1.299.705-1.286c.997-1.817 2.925-2.945 5.034-2.945 3.146 0 5.707 2.496 5.707 5.565 0 3.067-2.558 5.562-5.75 5.562zM6.445 18.024c-1.151 0-2.084-.91-2.084-2.032 0-1.122.933-2.032 2.084-2.032 1.15 0 2.084.91 2.084 2.032 0 1.122-.933 2.032-2.084 2.032zM42.74 18.024c-1.151 0-2.084-.91-2.084-2.032 0-1.122.933-2.032 2.084-2.032 1.15 0 2.084.91 2.084 2.032 0 1.122-.933 2.032-2.084 2.032z" fill="#4A4A4A"/><ellipse fill="#727272" cx="24.487" cy="19.053" rx="1.563" ry=".762"/><ellipse fill="#727272" cx="21" cy="16.119" rx="1.057" ry="1.03"/><ellipse fill="#727272" cx="27.974" cy="16.119" rx="1.057" ry="1.03"/><path d="M19.8 24.327s-.051-.448.398-.448.449.448.449.448-.092 1.433 1.07 2.647c1.16 1.213 2.752 1.179 2.752 1.179s1.66.02 2.79-1.18c1.13-1.199 1.066-2.646 1.066-2.646s0-.448.418-.448.427.448.427.448.156 1.874-1.25 3.282c-1.406 1.409-3.451 1.413-3.451 1.413s-1.98 0-3.353-1.413c-1.374-1.413-1.317-3.282-1.317-3.282z" fill="#727272"/></g></g></svg>